<svg xmlns="http://www.w3.org/2000/svg" xmlns:xlink="http://www.w3.org/1999/xlink" width="353.546" height="298" viewBox="0 0 353.546 298">
  <defs>
    <linearGradient id="linear-gradient" x1="0.5" y1="1" x2="0.5" gradientUnits="objectBoundingBox">
      <stop offset="0" stop-color="gray" stop-opacity="0.251"/>
      <stop offset="0.54" stop-color="gray" stop-opacity="0.122"/>
      <stop offset="1" stop-color="gray" stop-opacity="0.102"/>
    </linearGradient>
    <linearGradient id="linear-gradient-2" x1="0.63" y1="0.974" x2="0.63" y2="-0.017" xlink:href="#linear-gradient"/>
    <linearGradient id="linear-gradient-3" x1="0.5" y1="1" x2="0.5" y2="0" xlink:href="#linear-gradient"/>
  </defs>
  <g id="Group_16147" data-name="Group 16147" transform="translate(-11 -212)">
    <text id="Smart_City_Guide" data-name="Smart
City Guide" transform="translate(188 475)" fill="#132767" font-size="28" font-family="Helvetica-Bold, Helvetica" font-weight="700"><tspan x="0" y="0">Smart</tspan><tspan x="0" y="28">City Guide</tspan></text>
    <g id="undraw_electric_car_b7hl" transform="translate(11.002 212.022)">
      <path id="Path_1956" data-name="Path 1956" d="M147.846,101.049c-1.878,2.279-2.6,5.483-3.41,8.495-6.511,24.274-22.554,43.8-40.825,57.746-7.737,5.908-17.157,13.83-15.464,24.422.911,5.688,4.91,9.876,7.881,14.508,6.233,9.7,8.255,22.887,5.284,34.5-3.379,13.213-12.823,25.542-9.9,38.9,1.8,8.224,7.922,14.077,13.806,19.107q13.768,11.764,28.414,22.04c6.545,4.592,13.508,9.06,21.136,9.643,6.716.514,13.3-2.039,19.672-4.557,5.572-2.2,11.284-4.5,15.783-8.909,2.937-2.882,5.277-6.6,8.539-8.957,7.662-5.537,17.5-2.029,26.289.343a91.535,91.535,0,0,0,62.646-5.736c30.261-14.221,53.326-44.084,82.925-60.107,12.727-6.891,26.57-11.167,38.355-20.042A71.648,71.648,0,0,0,425.837,204.2a78.917,78.917,0,0,0,12.336-48.422c-1.391-17.154-9.187-33.684-21.43-43.368-13.107-10.366-29.661-12.3-44.574-18.524-15.393-6.435-29.092-17.49-44.337-24.381A90.693,90.693,0,0,0,249.6,71.258c-16.6,8.4-33.424,27.982-51.914,29.469C184.512,101.755,158.133,88.569,147.846,101.049Z" transform="translate(-87.95 -61.51)" fill="#6c63ff" opacity="0.1"/>
      <path id="Path_1957" data-name="Path 1957" d="M952.312,304.836s-4.989-16.945.936-29.414a26.762,26.762,0,0,0,2.166-16.791,45.016,45.016,0,0,0-2.378-7.881" transform="translate(-654.836 -185.919)" fill="none" stroke="#535461" stroke-miterlimit="10" stroke-width="2"/>
      <path id="Path_1958" data-name="Path 1958" d="M954.519,220c0,2.077-3.769,8.1-3.769,8.1s-3.769-6.021-3.769-8.1a3.769,3.769,0,1,1,7.518,0Z" transform="translate(-652.615 -163.042)" fill="#6c63ff"/>
      <path id="Path_1959" data-name="Path 1959" d="M972.57,250.6c-1.127,1.744-7.57,4.756-7.57,4.756s.116-7.1,1.244-8.841a3.769,3.769,0,0,1,6.312,4.088Z" transform="translate(-664.467 -182.147)" fill="#6c63ff"/>
      <path id="Path_1960" data-name="Path 1960" d="M969.209,305.252c-1.854.935-8.909.288-8.909.288s3.684-6.069,5.537-7a3.769,3.769,0,0,1,3.385,6.713Z" transform="translate(-661.378 -217.14)" fill="#6c63ff"/>
      <path id="Path_1961" data-name="Path 1961" d="M959.148,349.346c-1.669,1.234-8.748,1.792-8.748,1.792s2.6-6.6,4.276-7.84a3.769,3.769,0,0,1,4.455,6.045Z" transform="translate(-654.87 -246.393)" fill="#6c63ff"/>
      <path id="Path_1962" data-name="Path 1962" d="M939.424,263.606c1.491,1.446,8.43,2.947,8.43,2.947s-1.713-6.891-3.19-8.34a3.769,3.769,0,1,0-5.24,5.394Z" transform="translate(-646.772 -189.996)" fill="#6c63ff"/>
      <path id="Path_1963" data-name="Path 1963" d="M926.974,313.692c1.854.935,8.909.288,8.909.288s-3.684-6.069-5.538-7a3.769,3.769,0,0,0-3.385,6.713Z" transform="translate(-638.26 -222.688)" fill="#6c63ff"/>
      <path id="Path_1964" data-name="Path 1964" d="M922.667,364.583c1.669,1.234,8.748,1.792,8.748,1.792s-2.6-6.6-4.277-7.84a3.769,3.769,0,1,0-4.455,6.045Z" transform="translate(-635.46 -256.148)" fill="#6c63ff"/>
      <path id="Path_1965" data-name="Path 1965" d="M954.519,220c0,2.077-3.769,8.1-3.769,8.1s-3.769-6.021-3.769-8.1a3.769,3.769,0,1,1,7.518,0Z" transform="translate(-652.615 -163.042)" fill="#6c63ff" opacity="0.1"/>
      <path id="Path_1966" data-name="Path 1966" d="M972.57,250.6c-1.127,1.744-7.57,4.756-7.57,4.756s.116-7.1,1.244-8.841a3.769,3.769,0,0,1,6.312,4.088Z" transform="translate(-664.467 -182.147)" fill="#6c63ff" opacity="0.1"/>
      <path id="Path_1967" data-name="Path 1967" d="M969.209,305.252c-1.854.935-8.909.288-8.909.288s3.684-6.069,5.537-7a3.769,3.769,0,0,1,3.385,6.713Z" transform="translate(-661.378 -217.14)" fill="#6c63ff" opacity="0.1"/>
      <path id="Path_1968" data-name="Path 1968" d="M959.148,349.346c-1.669,1.234-8.748,1.792-8.748,1.792s2.6-6.6,4.276-7.84a3.769,3.769,0,0,1,4.455,6.045Z" transform="translate(-654.87 -246.393)" fill="#6c63ff" opacity="0.1"/>
      <path id="Path_1969" data-name="Path 1969" d="M939.424,263.606c1.491,1.446,8.43,2.947,8.43,2.947s-1.713-6.891-3.19-8.34a3.769,3.769,0,1,0-5.24,5.394Z" transform="translate(-646.772 -189.996)" fill="#6c63ff" opacity="0.1"/>
      <path id="Path_1970" data-name="Path 1970" d="M926.974,313.692c1.854.935,8.909.288,8.909.288s-3.684-6.069-5.538-7a3.769,3.769,0,0,0-3.385,6.713Z" transform="translate(-638.26 -222.688)" fill="#6c63ff" opacity="0.1"/>
      <path id="Path_1971" data-name="Path 1971" d="M922.667,364.583c1.669,1.234,8.748,1.792,8.748,1.792s-2.6-6.6-4.277-7.84a3.769,3.769,0,1,0-4.455,6.045Z" transform="translate(-635.46 -256.148)" fill="#6c63ff" opacity="0.1"/>
      <path id="Path_1972" data-name="Path 1972" d="M1013.312,383.836s-4.989-16.945.936-29.414a26.761,26.761,0,0,0,2.166-16.791,45.015,45.015,0,0,0-2.378-7.881" transform="translate(-694.933 -237.848)" fill="none" stroke="#535461" stroke-miterlimit="10" stroke-width="2"/>
      <path id="Path_1973" data-name="Path 1973" d="M1015.519,299c0,2.077-3.769,8.1-3.769,8.1s-3.769-6.021-3.769-8.1a3.769,3.769,0,1,1,7.518,0Z" transform="translate(-692.713 -214.971)" fill="#6c63ff"/>
      <path id="Path_1974" data-name="Path 1974" d="M1033.6,328.743c-1.127,1.744-7.556,4.753-7.556,4.753s.117-7.1,1.244-8.841a3.769,3.769,0,1,1,6.312,4.088Z" transform="translate(-704.591 -233.219)" fill="#6c63ff"/>
      <path id="Path_1975" data-name="Path 1975" d="M1030.209,383.775c-1.854.935-8.909.288-8.909.288s3.684-6.069,5.537-7a3.769,3.769,0,1,1,3.385,6.713Z" transform="translate(-701.475 -268.592)" fill="#6c63ff"/>
      <path id="Path_1976" data-name="Path 1976" d="M1020.148,428.346c-1.669,1.234-8.748,1.792-8.748,1.792s2.6-6.6,4.276-7.84a3.769,3.769,0,0,1,4.455,6.045Z" transform="translate(-694.967 -298.323)" fill="#6c63ff"/>
      <path id="Path_1977" data-name="Path 1977" d="M1001.165,343.326c1.49,1.446,8.429,2.947,8.429,2.947s-1.713-6.891-3.19-8.341a3.769,3.769,0,0,0-5.239,5.394Z" transform="translate(-687.611 -242.645)" fill="#6c63ff"/>
      <path id="Path_1978" data-name="Path 1978" d="M987.974,392.692c1.854.935,8.909.288,8.909.288s-3.684-6.069-5.538-7a3.769,3.769,0,0,0-3.385,6.713Z" transform="translate(-678.357 -274.618)" fill="#6c63ff"/>
      <path id="Path_1979" data-name="Path 1979" d="M983.667,443.583c1.669,1.234,8.748,1.792,8.748,1.792s-2.6-6.6-4.276-7.84a3.769,3.769,0,1,0-4.455,6.045Z" transform="translate(-675.558 -308.077)" fill="#6c63ff"/>
      <path id="Path_1980" data-name="Path 1980" d="M1015.519,299c0,2.077-3.769,8.1-3.769,8.1s-3.769-6.021-3.769-8.1a3.769,3.769,0,1,1,7.518,0Z" transform="translate(-692.713 -214.971)" fill="#6c63ff" opacity="0.1"/>
      <path id="Path_1981" data-name="Path 1981" d="M1033.6,328.743c-1.127,1.744-7.556,4.753-7.556,4.753s.117-7.1,1.244-8.841a3.769,3.769,0,1,1,6.312,4.088Z" transform="translate(-704.591 -233.219)" fill="#6c63ff" opacity="0.1"/>
      <path id="Path_1982" data-name="Path 1982" d="M1030.209,383.775c-1.854.935-8.909.288-8.909.288s3.684-6.069,5.537-7a3.769,3.769,0,1,1,3.385,6.713Z" transform="translate(-701.475 -268.592)" fill="#6c63ff" opacity="0.1"/>
      <path id="Path_1983" data-name="Path 1983" d="M1020.148,428.346c-1.669,1.234-8.748,1.792-8.748,1.792s2.6-6.6,4.276-7.84a3.769,3.769,0,0,1,4.455,6.045Z" transform="translate(-694.967 -298.323)" fill="#6c63ff" opacity="0.1"/>
      <path id="Path_1984" data-name="Path 1984" d="M1001.165,343.326c1.49,1.446,8.429,2.947,8.429,2.947s-1.713-6.891-3.19-8.341a3.769,3.769,0,0,0-5.239,5.394Z" transform="translate(-687.611 -242.645)" fill="#6c63ff" opacity="0.1"/>
      <path id="Path_1985" data-name="Path 1985" d="M987.974,392.692c1.854.935,8.909.288,8.909.288s-3.684-6.069-5.538-7a3.769,3.769,0,0,0-3.385,6.713Z" transform="translate(-678.357 -274.618)" fill="#6c63ff" opacity="0.1"/>
      <path id="Path_1986" data-name="Path 1986" d="M983.667,443.583c1.669,1.234,8.748,1.792,8.748,1.792s-2.6-6.6-4.276-7.84a3.769,3.769,0,1,0-4.455,6.045Z" transform="translate(-675.558 -308.077)" fill="#6c63ff" opacity="0.1"/>
      <ellipse id="Ellipse_58" data-name="Ellipse 58" cx="169.325" cy="27.256" rx="169.325" ry="27.256" transform="matrix(0.995, -0.097, 0.097, 0.995, 11.202, 164.823)" fill="#6c63ff" opacity="0.1"/>
      <path id="Path_1987" data-name="Path 1987" d="M435.835,382.3c6.336-12.987,5.027-34.126,4.352-41.3-.147-1.569-.264-2.471-.264-2.471s-5.585-.881-3.526-7.641c1.007-3.31-2.57-5.14-6.476-6.144a45.614,45.614,0,0,0-8.512-1.2l-54.1-3.341h0c-7.419-11.774-22.016-9.882-22.016-9.882s-13.021-1.354-22.253-1.494a24.849,24.849,0,0,0-4.578-3.2,15.078,15.078,0,0,0-3.1-1.415,8.8,8.8,0,0,0-7.772,1.456,4.132,4.132,0,0,0-1.264,1.47,4.027,4.027,0,0,0-.257.826,14.767,14.767,0,0,0-.343,1.47,2.534,2.534,0,0,1-.343.668c-.37.524-1.007.918-1.09,1.552a1.013,1.013,0,0,0,0,.11,1.15,1.15,0,0,0-.134.391,1.408,1.408,0,0,0,.175.812,1.31,1.31,0,0,0,.069.117,9.674,9.674,0,0,0-1.107,2.125,3.566,3.566,0,0,0-.367.23l-.1.075v.209l-.058.045-.127,3.375.072.055a9.992,9.992,0,0,0,4.647,7.8c.045.216.086.435.127.665a18.11,18.11,0,0,1,.254,3.351h-.058c-1.611-.685-4.366.322-6.733,1.5H270.266a96.13,96.13,0,0,1,13.3-13.665v-6.764c-5.229-.26-51.167,21.807-61.238,26.68l-.445.216-51.76,1.6a79.759,79.759,0,0,0-24.672,3.564,70.209,70.209,0,0,0-30.895,19.738,57.711,57.711,0,0,0-8.793,12.254l.058.466-.058.12.082.072,1.395,11.006.959,7.573c-6.668,4.311,1.97,6.038,1.97,6.038,8.224,7.052,21.454,6.761,21.454,6.761,3.231,4.41,12.637,3.821,12.637,3.821h49.375a119.635,119.635,0,0,1,3.084-13.432c2.107,15.177,14.084,26.8,28.537,26.8a26.7,26.7,0,0,0,3.207-.2,26.7,26.7,0,0,0,3.207.2c14.621,0,26.7-11.9,28.606-27.331H262.7a53.852,53.852,0,0,1-2.34,10.14c44.379-12.932,126.964-19.1,126.964-19.1q.514-4.883,1.127-9.42c3.4,8.447,11.116,14.344,20.094,14.344a20.272,20.272,0,0,0,2.44-.151,20.275,20.275,0,0,0,2.44.151c10.66,0,19.532-8.316,21.533-19.344a50.414,50.414,0,0,1,.452,5.87c-.38,1.871-.713,3.067-.757,3.235q.4-.733.761-1.5v.61c-.082.343-.141.535-.158.6l.151-.281v.449A13.375,13.375,0,0,1,435.835,382.3Z" transform="translate(-99.603 -220.832)" fill="url(#linear-gradient)"/>
      <rect id="Rectangle_16869" data-name="Rectangle 16869" width="101.737" height="41.041" transform="translate(229.317 114.802)" fill="#6f7d95"/>
      <path id="Path_1988" data-name="Path 1988" d="M593.73,276.758l14.45,32.372L636.8,307.4l1.155-13.3.867-15.608L598.356,275.6Z" transform="translate(-390.281 -181.176)" fill="#4b5c7a"/>
      <path id="Path_1989" data-name="Path 1989" d="M681.68,327.667s5.483-5.2,12.141-6.36,28.9,1.155,28.9,1.155l3.18,5.483-.6,2.611Z" transform="translate(-478.231 -232.085)" fill="#ff4d52"/>
      <rect id="Rectangle_16870" data-name="Rectangle 16870" width="102.604" height="30.059" transform="translate(155.325 112.201)" fill="#4b5c7a"/>
      <path id="Path_1990" data-name="Path 1990" d="M665.455,355.4a16.166,16.166,0,0,0-2.693-15.019l-8.957-6.25a.422.422,0,0,1-.027.062,11.65,11.65,0,0,1-2.436-4.722c-.027-.11-.052-.223-.079-.343a9.643,9.643,0,0,0,2.125-2.176,5.251,5.251,0,0,0,2.358-3.769,18.8,18.8,0,0,0,2.224-4.5,8.021,8.021,0,0,0,.226-.785,4.112,4.112,0,0,0,.226-1.539,4.206,4.206,0,0,0-.569-1.645c-1.508-2.741-4.222-4.65-6.973-6.206a14.835,14.835,0,0,0-3.053-1.391,8.652,8.652,0,0,0-7.641,1.432A4.066,4.066,0,0,0,638.94,310a3.967,3.967,0,0,0-.254.812,14.5,14.5,0,0,0-.325,1.446,2.5,2.5,0,0,1-.322.654c-.367.514-.99.9-1.073,1.528a1.027,1.027,0,0,0,0,.11,1.133,1.133,0,0,0-.13.384,1.371,1.371,0,0,0,.171.8,1.294,1.294,0,0,0,.068.117,9.523,9.523,0,0,0-1.09,2.09,3.489,3.489,0,0,0-.363.226l-.1.072v.206l-.058.045-.127,3.32.069.055a9.824,9.824,0,0,0,4.568,7.672c.045.212.086.428.123.654a17.589,17.589,0,0,1,.247,3.622,1.239,1.239,0,0,1,0-.315c-2.477-1.12-7.881,1.977-10.057,3.348h0a4.127,4.127,0,0,0-.915.593l-.038.027h0c-1.5,1.213-4.455,4.585-6.8,13.251-3.255,12.093-2.916,14.834-5.287,17.637S612.52,390.9,612.52,390.9l4.773,1.285.61-1.96c5.674,5.174,21.564,7.665,21.564,7.665l.487-1.511c2.436.877,6.511-.456,6.511-.456,5.955-2.1,8.186-7.443,12.507-14.484S665.455,355.4,665.455,355.4Zm-24.021,36.436,11-34.119c1,5.3-3.4,13.641-3.793,19.1C648.4,380.324,644.313,387.3,641.434,391.838Z" transform="translate(-432.77 -222.75)" fill="url(#linear-gradient-2)"/>
      <path id="Path_1991" data-name="Path 1991" d="M723.787,343.795s1.916,7.3-3.769,8.567-1.939-3.279-1.939-3.279l5.483-5.342Z" transform="translate(-501.361 -247.044)" fill="#472727"/>
      <path id="Path_1992" data-name="Path 1992" d="M635.274,394.64s-4.229,1.713-7.337,13.254-2.8,14.145-5.037,16.828-4.53,21.509-4.53,21.509l4.475,1.206,3.9-12.583,10.715-33.238Z" transform="translate(-436.615 -280.503)" fill="#dde0e4"/>
      <path id="Path_1993" data-name="Path 1993" d="M635.274,394.64s-4.229,1.713-7.337,13.254-2.8,14.145-5.037,16.828-4.53,21.509-4.53,21.509l4.475,1.206,3.9-12.583,10.715-33.238Z" transform="translate(-436.615 -280.503)" opacity="0.05"/>
      <path id="Path_1994" data-name="Path 1994" d="M706.735,364.219s-17.7,9-15.111,3.129a14.6,14.6,0,0,0,.86-8.224,17.56,17.56,0,0,0-1.114-3.982s12.034-9.519,11.329-1.748a14.872,14.872,0,0,0,.343,5A10.022,10.022,0,0,0,706.735,364.219Z" transform="translate(-484.597 -251.384)" fill="#db8b8b"/>
      <path id="Path_1995" data-name="Path 1995" d="M703.025,358.41a9.252,9.252,0,0,1-8.224,1.713,9.355,9.355,0,0,1-2.347-.99,17.568,17.568,0,0,0-1.114-3.982s12.034-9.519,11.329-1.748A14.869,14.869,0,0,0,703.025,358.41Z" transform="translate(-484.581 -251.39)" opacity="0.1"/>
      <circle id="Ellipse_59" data-name="Ellipse 59" cx="9.266" cy="9.266" r="9.266" transform="translate(201.415 105.864) rotate(-74.93)" fill="#db8b8b"/>
      <path id="Path_1996" data-name="Path 1996" d="M689.071,321.173a2.21,2.21,0,0,1-3.084-.812,1.329,1.329,0,0,1-.158-.761c.079-.6.668-.966,1.028-1.46.559-.8.452-1.892.857-2.779a3.906,3.906,0,0,1,1.172-1.371,8.057,8.057,0,0,1,7.179-1.4,13.685,13.685,0,0,1,2.858,1.312c2.577,1.47,5.116,3.269,6.511,5.884a4.015,4.015,0,0,1,.528,1.566,4.455,4.455,0,0,1-.308,1.748,18.215,18.215,0,0,1-2.135,4.342,3.345,3.345,0,0,0-1.11-.894,1.145,1.145,0,0,0-1.316.243c-.3.38-.48,1.107-.932.935-.295-.11-.291-.517-.277-.833a4.759,4.759,0,0,0-1.689-3.588,14.145,14.145,0,0,0-3.475-2.135c-.881-.432-2.056-1.422-3.022-1.6C690.5,319.354,689.931,320.642,689.071,321.173Z" transform="translate(-480.955 -226.366)" opacity="0.1"/>
      <path id="Path_1997" data-name="Path 1997" d="M689.441,319.8a2.21,2.21,0,0,1-3.084-.812,1.328,1.328,0,0,1-.157-.761c.079-.6.668-.966,1.028-1.46.559-.8.452-1.892.857-2.779a3.906,3.906,0,0,1,1.172-1.371,8.057,8.057,0,0,1,7.179-1.4,13.685,13.685,0,0,1,2.858,1.312c2.577,1.47,5.116,3.269,6.511,5.884a4.015,4.015,0,0,1,.528,1.566,4.457,4.457,0,0,1-.308,1.748,18.22,18.22,0,0,1-2.135,4.342,3.344,3.344,0,0,0-1.11-.894,1.144,1.144,0,0,0-1.316.243c-.3.38-.48,1.107-.932.935-.295-.11-.291-.517-.278-.833a4.759,4.759,0,0,0-1.689-3.588,14.147,14.147,0,0,0-3.475-2.135c-.881-.432-2.056-1.422-3.022-1.6C690.866,317.98,690.3,319.272,689.441,319.8Z" transform="translate(-481.198 -225.465)" fill="#472727"/>
      <path id="Path_1998" data-name="Path 1998" d="M656.2,387.978s7.33-1.436,7.648-2.611l8.382,5.918a15.491,15.491,0,0,1,2.464,14.3s-2.1,18.124-6.185,24.85-6.432,15.44-12.028,17.476c0,0-5.38-3.468-7.155-3.427,0,0,9.112-13.2,9.5-18.4s4.554-13.169,3.642-18.213l-12.336,38.344s-19.875-3.084-21.889-9.68a8.841,8.841,0,0,0,1.395-5.181c-.319-2.608,7.5-22.225,7.5-22.225l3.742-20.457s7.4-5.171,10.349-3.828C651.219,384.822,650.684,387.375,656.2,387.978Z" transform="translate(-443.109 -273.916)" fill="#dde0e4"/>
      <g id="Group_16113" data-name="Group 16113" transform="translate(203.442 95.952)" opacity="0.1">
        <path id="Path_1999" data-name="Path 1999" d="M693.982,343.772h0c-1.809-2.467-5.26-.442-5.825-.089l-.887-.089c-.775-.843-3.149-3.084-5.38-1.436l-.1.072-.134,3.163.1.075a6.607,6.607,0,0,0,2.156,1.1,3.252,3.252,0,0,0,1.521.075,2.625,2.625,0,0,0,1.751-1.371l.463.031.343-.065A2.608,2.608,0,0,0,689.223,347c1.532.867,3.769,0,3.862-.017l.117-.045.822-3.06Zm-1.162,2.782a4.583,4.583,0,0,1-3.331,0,2.214,2.214,0,0,1-1.028-1.665l-.041-.25-.751.154-.754-.027-.072.144a2.224,2.224,0,0,1-1.5,1.261,4.629,4.629,0,0,1-3.177-1.007l.113-2.673c1.939-1.306,4.078.812,4.695,1.5l.065.072,1.251.123.075-.051c.034-.021,3.142-2.107,4.914-.428a2.29,2.29,0,0,1,.243.264Z" transform="translate(-681.66 -341.569)"/>
        <path id="Path_2000" data-name="Path 2000" d="M721.852,349.478,716.027,349l-.48-.093.216-.809a2.289,2.289,0,0,0-.243-.264l.706.069,4.766.466Z" transform="translate(-703.917 -345.684)"/>
      </g>
      <path id="Path_2001" data-name="Path 2001" d="M694.162,343.132h0c-1.809-2.467-5.26-.442-5.825-.089l-.887-.089c-.774-.843-3.149-3.084-5.38-1.436l-.1.072-.134,3.163.1.075a6.606,6.606,0,0,0,2.155,1.1,3.252,3.252,0,0,0,1.521.075,2.624,2.624,0,0,0,1.751-1.371l.463.031.343-.065a2.607,2.607,0,0,0,1.234,1.761c1.532.867,3.769,0,3.862-.017l.117-.045.822-3.06ZM693,345.915a4.583,4.583,0,0,1-3.331,0,2.214,2.214,0,0,1-1.028-1.665L688.6,344l-.751.154-.743-.048-.072.144a2.224,2.224,0,0,1-1.5,1.275,4.629,4.629,0,0,1-3.176-1.008l.113-2.673c1.94-1.306,4.078.812,4.695,1.5l.065.072,1.251.123.075-.051c.034-.021,3.142-2.107,4.914-.428a2.282,2.282,0,0,1,.243.264Z" transform="translate(-478.336 -245.196)" fill="#472727"/>
      <path id="Path_2002" data-name="Path 2002" d="M722.052,348.838l-5.8-.483-.48-.093.216-.809a2.3,2.3,0,0,0-.243-.264l.706.069,4.766.466Z" transform="translate(-500.62 -249.312)" fill="#472727"/>
      <rect id="Rectangle_16871" data-name="Rectangle 16871" width="101.737" height="41.041" transform="translate(79.888 135.612)" fill="#6f7d95"/>
      <ellipse id="Ellipse_60" data-name="Ellipse 60" cx="28.39" cy="31.069" rx="28.39" ry="31.069" transform="translate(98.059 141.393)" fill="#4b5c7a"/>
      <ellipse id="Ellipse_61" data-name="Ellipse 61" cx="28.39" cy="31.069" rx="28.39" ry="31.069" transform="translate(98.059 141.393)" opacity="0.05"/>
      <ellipse id="Ellipse_62" data-name="Ellipse 62" cx="28.39" cy="31.069" rx="28.39" ry="31.069" transform="translate(104.368 141.393)" fill="#4b5c7a"/>
      <circle id="Ellipse_63" data-name="Ellipse 63" cx="12.617" cy="12.617" r="12.617" transform="translate(119.51 160.003)" opacity="0.05"/>
      <circle id="Ellipse_64" data-name="Ellipse 64" cx="3.786" cy="3.786" r="3.786" transform="translate(128.34 168.834)" fill="none" stroke="#6f7d95" stroke-miterlimit="10" stroke-width="2"/>
      <circle id="Ellipse_65" data-name="Ellipse 65" cx="0.946" cy="0.946" r="0.946" transform="translate(131.181 165.051)" fill="#6f7d95"/>
      <circle id="Ellipse_66" data-name="Ellipse 66" cx="0.946" cy="0.946" r="0.946" transform="matrix(0.766, -0.643, 0.643, 0.766, 135.969, 167.705)" fill="#6f7d95"/>
      <circle id="Ellipse_67" data-name="Ellipse 67" cx="0.946" cy="0.946" r="0.946" transform="translate(138.142 173.73) rotate(-80)" fill="#6f7d95"/>
      <circle id="Ellipse_68" data-name="Ellipse 68" cx="0.946" cy="0.946" r="0.946" transform="translate(135.242 177.402) rotate(-30)" fill="#6f7d95"/>
      <circle id="Ellipse_69" data-name="Ellipse 69" cx="0.946" cy="0.946" r="0.946" transform="matrix(0.342, -0.94, 0.94, 0.342, 129.925, 179.321)" fill="#6f7d95"/>
      <circle id="Ellipse_70" data-name="Ellipse 70" cx="0.946" cy="0.946" r="0.946" transform="matrix(0.94, -0.342, 0.342, 0.94, 125.683, 174.703)" fill="#6f7d95"/>
      <circle id="Ellipse_71" data-name="Ellipse 71" cx="0.946" cy="0.946" r="0.946" transform="translate(125.55 170.122) rotate(-60)" fill="#6f7d95"/>
      <path id="Path_2003" data-name="Path 2003" d="M1020.936,440.76a81.681,81.681,0,0,1-3.667,14.025q.027-.685.034-1.354v-1.713a46.577,46.577,0,0,0-16.886-35.294A36.454,36.454,0,0,0,995,412.6h17.63s6.935,14.162,8.381,21.1A21.142,21.142,0,0,1,1020.936,440.76Z" transform="translate(-684.187 -292.308)" fill="#ff4d52"/>
      <path id="Path_2004" data-name="Path 2004" d="M1020.936,440.76a81.681,81.681,0,0,1-3.667,14.025q.027-.685.034-1.354v-1.713a46.577,46.577,0,0,0-16.886-35.294A36.454,36.454,0,0,0,995,412.6h17.63s6.935,14.162,8.381,21.1A21.142,21.142,0,0,1,1020.936,440.76Z" transform="translate(-684.187 -292.308)" opacity="0.05"/>
      <ellipse id="Ellipse_72" data-name="Ellipse 72" cx="21.591" cy="23.63" rx="21.591" ry="23.63" transform="translate(285.099 125.421)" fill="#4b5c7a"/>
      <ellipse id="Ellipse_73" data-name="Ellipse 73" cx="21.591" cy="23.63" rx="21.591" ry="23.63" transform="translate(285.099 125.421)" opacity="0.05"/>
      <ellipse id="Ellipse_74" data-name="Ellipse 74" cx="21.591" cy="23.63" rx="21.591" ry="23.63" transform="translate(289.897 125.421)" fill="#4b5c7a"/>
      <circle id="Ellipse_75" data-name="Ellipse 75" cx="9.595" cy="9.595" r="9.595" transform="translate(301.414 139.577)" opacity="0.05"/>
      <circle id="Ellipse_76" data-name="Ellipse 76" cx="2.878" cy="2.878" r="2.878" transform="translate(308.13 146.293)" fill="none" stroke="#6f7d95" stroke-miterlimit="10" stroke-width="2"/>
      <circle id="Ellipse_77" data-name="Ellipse 77" cx="0.72" cy="0.72" r="0.72" transform="translate(310.289 143.415)" fill="#6f7d95"/>
      <circle id="Ellipse_78" data-name="Ellipse 78" cx="0.72" cy="0.72" r="0.72" transform="matrix(0.766, -0.643, 0.643, 0.766, 313.932, 145.432)" fill="#6f7d95"/>
      <circle id="Ellipse_79" data-name="Ellipse 79" cx="0.72" cy="0.72" r="0.72" transform="translate(315.583 150.018) rotate(-80)" fill="#6f7d95"/>
      <circle id="Ellipse_80" data-name="Ellipse 80" cx="0.72" cy="0.72" r="0.72" transform="translate(313.381 152.81) rotate(-30)" fill="#6f7d95"/>
      <circle id="Ellipse_81" data-name="Ellipse 81" cx="0.72" cy="0.72" r="0.72" transform="matrix(0.342, -0.94, 0.94, 0.342, 309.335, 154.269)" fill="#6f7d95"/>
      <circle id="Ellipse_82" data-name="Ellipse 82" cx="0.72" cy="0.72" r="0.72" transform="matrix(0.94, -0.342, 0.342, 0.94, 306.107, 150.753)" fill="#6f7d95"/>
      <circle id="Ellipse_83" data-name="Ellipse 83" cx="0.72" cy="0.72" r="0.72" transform="translate(306.01 147.27) rotate(-60)" fill="#6f7d95"/>
      <path id="Path_2005" data-name="Path 2005" d="M116.611,534.762,114,514.24h30.926l15.9,14.162-7.8,18.209S121.539,541.41,116.611,534.762Z" transform="translate(-105.075 -359.12)" fill="#ff4d52"/>
      <path id="Path_2006" data-name="Path 2006" d="M160.865,528.409l-7.8,18.209s-31.491-5.2-36.418-11.849l-.113-.894-2.4-18.977-.024-.189-.058-.459h30.926Z" transform="translate(-105.108 -359.127)" opacity="0.05"/>
      <path id="Path_2007" data-name="Path 2007" d="M505.136,330.366v6.648s-15.982,13.021-19.786,25.306a15.482,15.482,0,0,0-.737,6.2C486.059,382.1,443,357.532,443,357.532l1.916-.932C454.815,351.827,499.992,330.105,505.136,330.366Z" transform="translate(-321.338 -238.251)" fill="#7597ce"/>
      <path id="Path_2008" data-name="Path 2008" d="M730.051,366.237s14.968-7.354,17.37-12.8c.322-.73.627-1.467.984-2.183,1.484-2.985,4.6-9.985,3.033-13.347-2.022-4.335,4.914.579,4.914.579L752.3,359.006l-9.828,5.483-12.716,1.748" transform="translate(-509.836 -242.039)" fill="#ff4d52"/>
      <path id="Path_2009" data-name="Path 2009" d="M730.051,366.237s14.968-7.354,17.37-12.8c.322-.73.627-1.467.984-2.183,1.484-2.985,4.6-9.985,3.033-13.347-2.022-4.335,4.914.579,4.914.579L752.3,359.006l-9.828,5.483-12.716,1.748" transform="translate(-509.836 -242.039)" opacity="0.05"/>
      <path id="Path_2010" data-name="Path 2010" d="M160.845,528.416l-7.8,18.209s-31.491-5.2-36.418-11.849l-.113-.894c.127-.086.26-.175.4-.26,0,0,9.536,7.515,31.217,9.252,0,0,13.021-10.407-8.094-21.965,0,0-18.367.576-25.933-6l-.082-.069.058-.12q.075-.147.243-.459h30.624Z" transform="translate(-105.088 -359.133)" opacity="0.05"/>
      <path id="Path_2011" data-name="Path 2011" d="M484.613,418.845C486.059,432.431,443,407.862,443,407.862l1.916-.932c1.268,1.35,6.329,5.9,16.448,5.411,6.511-.319,16.4-.027,24,.3A15.482,15.482,0,0,0,484.613,418.845Z" transform="translate(-321.338 -288.581)" opacity="0.05"/>
      <path id="Path_2012" data-name="Path 2012" d="M422.837,457.31v41.041h-18.9c1.247-9.547.528-23.462-11.6-31.439a29.325,29.325,0,0,0-30.6-.911c-7.946,4.537-16.832,13.761-22.479,32.351H321.1V457.31Z" transform="translate(-241.209 -321.698)" opacity="0.05"/>
      <path id="Path_2013" data-name="Path 2013" d="M1020.936,440.76a47.219,47.219,0,0,1-3.629,12.679q-.343.757-.747,1.477c.045-.168.37-1.34.747-3.183,1.837-8.978,4.979-33.821-16.074-35.24-.274-.017-.545-.034-.815-.045A36.46,36.46,0,0,0,995,412.6h17.63s6.935,14.162,8.381,21.1A21.142,21.142,0,0,1,1020.936,440.76Z" transform="translate(-684.187 -292.308)" opacity="0.05"/>
      <path id="Path_2014" data-name="Path 2014" d="M437.871,413.328c.274-.99,10.04-36.71-15.327-38.42-25.724-1.734-28.9,17.63-31.792,43.933,0,0-81.212,6.069-124.86,18.788,0,0,10.479-28.715-9.252-41.7a29.325,29.325,0,0,0-30.6-.911c-9.732,5.558-20.879,18.161-25.755,46.369H151.721s-9.252.579-12.428-3.769c0,0-13.021.288-21.1-6.648,0,0-8.669-1.734-1.734-6.069,0,0,9.828,7.515,31.5,9.252,0,0,13.021-10.407-8.094-21.965,0,0-18.5.579-26.012-6.069a56.7,56.7,0,0,1,8.649-12.048,69.046,69.046,0,0,1,30.37-19.419,78.654,78.654,0,0,1,24.278-3.5l51.013-1.59s4.928,6.36,16.763,5.781,34.972.867,34.972.867h.23l47.6-2.155a30.289,30.289,0,0,0,4.047-.857c6.9-1.874,19.991-7.559,17.63-23.435l74.859,4.626a44.851,44.851,0,0,1,8.371,1.182c3.845.987,7.36,2.789,6.37,6.045-2.022,6.648,3.468,7.515,3.468,7.515s.116.888.26,2.43C443.429,378.828,444.775,400.69,437.871,413.328Z" transform="translate(-104.925 -251.001)" fill="#ff4d52"/>
      <path id="Path_2015" data-name="Path 2015" d="M292.272,442.55s-31.217.288-51.742,18.5h11.562s32.372-8.382,40.174-15.029Z" transform="translate(-188.248 -311.996)" opacity="0.05"/>
      <path id="Path_2016" data-name="Path 2016" d="M291.422,441.7s-31.217.288-51.742,18.5h11.561s32.372-8.382,40.174-15.029Z" transform="translate(-187.689 -311.437)" fill="#ffec9f"/>
      <path id="Path_2017" data-name="Path 2017" d="M170.487,423.25v7.768l-26.3,12.141-4.071-.49A69.046,69.046,0,0,1,170.487,423.25Z" transform="translate(-122.245 -299.309)" opacity="0.05"/>
      <path id="Path_2018" data-name="Path 2018" d="M169.63,422.41v7.768l-26.3,12.137-4.071-.49A69.046,69.046,0,0,1,169.63,422.41Z" transform="translate(-121.679 -298.757)" fill="#ffec9f"/>
      <path id="Path_2019" data-name="Path 2019" d="M306.758,525.21a36.882,36.882,0,0,0-15.608,27.756h8.094s3.18-20.81,12.428-27.756Z" transform="translate(-221.522 -366.331)" fill="none"/>
      <path id="Path_2020" data-name="Path 2020" d="M306.758,525.21a36.882,36.882,0,0,0-15.608,27.756h8.094s3.18-20.81,12.428-27.756Z" transform="translate(-221.522 -366.331)" opacity="0.05"/>
      <path id="Path_2021" data-name="Path 2021" d="M676.441,444.286l-73.416,8.669s-4.855-30.908-3.958-42.933l47.6-2.155a30.279,30.279,0,0,0,4.043-.846v2.868l35.839-8.669S692.625,410.177,676.441,444.286Z" transform="translate(-423.854 -284.828)" fill="none"/>
      <path id="Path_2022" data-name="Path 2022" d="M676.441,444.286l-73.416,8.669s-4.855-30.908-3.958-42.933l47.6-2.155a30.279,30.279,0,0,0,4.043-.846v2.868l35.839-8.669S692.625,410.177,676.441,444.286Z" transform="translate(-423.854 -284.828)" opacity="0.05"/>
      <path id="Path_2023" data-name="Path 2023" d="M801.46,325.089s15.608-2.022,22.544,11.274l-22.321-.86Z" transform="translate(-556.966 -234.712)" fill="#ff4d52"/>
      <path id="Path_2024" data-name="Path 2024" d="M863.653,364.506c-.614,1.922-.151,4.037,3.4,5.5a5.559,5.559,0,0,0,7.436-3.224c.589-1.768.185-3.769-3-5.4A5.4,5.4,0,0,0,863.653,364.506Z" transform="translate(-597.698 -258.196)" fill="none"/>
      <path id="Path_2025" data-name="Path 2025" d="M863.653,364.506c-.614,1.922-.151,4.037,3.4,5.5a5.559,5.559,0,0,0,7.436-3.224c.589-1.768.185-3.769-3-5.4A5.4,5.4,0,0,0,863.653,364.506Z" transform="translate(-597.698 -258.196)" opacity="0.05"/>
      <path id="Path_2026" data-name="Path 2026" d="M115.63,526.88s18.524,9.595,31.82,5.962" transform="translate(-106.146 -367.429)" fill="none" stroke="#ff4d52" stroke-miterlimit="10" stroke-width="1"/>
      <path id="Path_2027" data-name="Path 2027" d="M117.54,542s11.969,9.231,36.161,7.086" transform="translate(-107.402 -377.368)" fill="none" stroke="#ff4d52" stroke-miterlimit="10" stroke-width="1"/>
      <path id="Path_2028" data-name="Path 2028" d="M119.15,554.69s11.873,10.3,36.271,7.038" transform="translate(-108.46 -385.709)" fill="none" stroke="#ff4d52" stroke-miterlimit="10" stroke-width="1"/>
      <path id="Path_2029" data-name="Path 2029" d="M829.21,353.67s-9.656,8.337-18.47,12.106C810.74,365.776,824.125,368.158,829.21,353.67Z" transform="translate(-563.067 -253.572)" opacity="0.05"/>
      <path id="Path_2030" data-name="Path 2030" d="M566.1,422.25s45.821,4.328,63.16.281c0,0,.925.613-4.6-1.861Z" transform="translate(-402.256 -297.613)" opacity="0.1"/>
      <path id="Path_2031" data-name="Path 2031" d="M1054.448,382.692c-2.854-1.874-7.381-5.764-6.764-10.091.309-2.169-1.227-4.2-3.334-5.9,3.844.987,7.36,2.789,6.37,6.045-2.022,6.648,3.468,7.515,3.468,7.515S1054.3,381.15,1054.448,382.692Z" transform="translate(-716.627 -262.137)" opacity="0.05"/>
      <path id="Path_2032" data-name="Path 2032" d="M293.407,314.023a34.268,34.268,0,0,0-.086-3.427,5.844,5.844,0,0,0-.055-.61,12.314,12.314,0,0,1,1.028.857l-.565-29.757L290.611,265.5c0-11.054-5.952-14.169-5.952-14.169s-3.118-1.419-3.968-3.4-8.382-6.168-8.385-6.168a21.294,21.294,0,0,1-.069-2.169c0-.188,0-.384.017-.579A9.355,9.355,0,0,0,275.5,227.13c.418,0,.757-.175.915-.795a8.915,8.915,0,0,0-1.121-6.49,6.371,6.371,0,0,0-.819-.908,14.057,14.057,0,0,0-1.114-1c-.973-.809-2.056-1.659-3.262-1.59a4.884,4.884,0,0,0-1.929.685q-4.52,2.378-9.016,4.8a8.41,8.41,0,0,0-3.022,2.306,8.84,8.84,0,0,0-1.3,3.807,9.332,9.332,0,0,0-.127,2.786,3.6,3.6,0,0,0,1.093,2.22,2.445,2.445,0,0,0,.421.4,18.54,18.54,0,0,0,2.032.915,9.355,9.355,0,0,0,2.354,3.691c0,.175-.024.343-.038.535-.038.49-.1,1.028-.171,1.573h0s-2.094-.055-5.212,4.194-9.92,4.818-9.92,4.818-2.549-1.134-5.383,11.62-3.684,21.245-2.268,22.671a7.729,7.729,0,0,0,2.008,1.254,24.608,24.608,0,0,0,7.652,2.4.685.685,0,0,0,.168.271l.2,2.471h0c.171,5.215.37,15.677-.685,18a4.823,4.823,0,0,0,.284,5.1l.343-.024a2.614,2.614,0,0,0,.212.308l1.371-.093c-.1,5.825-.367,13.905-1.073,15.68-1.134,2.834,0,18.422,0,18.422l-1.984,28.057s-1.086,14.646-.069,16.342c-.555,3.046-1.552,8.851-1.347,10.3.284,1.984,6.8,4.818,6.8,4.818s7.652,1.713,11.335,1.134a2.844,2.844,0,0,0,2.7-2.741,29.591,29.591,0,0,0,7.789.469c3.684-.565,3.118-4.818,1.134-4.533s-4.252-3.7-5.938-5.688a13.644,13.644,0,0,1-2.056-4.321,1.583,1.583,0,0,0,.932-.5c.85-1.419,2.268-14.454,2.268-14.454l3.684-22.671s1.984-11.054,3.684-13.6c1.285-1.926,2.892-16.3,3.6-23.219h.082l.075-.243,1.066-3.44c.569,1,2,1.5,3.67,1.713-.178.727-.326,1.319-.411,1.659-.425,1.713,5.771,4.533,7.264,3.118.627-.593.953-2.741,1.028-5.092h.051Zm-37.234,77.285c-.1.552-.192,1.127-.288,1.713-.216-.685-.387-1.3-.5-1.758C255.663,391.273,255.926,391.287,256.173,391.307Z" transform="translate(-185.887 -163.299)" fill="url(#linear-gradient-3)"/>
      <path id="Path_2033" data-name="Path 2033" d="M301.4,708.133s1.093,4.914,2.741,6.822,3.821,5.729,5.729,5.459,2.457,3.821-1.093,4.366-10.917-1.093-10.917-1.093-6.278-2.741-6.548-4.64,1.638-11.736,1.638-11.736Z" transform="translate(-221.609 -486.032)" fill="#53526b"/>
      <path id="Path_2034" data-name="Path 2034" d="M301.4,708.133s1.093,4.914,2.741,6.822,3.821,5.729,5.729,5.459,2.457,3.821-1.093,4.366-10.917-1.093-10.917-1.093-6.278-2.741-6.548-4.64,1.638-11.736,1.638-11.736Z" transform="translate(-221.609 -486.032)" opacity="0.05"/>
      <path id="Path_2035" data-name="Path 2035" d="M271.928,714.509s1.093,4.914,2.741,6.822,3.821,5.729,5.729,5.459,2.457,3.821-1.093,4.365-10.917-1.09-10.917-1.09-6.278-2.741-6.548-4.64,1.638-11.736,1.638-11.736Z" transform="translate(-202.238 -490.225)" fill="#53526b"/>
      <path id="Path_2036" data-name="Path 2036" d="M317.7,497.86s-2.183,23.469-3.821,25.926-3.547,13.1-3.547,13.1l-3.547,21.831s-1.371,12.555-2.183,13.919-10.941.778-10.941.778l6.284-72.278Z" transform="translate(-223.172 -348.353)" fill="#5f5d7e"/>
      <path id="Path_2037" data-name="Path 2037" d="M317.7,497.86s-2.183,23.469-3.821,25.926-3.547,13.1-3.547,13.1l-3.547,21.831s-1.371,12.555-2.183,13.919-10.941.778-10.941.778l6.284-72.278Z" transform="translate(-223.172 -348.353)" opacity="0.05"/>
      <path id="Path_2038" data-name="Path 2038" d="M302.825,465.21l-.713,2.265-3.855,12.237-.075.233h-.021c-.517.116-11.442,2.628-13.8,3.4a3.309,3.309,0,0,0-.373.141c-1.093.545-2.457,20.193-2.457,20.193s-.819,18.559-1.371,19.922-2.741,29.469-4.095,28.654-11.188,0-11.188,0c-1.093-1.093,0-15.828,0-15.828l1.909-27.019s-1.093-15.009,0-17.74,1.093-21.012,1.093-21.012l22.352-3.461,2.159-.343Z" transform="translate(-203.933 -326.891)" fill="#5f5d7e"/>
      <path id="Path_2039" data-name="Path 2039" d="M339.973,470.387l-3.855,12.237-.093.24c-.517.117-11.442,2.628-13.8,3.4h-.236l6.1-16.157.175-.466,1.984.127Z" transform="translate(-241.794 -329.803)" opacity="0.02"/>
      <path id="Path_2040" data-name="Path 2040" d="M294.332,305.93s10.1,10.917,16.376,1.909l6,4.095-1.093,6.278,3.547,47.487s-9.279-.274-15.828,1.909a10.157,10.157,0,0,1-10.643-2.457l1.093-41.754L291.33,310.57Z" transform="translate(-221.64 -222.19)" opacity="0.1"/>
      <path id="Path_2041" data-name="Path 2041" d="M294.338,303.54s10.1,10.917,16.376,1.909l6,4.095-1.093,6.278,3.55,47.5s-9.279-.274-15.828,1.909a10.157,10.157,0,0,1-10.643-2.457l1.093-41.754-2.457-12.826Z" transform="translate(-221.647 -220.62)" fill="#53526b"/>
      <g id="TESLA" transform="translate(74.192 130.41)">
        <g id="g8" transform="translate(18.576 0.003)">
          <path id="polyline10" d="M270.96,383.91v1.717h.552v-1.144h2v1.144h.552v-1.713l-3.108,0" transform="translate(-270.881 -382.786)" fill="#e82127"/>
          <path id="path12" d="M359.252,442.709h2.118a.781.781,0,0,0,.576-.569H358.68a.785.785,0,0,0,.576.569" transform="translate(-358.68 -442.14)" fill="#e82127"/>
        </g>
        <g id="g14" transform="translate(14.447 0.003)">
          <path id="path16" d="M349.173,444.981a.788.788,0,0,0,.483-.559h-2.471V442.14h-.555v2.841h2.539" transform="translate(-346.63 -442.14)" fill="#e82127"/>
        </g>
        <g id="g18" transform="translate(9.615 0.003)">
          <path id="path20" d="M333.25,442.7h1.957a.857.857,0,0,0,.6-.558h-3.118v1.665h2.543v.589h-1.994a1.114,1.114,0,0,0-.709.576h3.245v-1.713h-2.539V442.7" transform="translate(-332.53 -442.14)" fill="#e82127"/>
        </g>
        <g id="g22" transform="translate(4.934)">
          <path id="path24" d="M319.442,442.7h2.118a.782.782,0,0,0,.576-.569H318.87a.785.785,0,0,0,.576.569" transform="translate(-318.87 -442.13)" fill="#e82127"/>
          <path id="path26" d="M319.442,445.969h2.118a.778.778,0,0,0,.576-.569H318.87a.785.785,0,0,0,.576.569" transform="translate(-318.87 -444.28)" fill="#e82127"/>
          <path id="path28" d="M319.442,449.339h2.118a.782.782,0,0,0,.576-.569H318.87a.785.785,0,0,0,.576.569" transform="translate(-318.87 -446.495)" fill="#e82127"/>
        </g>
        <g id="g30" transform="translate(0 0.007)">
          <path id="path32" d="M304.47,442.15a.791.791,0,0,0,.572.565h.891l.045.017v2.248h.555v-2.248l.051-.017h.891a.8.8,0,0,0,.572-.565H304.47" transform="translate(-304.47 -442.15)" fill="#e82127"/>
        </g>
      </g>
      <g id="T" transform="translate(75.176 105.005)">
        <path id="path35" d="M318.921,391.483l2.779-15.636c2.649,0,3.485.291,3.608,1.477a6.226,6.226,0,0,0,2.673-2.008,19.648,19.648,0,0,0-7.014-1.7l-2.056,2.5h0l-2.056-2.5a19.645,19.645,0,0,0-7.014,1.7,6.226,6.226,0,0,0,2.673,2.008c.12-1.186.956-1.477,3.588-1.48l2.8,15.639" transform="translate(-308.983 -371.691)" fill="#e82127"/>
        <path id="path37" d="M317.277,369.2a22.907,22.907,0,0,1,9.379,1.881,7.619,7.619,0,0,0,.558-1.151,26.468,26.468,0,0,0-19.875,0,9.61,9.61,0,0,0,.569,1.151,22.907,22.907,0,0,1,9.379-1.881h0" transform="translate(-307.34 -367.989)" fill="#e82127"/>
      </g>
      <path id="Path_2042" data-name="Path 2042" d="M361.42,468.39s0,7.1,1.638,10.1,11.188,1.371,11.188,1.371l-1.909-10.1Z" transform="translate(-267.713 -328.981)" fill="#d39999"/>
      <path id="Path_2043" data-name="Path 2043" d="M382.365,491.689c-1.439,1.371-7.4-1.371-6.994-3,.288-1.155,1.3-5.287,1.867-7.631l.4-1.648s3.5-1.093,4.729,0c.449.4.764,1.964.911,3.855C383.53,486.549,383.28,490.822,382.365,491.689Z" transform="translate(-276.87 -335.904)" fill="#fdc2cc"/>
      <path id="Path_2044" data-name="Path 2044" d="M317.6,282.334l-9.55,7.367s-14.19-.819-10.643-7.641a25.44,25.44,0,0,0,2.741-9.643,20.162,20.162,0,0,0,0-3.732s13.1-11.993,11.462,1.638a30.939,30.939,0,0,0-.226,3.153C311.2,283.708,317.6,282.334,317.6,282.334Z" transform="translate(-225.262 -194.503)" fill="#fdc2cc"/>
      <path id="Path_2045" data-name="Path 2045" d="M317.929,270.319a30.9,30.9,0,0,0-.226,3.152,8.943,8.943,0,0,1-4.958,1.487c-2.443,0-4.242-2.378-5.866-3.958.182-2.265-.408-2.32-.408-2.32S319.567,256.671,317.929,270.319Z" transform="translate(-231.592 -194.495)" opacity="0.1"/>
      <circle id="Ellipse_84" data-name="Ellipse 84" cx="9.005" cy="9.005" r="9.005" transform="translate(72.147 61.905)" fill="#fdc2cc"/>
      <path id="Path_2046" data-name="Path 2046" d="M263.7,293.58s-1.5.137-4.5,4.229-9.571,4.64-9.571,4.64-2.457-1.093-5.185,11.188-3.547,20.467-2.183,21.831,6.822,3.276,9.55,3.276c0,0,.819,17.191-.545,20.193a4.652,4.652,0,0,0,.274,4.914l11.993-.819s4.095-5.185,4.914-14.19,3.547-34.661,2.183-37.662-7.367-10.643-7.1-11.462A50.158,50.158,0,0,0,263.7,293.58Z" transform="translate(-188.957 -214.072)" opacity="0.1"/>
      <path id="Path_2047" data-name="Path 2047" d="M262.679,293.34s-2.018-.055-5.02,4.04-9.55,4.64-9.55,4.64-2.457-1.093-5.185,11.188-3.547,20.467-2.176,21.821,6.822,3.276,9.55,3.276c0,0,.819,17.192-.545,20.193a4.652,4.652,0,0,0,.274,4.914l11.993-.819s4.095-5.185,4.914-14.19,3.547-34.661,2.183-37.662-7.367-10.643-7.1-11.462S262.679,293.34,262.679,293.34Z" transform="translate(-187.962 -213.915)" fill="#d39999"/>
      <path id="Path_2048" data-name="Path 2048" d="M285,379.267s13.655-15.66,11.736-4.914c-1.371,7.641-6.548,11.736-9.005,12.555S285,379.267,285,379.267Z" transform="translate(-217.479 -264.692)" fill="#fdc2cc"/>
      <path id="Path_2049" data-name="Path 2049" d="M386.9,483.263c-1.306-1-3.769-2.549-6.038-2.207l.4-1.648s3.5-1.093,4.729,0C386.439,479.806,386.75,481.372,386.9,483.263Z" transform="translate(-280.491 -335.904)" opacity="0.1"/>
      <path id="Path_2050" data-name="Path 2050" d="M337.047,298.36s6.96,4.5,7.778,6.415,3.821,3.276,3.821,3.276,5.729,3,5.729,13.645l3,15.009-13.652,19.1s-1.638-19.1-2.457-23.743S339.36,318.7,339.36,318.7s-4.095-5.185-3.547-6.548S337.047,298.36,337.047,298.36Z" transform="translate(-250.847 -217.215)" opacity="0.1"/>
      <path id="Path_2051" data-name="Path 2051" d="M337.562,298.12s7.258,4.04,8.073,5.949,3.824,3.262,3.824,3.262,5.729,3,5.729,13.645l3,15.009.545,28.654s-4.914-4.64-8.46-2.457-5.729-7.1-5.729-7.1-1.638-19.1-2.457-23.743-1.909-13.364-1.909-13.364-4.095-5.164-3.547-6.535S337.562,298.12,337.562,298.12Z" transform="translate(-251.386 -217.057)" fill="#d39999"/>
      <path id="Path_2052" data-name="Path 2052" d="M310.243,230.58a8.909,8.909,0,0,0-1.59-1.569,4.871,4.871,0,0,0-3.142-1.528,4.7,4.7,0,0,0-1.857.665q-4.352,2.292-8.68,4.633a8.072,8.072,0,0,0-2.909,2.22,8.56,8.56,0,0,0-1.254,3.667,8.986,8.986,0,0,0-.123,2.68,3.362,3.362,0,0,0,1.186,2.251c.778.565,1.844.569,2.495,1.309a7.294,7.294,0,0,1,.809,1.549c.267.521.73,1.028,1.258.935a1.32,1.32,0,0,0,.922-1.216,7.381,7.381,0,0,0-.1-1.713,4.057,4.057,0,0,1,.624-2.882c.411-.521,1-.836,1.4-1.371.953-1.288.517-3.427,1.563-4.636a2.478,2.478,0,0,1,2.4-.685,10.254,10.254,0,0,1,2.4,1.028,17.82,17.82,0,0,0,3.286,1.268c.953.26,2.056.884,2.381-.384A8.53,8.53,0,0,0,310.243,230.58Z" transform="translate(-221.186 -170.621)" opacity="0.1"/>
      <path id="Path_2053" data-name="Path 2053" d="M309.443,229.78a8.9,8.9,0,0,0-1.59-1.569,4.871,4.871,0,0,0-3.142-1.528,4.7,4.7,0,0,0-1.857.665c-2.9,1.528-5.308.082-8.68,4.633-.72.973-2.166,1.186-2.909,2.22a8.56,8.56,0,0,0-1.254,3.667,8.986,8.986,0,0,0-.123,2.68,3.361,3.361,0,0,0,1.186,2.251c.778.565,1.844.569,2.495,1.309a7.294,7.294,0,0,1,.809,1.549c.267.521.73,1.028,1.258.935a1.32,1.32,0,0,0,.922-1.216,7.378,7.378,0,0,0-.1-1.713,4.057,4.057,0,0,1,.624-2.882c.411-.521,1-.836,1.4-1.371.953-1.288.517-3.427,1.563-4.636a2.478,2.478,0,0,1,2.4-.685,10.252,10.252,0,0,1,2.4,1.028,17.823,17.823,0,0,0,3.286,1.268c.953.26,2.056.884,2.382-.384A8.432,8.432,0,0,0,309.443,229.78Z" transform="translate(-220.66 -170.096)" fill="#865a61"/>
      <path id="Path_2054" data-name="Path 2054" d="M260.2,353.71s-.274,10.1-1.638,11.462.819,3,.819,3l5.459-1.371s-1.371,9.005,4.366,7.916c0,0-3.821,3.547-7.641,4.095s-3.557-.815-3.557-.815l-5.729-6.823Z" transform="translate(-195.971 -253.598)" fill="#d39999"/>
      <path id="Path_2055" data-name="Path 2055" d="M271.579,357.29s-3.639,9.279-.908,13.1l6-1.371s-5.459,1.638-4.64-1.638S271.579,357.29,271.579,357.29Z" transform="translate(-207.392 -255.951)" opacity="0.1"/>
      <path id="Path_2056" data-name="Path 2056" d="M269.43,422.093s7.916.545,10.1-1.093a20.9,20.9,0,0,1-9.852,4.112Z" transform="translate(-207.245 -297.83)" opacity="0.1"/>
      <path id="Path_2057" data-name="Path 2057" d="M369,373.22s4.095,12.555,3.821,14.464S372,410.608,372,410.608l-.819-.274.274-22.924Z" transform="translate(-272.695 -266.423)" opacity="0.1"/>
      <path id="Path_2058" data-name="Path 2058" d="M870.294,476.83s6,11.771,1.11,18.209.445,23.987.445,23.987" transform="translate(-601.588 -334.529)" fill="none" stroke="#6c63ff" stroke-miterlimit="10" stroke-width="1"/>
      <path id="Path_2059" data-name="Path 2059" d="M870.911,458.252a6.936,6.936,0,0,1-1.665,4.112,5.909,5.909,0,0,1,0-8.224A6.936,6.936,0,0,1,870.911,458.252Z" transform="translate(-600.43 -319.614)" fill="#6c63ff"/>
      <path id="Path_2060" data-name="Path 2060" d="M875.383,476.83s-6,11.771-1.11,18.209-.445,23.987-.445,23.987" transform="translate(-603.569 -334.529)" fill="none" stroke="#6c63ff" stroke-miterlimit="10" stroke-width="1"/>
      <path id="Path_2061" data-name="Path 2061" d="M876,458.252a6.935,6.935,0,0,0,1.665,4.112,5.909,5.909,0,0,0,0-8.224A6.935,6.935,0,0,0,876,458.252Z" transform="translate(-605.964 -319.614)" fill="#6c63ff"/>
      <path id="Path_2062" data-name="Path 2062" d="M876,458.252a6.935,6.935,0,0,0,1.665,4.112,5.909,5.909,0,0,0,0-8.224A6.935,6.935,0,0,0,876,458.252Z" transform="translate(-605.964 -319.614)" opacity="0.1"/>
      <path id="Path_2063" data-name="Path 2063" d="M886.495,476.83s6,11.771,1.11,18.209.446,23.987.446,23.987" transform="translate(-612.237 -334.529)" fill="none" stroke="#6c63ff" stroke-miterlimit="10" stroke-width="1"/>
      <path id="Path_2064" data-name="Path 2064" d="M887.111,458.252a6.936,6.936,0,0,1-1.665,4.112,5.909,5.909,0,0,1,0-8.224A6.936,6.936,0,0,1,887.111,458.252Z" transform="translate(-611.078 -319.614)" fill="#6c63ff"/>
      <path id="Path_2065" data-name="Path 2065" d="M883.01,485.772a6.924,6.924,0,0,1-4.05,1.806,5.9,5.9,0,0,1,5.7-5.918A6.912,6.912,0,0,1,883.01,485.772Z" transform="translate(-607.91 -337.704)" fill="#6c63ff"/>
      <path id="Path_2066" data-name="Path 2066" d="M883.46,509.465a6.924,6.924,0,0,1-4.05,1.806,5.907,5.907,0,0,1,5.685-5.921A6.865,6.865,0,0,1,883.46,509.465Z" transform="translate(-608.206 -353.276)" fill="#6c63ff"/>
      <path id="Path_2067" data-name="Path 2067" d="M858.761,526.531a6.921,6.921,0,0,1,1.436,4.194,5.9,5.9,0,0,1-5.387-6.206A6.921,6.921,0,0,1,858.761,526.531Z" transform="translate(-592.035 -365.877)" fill="#6c63ff"/>
      <path id="Path_2068" data-name="Path 2068" d="M862.035,478.084a6.922,6.922,0,0,1,2.5,3.66,6.971,6.971,0,0,1-4.345-.87,6.9,6.9,0,0,1-2.505-3.66A6.87,6.87,0,0,1,862.035,478.084Z" transform="translate(-593.928 -334.745)" fill="#6c63ff"/>
      <path id="Path_2069" data-name="Path 2069" d="M862.035,478.084a6.922,6.922,0,0,1,2.5,3.66,6.971,6.971,0,0,1-4.345-.87,6.9,6.9,0,0,1-2.505-3.66A6.87,6.87,0,0,1,862.035,478.084Z" transform="translate(-593.928 -334.745)" opacity="0.1"/>
      <path id="Path_2070" data-name="Path 2070" d="M891.583,476.83s-6,11.771-1.11,18.209-.445,23.987-.445,23.987" transform="translate(-614.217 -334.529)" fill="none" stroke="#6c63ff" stroke-miterlimit="10" stroke-width="1"/>
      <path id="Path_2071" data-name="Path 2071" d="M892.21,458.252a6.936,6.936,0,0,0,1.665,4.112,5.909,5.909,0,0,0,0-8.224A6.936,6.936,0,0,0,892.21,458.252Z" transform="translate(-616.62 -319.614)" fill="#6c63ff"/>
      <path id="Path_2072" data-name="Path 2072" d="M892.21,458.252a6.936,6.936,0,0,0,1.665,4.112,5.909,5.909,0,0,0,0-8.224A6.936,6.936,0,0,0,892.21,458.252Z" transform="translate(-616.62 -319.614)" opacity="0.1"/>
      <path id="Path_2073" data-name="Path 2073" d="M890.323,490.8a7.018,7.018,0,0,0-1.713,4.112,6.914,6.914,0,0,0,4.071-1.758,7.017,7.017,0,0,0,1.713-4.112A6.907,6.907,0,0,0,890.323,490.8Z" transform="translate(-614.253 -342.555)" fill="#6c63ff"/>
      <path id="Path_2074" data-name="Path 2074" d="M890.323,490.8a7.018,7.018,0,0,0-1.713,4.112,6.914,6.914,0,0,0,4.071-1.758,7.017,7.017,0,0,0,1.713-4.112A6.907,6.907,0,0,0,890.323,490.8Z" transform="translate(-614.253 -342.555)" opacity="0.1"/>
      <path id="Path_2075" data-name="Path 2075" d="M899.433,523.628a7.017,7.017,0,0,0-1.713,4.112,6.915,6.915,0,0,0,4.071-1.758,7.018,7.018,0,0,0,1.713-4.112A6.864,6.864,0,0,0,899.433,523.628Z" transform="translate(-620.242 -364.135)" fill="#6c63ff"/>
      <path id="Path_2076" data-name="Path 2076" d="M889.31,508.6s3.608-5.688,8.676-5.825" transform="translate(-614.713 -351.58)" fill="none" stroke="#6c63ff" stroke-miterlimit="10" stroke-width="1"/>
      <path id="Path_2077" data-name="Path 2077" d="M864.466,498.565s-3.608-5.688-8.676-5.825" transform="translate(-592.68 -344.987)" fill="none" stroke="#6c63ff" stroke-miterlimit="10" stroke-width="1"/>
      <path id="Path_2078" data-name="Path 2078" d="M879.74,522.265s3.608-5.688,8.676-5.825" transform="translate(-608.423 -360.566)" fill="none" stroke="#6c63ff" stroke-miterlimit="10" stroke-width="1"/>
      <circle id="Ellipse_85" data-name="Ellipse 85" cx="0.935" cy="0.935" r="0.935" transform="translate(282.17 150.223)" fill="#6c63ff"/>
      <circle id="Ellipse_86" data-name="Ellipse 86" cx="0.935" cy="0.935" r="0.935" transform="translate(262.261 146.865)" fill="#6c63ff"/>
      <path id="Path_2079" data-name="Path 2079" d="M870.846,527.735s-3.608-5.688-8.676-5.825" transform="translate(-596.873 -364.162)" fill="none" stroke="#6c63ff" stroke-miterlimit="10" stroke-width="1"/>
      <circle id="Ellipse_87" data-name="Ellipse 87" cx="0.935" cy="0.935" r="0.935" transform="translate(264.447 156.861)" fill="#6c63ff"/>
      <circle id="Ellipse_88" data-name="Ellipse 88" cx="0.935" cy="0.935" r="0.935" transform="translate(279.127 154.986)" fill="#6c63ff"/>
      <path id="Path_2080" data-name="Path 2080" d="M880.2,563.617s-8.7-1.741-11.017-4.06-12.757-6.367-13.916-3.478-15.656,12.768-5.808,14.505,23.2,2.32,26.094,1.158S880.2,563.617,880.2,563.617Z" transform="translate(-586.276 -385.963)" fill="#a8a8a8"/>
      <path id="Path_2081" data-name="Path 2081" d="M849.454,585.792c9.859,1.741,23.2,2.32,26.094,1.158,2.207-.884,3.742-5.14,4.348-7.1l.291.062s-1.741,6.96-4.64,8.118-16.235.579-26.094-1.158c-2.844-.5-3.66-1.683-3.351-3.173C846.353,584.668,847.343,585.418,849.454,585.792Z" transform="translate(-586.271 -402.248)" opacity="0.2"/>
      <path id="Path_2082" data-name="Path 2082" d="M186.116,664.66s2.872,3.769-1.326,9.423-7.659,10.455-6.257,13.994c0,0,6.332-10.53,11.486-10.677S191.784,670.993,186.116,664.66Z" transform="translate(-147.286 -457.996)" fill="#6c63ff"/>
      <path id="Path_2083" data-name="Path 2083" d="M186.427,664.66a4.651,4.651,0,0,1,.586,1.179c5.03,5.908,7.707,11.421,2.875,11.562-4.5.13-9.9,8.179-11.2,10.215a4.364,4.364,0,0,0,.154.463s6.332-10.53,11.486-10.677S192.1,670.993,186.427,664.66Z" transform="translate(-147.598 -457.996)" opacity="0.1"/>
      <path id="Path_2084" data-name="Path 2084" d="M215.535,677.009c0,1.323-.147,2.4-.343,2.4s-.343-1.073-.343-2.4.185-.685.367-.685S215.535,675.689,215.535,677.009Z" transform="translate(-171.367 -465.561)" fill="#ffd037"/>
      <path id="Path_2085" data-name="Path 2085" d="M217.847,681.494c-1.162.634-2.172,1.028-2.258.853s.781-.805,1.943-1.436.7-.171.792,0S219.009,680.86,217.847,681.494Z" transform="translate(-171.849 -468.467)" fill="#ffd037"/>
      <path id="Path_2086" data-name="Path 2086" d="M144.639,664.66s-2.872,3.769,1.326,9.423,7.659,10.455,6.257,13.991c0,0-6.332-10.53-11.486-10.677S138.971,670.993,144.639,664.66Z" transform="translate(-120.979 -457.996)" fill="#6c63ff"/>
      <path id="Path_2087" data-name="Path 2087" d="M144.639,664.66a4.65,4.65,0,0,0-.586,1.179c-5.03,5.908-7.707,11.421-2.875,11.562,4.5.13,9.9,8.179,11.2,10.215a4.371,4.371,0,0,1-.154.463s-6.332-10.53-11.486-10.677S138.971,670.993,144.639,664.66Z" transform="translate(-120.979 -457.996)" opacity="0.1"/>
      <path id="Path_2088" data-name="Path 2088" d="M141.42,677.009c0,1.323.147,2.4.343,2.4s.343-1.073.343-2.4-.185-.685-.367-.685S141.42,675.689,141.42,677.009Z" transform="translate(-123.099 -465.561)" fill="#ffd037"/>
      <path id="Path_2089" data-name="Path 2089" d="M134.721,681.494c1.162.634,2.172,1.028,2.258.853s-.781-.805-1.943-1.436-.7-.171-.792,0S133.56,680.86,134.721,681.494Z" transform="translate(-118.23 -468.467)" fill="#ffd037"/>
      <path id="Path_2090" data-name="Path 2090" d="M144.09,723.231s8.029-.247,10.448-1.97,12.336-3.769,12.949-1.028,12.065,13.744,3,13.816-21.06-1.412-23.476-2.882S144.09,723.231,144.09,723.231Z" transform="translate(-124.854 -493.647)" fill="#a8a8a8"/>
      <path id="Path_2091" data-name="Path 2091" d="M170.66,741.406c-9.063.072-21.06-1.412-23.476-2.882-1.84-1.121-2.573-5.14-2.817-6.994H144.1s.507,6.476,2.923,7.947,14.413,2.957,23.476,2.882c2.618-.021,3.519-.953,3.471-2.33C173.6,740.871,172.606,741.389,170.66,741.406Z" transform="translate(-124.861 -501.952)" opacity="0.2"/>
    </g>
  </g>
</svg>
