<svg xmlns="http://www.w3.org/2000/svg" width="279.603" height="267.532" viewBox="0 0 279.603 267.532">
  <g id="icon_1" data-name="icon 1" transform="translate(5183.103 3560.778)">
    <g id="Graph_2" transform="translate(-5097 -3703)">
      <path id="Path_19" data-name="Path 19" d="M238.653,320.879h-12.3a2.024,2.024,0,0,1-2.021-2.021V301.181a2.024,2.024,0,0,1,2.021-2.021h12.3a2.024,2.024,0,0,1,2.021,2.021v17.676A2.024,2.024,0,0,1,238.653,320.879Zm-12.3-20.751a1.054,1.054,0,0,0-1.053,1.053v17.676a1.054,1.054,0,0,0,1.053,1.053h12.3a1.054,1.054,0,0,0,1.053-1.053V301.181a1.054,1.054,0,0,0-1.053-1.053Z" transform="translate(-100.326 -111.562)" fill="#3f3d56"/>
      <path id="Path_20" data-name="Path 20" d="M285.656,300.426h-11.1a2.621,2.621,0,0,1-2.617-2.618v-35.7a2.62,2.62,0,0,1,2.617-2.617h11.1a2.62,2.62,0,0,1,2.617,2.617v35.7A2.621,2.621,0,0,1,285.656,300.426Zm-11.1-39.964a1.65,1.65,0,0,0-1.649,1.649v35.7a1.65,1.65,0,0,0,1.649,1.649h11.1a1.651,1.651,0,0,0,1.649-1.649v-35.7a1.65,1.65,0,0,0-1.649-1.649Z" transform="translate(-124.87 -93.317)" fill="#3f3d56"/>
      <path id="Path_21" data-name="Path 21" d="M332.828,281.609H322.581a3.05,3.05,0,0,1-3.046-3.046V226.046A3.05,3.05,0,0,1,322.581,223h10.247a3.05,3.05,0,0,1,3.046,3.046v52.517A3.05,3.05,0,0,1,332.828,281.609Zm-10.247-57.641a2.08,2.08,0,0,0-2.078,2.078v52.517a2.08,2.08,0,0,0,2.078,2.078h10.247a2.08,2.08,0,0,0,2.077-2.078V226.046a2.08,2.08,0,0,0-2.078-2.078Z" transform="translate(-149.414 -80.778)" fill="#3f3d56"/>
      <rect id="Rectangle_5" data-name="Rectangle 5" width="9.223" height="14.987" transform="translate(127.567 189.619)" fill="#374eee"/>
      <rect id="Rectangle_6" data-name="Rectangle 6" width="9.223" height="34.008" transform="translate(150.623 168.164)" fill="#374eee"/>
      <rect id="Rectangle_7" data-name="Rectangle 7" width="9.223" height="51.684" transform="translate(173.68 144.846)" fill="#374eee"/>
      <path id="Path_23" data-name="Path 23" d="M284.817,276.016H208.285a.484.484,0,0,1-.484-.484V199.484a.484.484,0,1,1,.969,0v75.563h76.047a.484.484,0,0,1,0,.969Z" transform="translate(-91.801 -55.864)" fill="#3f3d56"/>
    </g>
    <g id="Graph_1" transform="translate(-5240 -3585)">
      <path id="Path_22" data-name="Path 22" d="M841.906,138.115H797.138a.337.337,0,0,1-.337-.337V92.337a.337.337,0,1,1,.673,0v45.105h44.432a.337.337,0,1,1,0,.673Z" transform="translate(-739.904 127.66)" fill="#3f3d56"/>
      <path id="Path_24" data-name="Path 24" d="M824.09,186.721h-8.545a1.406,1.406,0,0,1-1.405-1.4V173.032a1.407,1.407,0,0,1,1.405-1.4h8.545a1.406,1.406,0,0,1,1.4,1.4v12.284A1.406,1.406,0,0,1,824.09,186.721Zm-8.545-14.42a.733.733,0,0,0-.732.732v12.284a.733.733,0,0,0,.732.732h8.545a.732.732,0,0,0,.731-.732V173.032a.732.732,0,0,0-.731-.732Z" transform="translate(-753.506 74.835)" fill="#3f3d56"/>
      <path id="Path_25" data-name="Path 25" d="M876.749,165.739h-7.865a1.747,1.747,0,0,1-1.745-1.745V141.745A1.747,1.747,0,0,1,868.884,140h7.865a1.747,1.747,0,0,1,1.745,1.745v22.25A1.747,1.747,0,0,1,876.749,165.739Zm-7.865-25.066a1.073,1.073,0,0,0-1.072,1.072v22.25a1.073,1.073,0,0,0,1.072,1.072h7.865a1.073,1.073,0,0,0,1.072-1.072V141.745a1.073,1.073,0,0,0-1.072-1.072Z" transform="translate(-787.339 95.817)" fill="#3f3d56"/>
      <rect id="Rectangle_8" data-name="Rectangle 8" width="6.409" height="10.415" transform="translate(63.048 248.919)" fill="#374eee"/>
      <rect id="Rectangle_9" data-name="Rectangle 9" width="6.409" height="20.151" transform="translate(82.21 238.611)" fill="#374eee"/>
      <circle id="Ellipse_7" data-name="Ellipse 7" cx="3.029" cy="3.029" r="3.029" transform="translate(63.32 236.827)" fill="#374eee"/>
      <circle id="Ellipse_8" data-name="Ellipse 8" cx="3.029" cy="3.029" r="3.029" transform="translate(82.308 225.382)" fill="#374eee"/>
    </g>
    <g id="Location_12" transform="translate(-4998 -3764)">
      <circle id="Ellipse_5" data-name="Ellipse 5" cx="33.401" cy="33.401" r="33.401" transform="translate(27.197 331.427)" fill="#3f3d56"/>
      <circle id="Ellipse_6" data-name="Ellipse 6" cx="28.725" cy="28.725" r="28.725" transform="translate(31.873 336.103)" opacity="0.1"/>
      <path id="Subtraction_1" data-name="Subtraction 1" d="M12.5,39.621h0c-.031-.051-3.171-5.147-6.25-10.981-1.814-3.438-3.26-6.468-4.3-9A21.448,21.448,0,0,1,0,12.486,12.486,12.486,0,0,1,12.5,0,12.479,12.479,0,0,1,25,12.486a21.448,21.448,0,0,1-1.953,7.149c-1.037,2.537-2.482,5.566-4.3,9-3.077,5.831-6.218,10.93-6.25,10.981Zm.142-35.932a8.076,8.076,0,1,0,3.152.636A8.053,8.053,0,0,0,12.642,3.689Z" transform="translate(48 347)" fill="#374eee"/>
    </g>
    <g id="Hero_2" transform="translate(-3836 -2432)">
      <path id="Path_8" data-name="Path 8" d="M827.513,604.414s32.413,1.676,24.863,11.879-27.388-5.985-27.388-5.985Z" transform="translate(-1954.839 -1536.601)" fill="#ffb8b8"/>
      <path id="Path_9" data-name="Path 9" d="M632.889,313.448l6.6,1.649s3.848,11.546,6.6,21.992,8.247,41.784,8.247,41.784l42.623,29.872-5.084,11.372-56.782-22.379-12.645-49.653Z" transform="translate(-1819.947 -1342.822)" fill="#575a89"/>
      <path id="Path_10" data-name="Path 10" d="M439.859,291.607,437.4,343.1l5.131,15.31L427.5,347.387Z" transform="translate(-1620.709 -1300.487)" opacity="0.2"/>
      <path id="Path_11" data-name="Path 11" d="M546.73,634.16s7.147,19.242,8.247,32.438,2.2,23.641,2.2,23.641H523.638l-6.6-9.9v9.9H478.006s-11-35.736-6.6-40.134,46.182-23.091,46.182-23.091Z" transform="translate(-1718.668 -1551.652)" fill="#2f2e41"/>
      <rect id="Rectangle_4" data-name="Rectangle 4" width="194.062" height="0.668" transform="translate(-1302.098 -861.914)" fill="#3f3d56"/>
      <circle id="Ellipse_1" data-name="Ellipse 1" cx="20.892" cy="20.892" r="20.892" transform="translate(-1234.89 -1092.05)" fill="#ffb8b8"/>
      <path id="Path_12" data-name="Path 12" d="M522.039,214.688l-1.649,24.191,20.892,28.039,10.446-26.39s-9.346-6.048-3.848-18.693Z" transform="translate(-1751.981 -1277.049)" fill="#ffb8b8"/>
      <path id="Path_13" data-name="Path 13" d="M517.293,392.942c0,4.95-13.745,12.646-13.745,12.646v2.749l-5.5,2.749L485.955,386.9l-3.3,26.387s-24.193,3.851-31.888,0-11.547-2.2-22.543-6.046,4.4-55.53,4.4-55.53l-11-79.719,24.022-12.011,1.266-.635,3.3-.608,5.064-.935,16.924,11.44,1.363,7.148.838,4.4,4.4-4.95,3.32-10.919,23.621,13.12-6.6,52.778S517.293,388,517.293,392.942Z" transform="translate(-1686.209 -1305.761)" fill="#575a89"/>
      <path id="Path_14" data-name="Path 14" d="M455.11,713.428s25.29,20.342,13.2,24.191-18.693-20.892-18.693-20.892Z" transform="translate(-1704.844 -1609.203)" fill="#ffb8b8"/>
      <path id="Path_15" data-name="Path 15" d="M394.241,301.38l-5.5-1.1s-8.247,4.4-8.8,13.195-7.7,70.373-7.7,70.373l23.091,62.126,18.693-7.147-18.143-58.278,13.745-50.581Z" transform="translate(-1653.322 -1334.052)" fill="#575a89"/>
      <circle id="Ellipse_2" data-name="Ellipse 2" cx="2.004" cy="2.004" r="2.004" transform="translate(-1213.584 -1019.903)" fill="#2f2e41"/>
      <circle id="Ellipse_3" data-name="Ellipse 3" cx="2.004" cy="2.004" r="2.004" transform="translate(-1213.584 -1006.876)" fill="#2f2e41"/>
      <circle id="Ellipse_4" data-name="Ellipse 4" cx="2.004" cy="2.004" r="2.004" transform="translate(-1202.227 -921.034)" fill="#2f2e41"/>
      <path id="Path_16" data-name="Path 16" d="M509.352,96.917l-3.862-1.546s8.075-8.89,19.31-8.117l-3.16-3.479s7.724-3.092,14.746,5.025c3.691,4.267,7.962,9.283,10.625,14.933h4.136l-1.726,3.8,6.042,3.8-6.2-.683a21.235,21.235,0,0,1,.168,6.3,8.157,8.157,0,0,1-2.987,5.336h0s-4.79-9.914-4.79-11.46V114.7s-3.862-3.479-3.862-5.8l-2.106,2.706H521.64l2.106-3.479-8.075,1.16,3.16-4.252-12.5,17.557S499.17,102.715,509.352,96.917Z" transform="translate(-1740.988 -1189.478)" fill="#2f2e41"/>
      <path id="Path_18" data-name="Path 18" d="M250.005,501.5l13.359,41.729L252.675,499.8Z" transform="translate(-1502.5 -1439.143)" opacity="0.2"/>
    </g>
  </g>
</svg>
