<svg xmlns="http://www.w3.org/2000/svg" width="341.053" height="306.8" viewBox="0 0 341.053 306.8">
  <g id="icon_2" data-name="icon 2" transform="translate(4803.803 3599.8)">
    <g id="Graph_2" transform="translate(-4831 -3729)">
      <path id="Path_19" data-name="Path 19" d="M238.653,320.879h-12.3a2.024,2.024,0,0,1-2.021-2.021V301.181a2.024,2.024,0,0,1,2.021-2.021h12.3a2.024,2.024,0,0,1,2.021,2.021v17.676A2.024,2.024,0,0,1,238.653,320.879Zm-12.3-20.751a1.054,1.054,0,0,0-1.053,1.053v17.676a1.054,1.054,0,0,0,1.053,1.053h12.3a1.054,1.054,0,0,0,1.053-1.053V301.181a1.054,1.054,0,0,0-1.053-1.053Z" transform="translate(-100.326 -111.562)" fill="#3f3d56"/>
      <path id="Path_20" data-name="Path 20" d="M285.656,300.426h-11.1a2.621,2.621,0,0,1-2.617-2.618v-35.7a2.62,2.62,0,0,1,2.617-2.617h11.1a2.62,2.62,0,0,1,2.617,2.617v35.7A2.621,2.621,0,0,1,285.656,300.426Zm-11.1-39.964a1.65,1.65,0,0,0-1.649,1.649v35.7a1.65,1.65,0,0,0,1.649,1.649h11.1a1.651,1.651,0,0,0,1.649-1.649v-35.7a1.65,1.65,0,0,0-1.649-1.649Z" transform="translate(-124.87 -93.317)" fill="#3f3d56"/>
      <path id="Path_21" data-name="Path 21" d="M332.828,281.609H322.581a3.05,3.05,0,0,1-3.046-3.046V226.046A3.05,3.05,0,0,1,322.581,223h10.247a3.05,3.05,0,0,1,3.046,3.046v52.517A3.05,3.05,0,0,1,332.828,281.609Zm-10.247-57.641a2.08,2.08,0,0,0-2.078,2.078v52.517a2.08,2.08,0,0,0,2.078,2.078h10.247a2.08,2.08,0,0,0,2.077-2.078V226.046a2.08,2.08,0,0,0-2.078-2.078Z" transform="translate(-149.414 -80.778)" fill="#3f3d56"/>
      <rect id="Rectangle_5" data-name="Rectangle 5" width="9.223" height="14.987" transform="translate(127.567 189.619)" fill="#374eee"/>
      <rect id="Rectangle_6" data-name="Rectangle 6" width="9.223" height="34.008" transform="translate(150.623 168.164)" fill="#374eee"/>
      <rect id="Rectangle_7" data-name="Rectangle 7" width="9.223" height="51.684" transform="translate(173.68 144.846)" fill="#374eee"/>
      <path id="Path_23" data-name="Path 23" d="M284.817,276.016H208.285a.484.484,0,0,1-.484-.484V199.484a.484.484,0,1,1,.969,0v75.563h76.047a.484.484,0,0,1,0,.969Z" transform="translate(-91.801 -55.864)" fill="#3f3d56"/>
    </g>
    <g id="Graph_1" transform="translate(-4831 -3729)">
      <path id="Path_22" data-name="Path 22" d="M841.906,138.115H797.138a.337.337,0,0,1-.337-.337V92.337a.337.337,0,1,1,.673,0v45.105h44.432a.337.337,0,1,1,0,.673Z" transform="translate(-739.904 127.66)" fill="#3f3d56"/>
      <path id="Path_24" data-name="Path 24" d="M824.09,186.721h-8.545a1.406,1.406,0,0,1-1.405-1.4V173.032a1.407,1.407,0,0,1,1.405-1.4h8.545a1.406,1.406,0,0,1,1.4,1.4v12.284A1.406,1.406,0,0,1,824.09,186.721Zm-8.545-14.42a.733.733,0,0,0-.732.732v12.284a.733.733,0,0,0,.732.732h8.545a.732.732,0,0,0,.731-.732V173.032a.732.732,0,0,0-.731-.732Z" transform="translate(-753.506 74.835)" fill="#3f3d56"/>
      <path id="Path_25" data-name="Path 25" d="M876.749,165.739h-7.865a1.747,1.747,0,0,1-1.745-1.745V141.745A1.747,1.747,0,0,1,868.884,140h7.865a1.747,1.747,0,0,1,1.745,1.745v22.25A1.747,1.747,0,0,1,876.749,165.739Zm-7.865-25.066a1.073,1.073,0,0,0-1.072,1.072v22.25a1.073,1.073,0,0,0,1.072,1.072h7.865a1.073,1.073,0,0,0,1.072-1.072V141.745a1.073,1.073,0,0,0-1.072-1.072Z" transform="translate(-787.339 95.817)" fill="#3f3d56"/>
      <rect id="Rectangle_8" data-name="Rectangle 8" width="6.409" height="10.415" transform="translate(63.048 248.919)" fill="#374eee"/>
      <rect id="Rectangle_9" data-name="Rectangle 9" width="6.409" height="20.151" transform="translate(82.21 238.611)" fill="#374eee"/>
      <circle id="Ellipse_7" data-name="Ellipse 7" cx="3.029" cy="3.029" r="3.029" transform="translate(63.32 236.827)" fill="#374eee"/>
      <circle id="Ellipse_8" data-name="Ellipse 8" cx="3.029" cy="3.029" r="3.029" transform="translate(82.308 225.382)" fill="#374eee"/>
    </g>
    <g id="Location_12" transform="translate(-4831 -3729)">
      <circle id="Ellipse_5" data-name="Ellipse 5" cx="33.401" cy="33.401" r="33.401" transform="translate(27.197 331.427)" fill="#3f3d56"/>
      <circle id="Ellipse_6" data-name="Ellipse 6" cx="28.725" cy="28.725" r="28.725" transform="translate(31.873 336.103)" opacity="0.1"/>
      <path id="Subtraction_1" data-name="Subtraction 1" d="M12.5,39.621h0c-.031-.051-3.171-5.147-6.25-10.981-1.814-3.438-3.26-6.468-4.3-9A21.448,21.448,0,0,1,0,12.486,12.486,12.486,0,0,1,12.5,0,12.479,12.479,0,0,1,25,12.486a21.448,21.448,0,0,1-1.953,7.149c-1.037,2.537-2.482,5.566-4.3,9-3.077,5.831-6.218,10.93-6.25,10.981Zm.142-35.932a8.076,8.076,0,1,0,3.152.636A8.053,8.053,0,0,0,12.642,3.689Z" transform="translate(48 347)" fill="#374eee"/>
    </g>
    <g id="Hero_1" transform="translate(-5528.785 -5599)">
      <ellipse id="Ellipse_125" data-name="Ellipse 125" cx="100.393" cy="17.829" rx="100.393" ry="17.829" transform="translate(865.25 2270.341)" fill="#3f3d56"/>
      <path id="Path_2206" data-name="Path 2206" d="M922.639,305.132a11.713,11.713,0,0,1-1.455-15.793c-.236.221-.466.451-.687.695a11.715,11.715,0,0,0,17.379,15.714c.221-.244.426-.5.622-.753a11.713,11.713,0,0,1-15.859.138Z" transform="translate(53.671 1742.153)" fill="#2f2e41"/>
      <circle id="Ellipse_126" data-name="Ellipse 126" cx="24.127" cy="24.127" r="24.127" transform="translate(941.572 2007.345)" fill="#2f2e41"/>
      <path id="Path_2207" data-name="Path 2207" d="M844.727,327.942l.715-1.859-13.013,11.011L816.7,345.959s-8.008-30.887-8.58-31.459-10.868-22.307-15.443-12.012,8.866,16.3,8.866,16.3.429,37.608,14.157,37.322,30.744-12.727,31.03-13.871S844.727,327.942,844.727,327.942Z" transform="translate(110.433 1737.465)" fill="#ffb8b8"/>
      <path id="Path_2208" data-name="Path 2208" d="M833.261,670.206l-1.716,24.881s-4.576,5.148-5.148,10.868-6.578,16.016-6.578,16.016-1.716,1.716,3.432,1.144,14.014-1.43,14.872-4,.286-13.442,5.434-14.586v10.3h2.574l-.858-11.154s6.006-8.294-1.43-13.156l2.288-18.875Z" transform="translate(97.876 1570.227)" fill="#2f2e41"/>
      <path id="Path_2209" data-name="Path 2209" d="M973.834,669.149l10.3,19.161s-1.43,7.15,0,9.438,1.43,10.01,1.144,10.868-.572,8.58,6.578,9.152c0,0,1.716,1.716,3.718-.572s5.148-6.578,4-8.866-5.148-21.163-5.434-21.735-8.58-23.165-8.58-23.165Z" transform="translate(28.229 1573.286)" fill="#2f2e41"/>
      <circle id="Ellipse_127" data-name="Ellipse 127" cx="14.3" cy="14.3" r="14.3" transform="translate(948.979 2028.071)" fill="#ffb8b8"/>
      <path id="Path_2210" data-name="Path 2210" d="M891.943,323.132s3.718,4.862,2.574,5.434-7.722.858-11.726,5.72,4.862,17.159,4.862,17.159L921.4,328.852l-13.728-4.576s-4.469-6.964-4.182-12.4Z" transform="translate(69.795 1731.979)" fill="#ffb8b8"/>
      <path id="Path_2211" data-name="Path 2211" d="M896.882,341.559l-9.724-3.432s-37.179,17.445-36.607,18.3,0,6.864,0,6.864-5.434,3.718-2.86,12.3,8.294,8.866,7.436,10.01-1.144,8.008-1.144,8.008-44.615,68.352-40.9,119.258c0,0,39.467,26.6,44.9,9.438s7.15-62.06,7.15-62.06,4.862,70.354,16.3,70.068,37.465-4,35.177-12.87-20.877-45.473-18.875-71.5-13.728-48.618-13.728-48.618,3.432-7.15,1.716-8.294l18.875-28.6S904.6,344.133,896.882,341.559Z" transform="translate(100.89 1720.129)" fill="#2f2e41"/>
      <path id="Path_2212" data-name="Path 2212" d="M956.465,347.193a2.5,2.5,0,0,0-3.577,1.338c-.861,2.368-1.734,7.3-1.423,17.568.572,18.875.858,31.745.858,31.745v28.6S939.74,453.9,946.6,453.9s11.726-21.735,11.726-21.735,6.292-32.889,4.29-38.609C962.619,393.553,968.264,354.039,956.465,347.193Z" transform="translate(41.445 1716.182)" fill="#ffb8b8"/>
      <ellipse id="Ellipse_128" data-name="Ellipse 128" cx="12.273" cy="8.368" rx="12.273" ry="8.368" transform="translate(948.838 2020.825)" fill="#2f2e41"/>
      <circle id="Ellipse_129" data-name="Ellipse 129" cx="11.715" cy="11.715" r="11.715" transform="translate(968.885 1999.2)" fill="#2f2e41"/>
      <path id="Path_2213" data-name="Path 2213" d="M940.325,258.247a11.713,11.713,0,0,1-11.671-10.737c-.027.321-.044.646-.044.975a11.715,11.715,0,1,0,23.43,0c0-.329-.017-.654-.044-.976A11.713,11.713,0,0,1,940.325,258.247Z" transform="translate(48.643 1761.035)" fill="#2f2e41"/>
      <ellipse id="Ellipse_130" data-name="Ellipse 130" cx="1.001" cy="2.288" rx="1.001" ry="2.288" transform="matrix(0.973, -0.232, 0.232, 0.973, 975.215, 2035.657)" fill="#ffb8b8"/>
      <circle id="Ellipse_131" data-name="Ellipse 131" cx="0.572" cy="0.572" r="0.572" transform="translate(976.577 2038.51)" fill="#f2f2f2"/>
      <path id="Path_2214" data-name="Path 2214" d="M1025.174,681.593l-1.1-.021a254.452,254.452,0,0,1,3.895-36.365c4.745-25.719,12.634-42.609,23.449-50.2l.63.9C1026.787,613.64,1025.187,680.915,1025.174,681.593Z" transform="translate(5.549 1604.174)" fill="#2f2e41"/>
      <path id="Path_2215" data-name="Path 2215" d="M1050.174,721.27l-1.1-.021c.024-1.215.709-29.851,11.983-37.766l.63.9C1050.871,691.976,1050.18,720.978,1050.174,721.27Z" transform="translate(-5.737 1564.234)" fill="#2f2e41"/>
      <path id="Path_2216" data-name="Path 2216" d="M1040.424,593.459a24.367,24.367,0,0,1-1.656,12.475,22.208,22.208,0,0,1-3.734-23.848A24.368,24.368,0,0,1,1040.424,593.459Z" transform="translate(1.456 1610.005)" fill="#2f2e41"/>
    </g>
  </g>
</svg>
