<svg xmlns="http://www.w3.org/2000/svg" xmlns:xlink="http://www.w3.org/1999/xlink" width="358.352" height="263.1" viewBox="0 0 358.352 263.1">
  <defs>
    <linearGradient id="linear-gradient" x1="0.5" y1="1" x2="0.5" gradientUnits="objectBoundingBox">
      <stop offset="0" stop-color="gray" stop-opacity="0.251"/>
      <stop offset="0.54" stop-color="gray" stop-opacity="0.122"/>
      <stop offset="1" stop-color="gray" stop-opacity="0.102"/>
    </linearGradient>
  </defs>
  <g id="icon_3" data-name="icon 3" transform="translate(0.007 0.053)">
    <path id="Path_2094" data-name="Path 2094" d="M137.778,268.752c7.541,17.032-2.081,36.651-13.388,51.44-3.792,4.95-7.961,10.132-8.493,16.363-.633,7.6,4.512,14.586,10.62,19.152a44.719,44.719,0,0,0,39.6,6.7c11.452-3.618,21.081-11.822,32.631-15.129,19.33-5.533,39.8,3.64,56.343,15.064,11.706,8.084,24.244,17.911,38.356,16.185,9.936-1.216,18.367-8.189,24.085-16.4,2.761-3.98,5.164-8.406,9.187-11.083A22.943,22.943,0,0,1,334.727,348c25.655-5.482,52.877,7.9,78.191,1.017,17.1-4.65,30.732-18.165,39.206-33.721s12.433-33.127,15.729-50.535c2.341-12.372,4.284-25.72-1.086-37.1-5.7-12.042-18.878-19.341-32.125-20.7s-26.538,2.417-38.743,7.751c-15.252,6.669-30.2,16-46.848,16.037-11.337.022-22.145-4.342-32.986-7.646-18.157-5.547-36.973-8.3-55.764-10.848-17.98-2.435-36.134-4.7-54.223-3.257-12.8,1.017-24.1,5.909-36.518,8.17-8.095,1.476-16.229.362-24.171,2.862-9.77,3.058-19.844,10.153-20.383,21.316C124.5,251.955,133.776,259.709,137.778,268.752Z" transform="translate(-111.867 -163.217)" fill="#ff6366" opacity="0.1"/>
    <g id="Group_16114" data-name="Group 16114" transform="translate(233.313 62.273)" opacity="0.5">
      <path id="Path_2095" data-name="Path 2095" d="M768.848,262.64c-1.809.521-4.056,1.867-5.156,5.562-2.171,7.237,2.851,12.187,1.2,19.7a14.694,14.694,0,0,1-2.533,5.525c-2.016,2.732-4.208,4.027-6.329,5.941a18.881,18.881,0,0,0-5.562,9.133,25.278,25.278,0,0,0-.25,11.872,47.1,47.1,0,0,0,3.166,8.322,61.471,61.471,0,0,1,3.257,10.494,25.516,25.516,0,0,1,.724,5.323,46.986,46.986,0,0,1-.659,7.121l-3.065,21.389a63.517,63.517,0,0,0-.836,8.453,41.84,41.84,0,0,0,.981,8.442c1.086,5.659,2.233,11.532,4.7,14.517s6.662,1.95,9.241-4.143c2.453-5.79,2.5-13.533,4.668-19.728,3.409-9.77,10.19-11.073,13.949-20.383,3.619-8.93,2.5-19.9,4.342-30.077,1.31-7.3,4.1-13.956,5.753-21.168a67.1,67.1,0,0,0,.242-29.154,38.722,38.722,0,0,0-9.071-17.622c-1.6-1.762-3.3-3.329-5.3-3.485-2.131-.163-3.98,2.533-6.1,3.325C773.765,262.918,771.319,261.938,768.848,262.64Z" transform="translate(-749.636 -258.67)" fill="#ff6366"/>
      <path id="Path_2096" data-name="Path 2096" d="M801.481,260.09s-3.618,92.372-18.791,146.845" transform="translate(-770.729 -259.576)" fill="none" stroke="#535461" stroke-miterlimit="10" stroke-width="2"/>
      <path id="Path_2097" data-name="Path 2097" d="M788.22,286.26s16.2,14.767,13.146,42.9" transform="translate(-774.258 -276.277)" fill="none" stroke="#535461" stroke-miterlimit="10" stroke-width="2"/>
      <path id="Path_2098" data-name="Path 2098" d="M750.6,402.38s26.632,5.355,24.656,21.284" transform="translate(-750.251 -350.379)" fill="none" stroke="#535461" stroke-miterlimit="10" stroke-width="2"/>
      <path id="Path_2099" data-name="Path 2099" d="M843.836,316.41s-10.772,9.433-20.376,36.152" transform="translate(-796.747 -295.517)" fill="none" stroke="#535461" stroke-miterlimit="10" stroke-width="2"/>
      <path id="Path_2100" data-name="Path 2100" d="M827.284,514.175s-7.353,5.79-13.254-14.405" transform="translate(-790.729 -412.529)" fill="none" stroke="#535461" stroke-miterlimit="10" stroke-width="2"/>
      <path id="Path_2101" data-name="Path 2101" d="M763,552.111s14.995-1.958,16.377-11.351" transform="translate(-758.164 -438.687)" fill="none" stroke="#535461" stroke-miterlimit="10" stroke-width="2"/>
    </g>
    <path id="Path_2102" data-name="Path 2102" d="M843.544,90.766c-3.713.55-8.178,2.269-10.012,7.577-3.6,10.407,7.349,18.284,4.827,29.158a16.344,16.344,0,0,1-4.585,7.838c-3.85,3.785-8.232,5.428-12.393,8a23.353,23.353,0,0,0-10.432,12.791,26.965,26.965,0,0,0,.887,17.455c1.95,4.917,4.9,8.583,7.541,12.628a85.563,85.563,0,0,1,8.015,15.816,30.416,30.416,0,0,1,2.117,7.921,47.908,47.908,0,0,1-.517,10.407l-3.807,31.119a64.761,64.761,0,0,0-.724,12.35,48.658,48.658,0,0,0,3.032,12.545c2.895,8.46,5.992,17.249,11.445,21.935s14.022,3.662,18.631-5.008c4.389-8.254,3.582-19.634,7.324-28.5,5.9-13.971,19.775-15.1,26.451-28.362,6.408-12.723,2.822-29,5.4-43.783,1.845-10.595,6.835-20.064,9.408-30.489a71.864,71.864,0,0,0-2.956-42.9c-4.885-11.981-12.585-20.459-20.864-27.026-3.51-2.783-7.237-5.3-11.391-5.761-4.429-.492-7.961,3.235-12.227,4.172C853.751,91.754,848.577,90.021,843.544,90.766Z" transform="translate(-554.773 -86.48)" fill="#ff6366"/>
    <path id="Path_2103" data-name="Path 2103" d="M929.879,88.12s3.492,135.606-21.479,214.021" transform="translate(-617.639 -87.561)" fill="none" stroke="#535461" stroke-miterlimit="10" stroke-width="2"/>
    <path id="Path_2104" data-name="Path 2104" d="M874.83,121.16s35.323,23.672,32.3,64.742" transform="translate(-596.216 -108.645)" fill="none" stroke="#535461" stroke-miterlimit="10" stroke-width="2"/>
    <path id="Path_2105" data-name="Path 2105" d="M810.75,287.71S866.5,298.754,864.3,321.973" transform="translate(-555.323 -214.93)" fill="none" stroke="#535461" stroke-miterlimit="10" stroke-width="2"/>
    <path id="Path_2106" data-name="Path 2106" d="M1001.072,176.42s-21.19,12.614-37.882,50.821" transform="translate(-652.603 -143.909)" fill="none" stroke="#535461" stroke-miterlimit="10" stroke-width="2"/>
    <path id="Path_2107" data-name="Path 2107" d="M982.709,461.406s-14.532,7.649-29.14-22.8" transform="translate(-646.464 -311.227)" fill="none" stroke="#535461" stroke-miterlimit="10" stroke-width="2"/>
    <path id="Path_2108" data-name="Path 2108" d="M856.47,513.11s30.8-1.107,32.566-14.771" transform="translate(-584.499 -349.344)" fill="none" stroke="#535461" stroke-miterlimit="10" stroke-width="2"/>
    <ellipse id="Ellipse_90" data-name="Ellipse 90" cx="154.751" cy="14.865" rx="154.751" ry="14.865" transform="translate(21.902 196.677)" fill="#ff6366" opacity="0.1"/>
    <path id="Path_2109" data-name="Path 2109" d="M157.393,622.29s3.032,3.98-1.4,9.951-8.087,11.044-6.593,14.774c0,0,6.687-11.12,12.129-11.275S163.382,628.977,157.393,622.29Z" transform="translate(-133.064 -428.443)" fill="#ff6366"/>
    <path id="Path_2110" data-name="Path 2110" d="M157.68,622.29a4.911,4.911,0,0,1,.619,1.245c5.312,6.238,8.138,12.06,3.036,12.209-4.755.138-10.457,8.637-11.825,10.787a4.609,4.609,0,0,0,.163.489s6.687-11.12,12.129-11.275S163.669,628.977,157.68,622.29Z" transform="translate(-133.351 -428.443)" opacity="0.1"/>
    <path id="Path_2111" data-name="Path 2111" d="M186.394,634.7c0,1.4-.156,2.533-.362,2.533s-.362-1.133-.362-2.533.2-.724.387-.724S186.394,633.3,186.394,634.7Z" transform="translate(-156.426 -435.793)" fill="#ffd037"/>
    <path id="Path_2112" data-name="Path 2112" d="M188.784,639.175c-1.227.669-2.294,1.086-2.385.9s.825-.85,2.052-1.516.742-.181.836,0S190.014,638.5,188.784,639.175Z" transform="translate(-156.888 -438.608)" fill="#ffd037"/>
    <path id="Path_2113" data-name="Path 2113" d="M115.843,622.29s-3.032,3.98,1.4,9.951,8.073,11.044,6.625,14.774c0,0-6.687-11.12-12.129-11.275S109.858,628.977,115.843,622.29Z" transform="translate(-107.532 -428.443)" fill="#ff6366"/>
    <path id="Path_2114" data-name="Path 2114" d="M115.819,622.29a4.911,4.911,0,0,0-.619,1.245c-5.312,6.238-8.138,12.06-3.036,12.209,4.755.138,10.457,8.637,11.825,10.787a4.608,4.608,0,0,1-.163.489S117.14,635.9,111.7,635.743,109.834,628.977,115.819,622.29Z" transform="translate(-107.509 -428.443)" opacity="0.1"/>
    <path id="Path_2115" data-name="Path 2115" d="M112.25,634.7c0,1.4.156,2.533.362,2.533s.362-1.133.362-2.533-.2-.724-.387-.724S112.25,633.3,112.25,634.7Z" transform="translate(-109.573 -435.793)" fill="#ffd037"/>
    <path id="Path_2116" data-name="Path 2116" d="M105.581,639.175c1.227.669,2.294,1.086,2.385.9s-.825-.85-2.052-1.516-.742-.181-.836,0S104.354,638.5,105.581,639.175Z" transform="translate(-104.84 -438.608)" fill="#ffd037"/>
    <path id="Path_2117" data-name="Path 2117" d="M114.91,681.114s8.478-.26,11.033-2.081,13.026-3.98,13.674-1.086,12.741,14.514,3.17,14.59-22.239-1.491-24.79-3.043S114.91,681.114,114.91,681.114Z" transform="translate(-111.271 -463.059)" fill="#a8a8a8"/>
    <path id="Path_2118" data-name="Path 2118" d="M142.967,699.608c-9.571.076-22.239-1.491-24.79-3.043-1.943-1.183-2.717-5.428-2.974-7.385h-.282s.536,6.839,3.087,8.391,15.219,3.123,24.8,3.047c2.765-.022,3.716-1.006,3.666-2.461C146.068,699.037,145.022,699.587,142.967,699.608Z" transform="translate(-111.277 -471.129)" opacity="0.2"/>
    <path id="Path_2119" data-name="Path 2119" d="M419.87,486.777s42.426-27.106,71.758-27.106c0,0,35.313-5.5,73.723,3.8s52.6,21.349,63.247,17.81l-44.739,1.31Z" transform="translate(-305.882 -323.636)" fill="#8cd0f3"/>
    <path id="Path_2120" data-name="Path 2120" d="M419.87,486.777s42.426-27.106,71.758-27.106c0,0,35.313-5.5,73.723,3.8s52.6,21.349,63.247,17.81l-44.739,1.31Z" transform="translate(-305.882 -323.636)" fill="#8cd0f3" opacity="0.1"/>
    <path id="Path_2121" data-name="Path 2121" d="M411.349,494.7H152.6l7.114-28.5,44-11.7,207.635,5.457Z" transform="translate(-97.387 -290.075)" fill="#121c3f"/>
    <path id="Path_2122" data-name="Path 2122" d="M499.637,513.256v9.1s-7.682,5.572-8.38,9.936c0,0-11,2.793-14.141,2.793a9.114,9.114,0,0,0-.923.033,26.1,26.1,0,0,0,1.147-4.049,26.666,26.666,0,1,0-50.611,5.428H411.814s-.138.047-.362.145c-.8.362-2.685,1.317-2.956,2.819H284.885l-2.533-.022a26.135,26.135,0,0,0,1.447-2.8,25.84,25.84,0,0,0,1.759-5.562,26.691,26.691,0,1,0-49.179,8.275c-1.766-.431-5.62-1.654-5.62-1.654s-16.41-1.744-20.6-5.428l.633-.438,2.685-1.835-1.223-4.7a2.9,2.9,0,0,1-.362-.644,4.3,4.3,0,0,1,.539-4.074c1.744-2.793.872-12.744.872-12.744s23.744-16.41,70.535-20.079a6.755,6.755,0,0,0,3.427,1.049,14.969,14.969,0,0,0,6.354-1.049s3.839,1.744,20.263-7.682c0,0,27.938-19.207,64.6-17.455,0,0,37.712-2.272,69.836,10.132a197.741,197.741,0,0,0,31.886,9.694,73.971,73.971,0,0,0,13.28,1.672h1.277s0,4.158.221,9.068v.025c.08,1.708.188,3.506.34,5.254v.109c.42,4.867,1.143,9.289,2.4,10.164Z" transform="translate(-172.055 -326.439)" fill="#2856b8"/>
    <path id="Path_2123" data-name="Path 2123" d="M228.627,574.938s10.519-8.207,23.614-6.459c0,0-11.916,9.43-17.285,8.818l-.915-.785-5.428.3S227.8,575.55,228.627,574.938Z" transform="translate(-183.603 -393.948)" fill="#8cd0f3"/>
    <path id="Path_2124" data-name="Path 2124" d="M228.432,626v4.845s-.362,4.628-4.541,4.8l-11.941.59,2.681-1.834-1.223-4.7a2.8,2.8,0,0,1-.362-.641c1.086-1,3.644-2.685,8.847-3.047Z" transform="translate(-173.197 -430.81)" fill="#fff" opacity="0.2"/>
    <path id="Path_2125" data-name="Path 2125" d="M411.06,569.242l9.166-.362s-3.709,2.924-6.329,3.188S411.06,569.242,411.06,569.242Z" transform="translate(-300.26 -394.359)" fill="#fff" opacity="0.2"/>
    <path id="Path_2126" data-name="Path 2126" d="M464.38,631.59s82.888-11.525,102.924-7.859c0,0,5.891.394,8.12,2.75s0,.829,0,.829Z" transform="translate(-334.286 -428.903)" fill="#fff" opacity="0.2"/>
    <path id="Path_2127" data-name="Path 2127" d="M592.61,552.786s1.049-1.965,2.75-2.008l11.044-.568a2.722,2.722,0,0,1-2.138,2.1Z" transform="translate(-416.116 -382.445)" fill="#18218a" opacity="0.5"/>
    <path id="Path_2128" data-name="Path 2128" d="M769.21,543.591s1.049-1.965,2.75-2.008L783,541a2.722,2.722,0,0,1-2.138,2.1Z" transform="translate(-528.814 -376.567)" fill="#18218a" opacity="0.5"/>
    <path id="Path_2129" data-name="Path 2129" d="M547.975,473.011,539.5,495.236l-30.554.033H481.62s4.082-3,10.656-6.814c2.171-1.266,4.635-2.62,7.309-3.98,2.461-1.259,5.109-2.533,7.892-3.742,2.171-.955,4.458-1.874,6.8-2.732C524.872,474.126,536.784,471.524,547.975,473.011Z" transform="translate(-345.288 -332.909)" fill="#8cd0f3"/>
    <path id="Path_2130" data-name="Path 2130" d="M716.188,489.051s-12.766,1.892-24.949,3.293c-4.657.536-9.227,1-12.969,1.256l-.521.036c-1.447.094-2.79.156-3.93.177a14.464,14.464,0,0,1-3.839-.264L673.5,472.29s4.342.047,10.765.362l1.4.076c1.335.076,2.743.163,4.212.264,2.1.145,4.31.318,6.589.528,11.007,1.01,23.477,2.822,31.372,6.086C744.643,486.561,716.188,489.051,716.188,489.051Z" transform="translate(-465.49 -332.72)" fill="#8cd0f3"/>
    <path id="Path_2131" data-name="Path 2131" d="M947.094,548.147v5.674s-9.166.13-7.2-1.7a28.083,28.083,0,0,0,3.449-3.98Z" transform="translate(-637.56 -381.124)" fill="#8cd0f3"/>
    <path id="Path_2132" data-name="Path 2132" d="M985.1,547.7l-7.443.583v-6.821s3.448-4.845,6.9.525l.2.315Z" transform="translate(-661.837 -375.582)" fill="#8cd0f3"/>
    <circle id="Ellipse_91" data-name="Ellipse 91" cx="21.302" cy="21.302" r="21.302" transform="translate(66.04 178.085)" fill="#182a7c"/>
    <path id="Path_2133" data-name="Path 2133" d="M332.977,607.364a17.144,17.144,0,1,1-.362-3.474A17.144,17.144,0,0,1,332.977,607.364Z" transform="translate(-228.548 -407.995)" fill="#3f8ffe"/>
    <ellipse id="Ellipse_92" data-name="Ellipse 92" cx="14.687" cy="14.724" rx="14.687" ry="14.724" transform="translate(72.629 184.642)" fill="#18218a" opacity="0.5"/>
    <path id="Path_2134" data-name="Path 2134" d="M344.2,590.857v.622l-4.889,16.185-3.922-17.076a17.183,17.183,0,0,1,8.811.268Z" transform="translate(-251.971 -407.926)" fill="#3f8ffe"/>
    <path id="Path_2135" data-name="Path 2135" d="M344.446,654.647a17.188,17.188,0,0,1-8.616.3l3.76-16.374Z" transform="translate(-252.251 -438.832)" fill="#3f8ffe"/>
    <path id="Path_2136" data-name="Path 2136" d="M363.342,631.43a17.181,17.181,0,0,1-.818,5.261h-.069L346.27,631.8l16.739-3.843a17.277,17.277,0,0,1,.333,3.47Z" transform="translate(-258.914 -432.061)" fill="#3f8ffe"/>
    <path id="Path_2137" data-name="Path 2137" d="M316.017,631.774l-16.185,4.889h-.127a17.325,17.325,0,0,1-.467-8.742Z" transform="translate(-228.675 -432.036)" fill="#3f8ffe"/>
    <circle id="Ellipse_93" data-name="Ellipse 93" cx="1.878" cy="1.878" r="1.878" transform="translate(85.439 197.487)" fill="#182a7c"/>
    <circle id="Ellipse_94" data-name="Ellipse 94" cx="21.302" cy="21.302" r="21.302" transform="translate(257.699 178.085)" fill="#182a7c"/>
    <path id="Path_2138" data-name="Path 2138" d="M862.657,607.364a17.144,17.144,0,1,1-.362-3.474,17.144,17.144,0,0,1,.362,3.474Z" transform="translate(-566.565 -407.995)" fill="#3f8ffe"/>
    <ellipse id="Ellipse_95" data-name="Ellipse 95" cx="14.687" cy="14.724" rx="14.687" ry="14.724" transform="translate(264.292 184.642)" fill="#18218a" opacity="0.5"/>
    <path id="Path_2139" data-name="Path 2139" d="M873.871,590.857v.622l-4.888,16.185-3.922-17.076A17.185,17.185,0,0,1,873.871,590.857Z" transform="translate(-589.981 -407.926)" fill="#3f8ffe"/>
    <path id="Path_2140" data-name="Path 2140" d="M874.126,654.647a17.188,17.188,0,0,1-8.616.3l3.76-16.374Z" transform="translate(-590.268 -438.832)" fill="#3f8ffe"/>
    <path id="Path_2141" data-name="Path 2141" d="M892.99,631.424a17.181,17.181,0,0,1-.818,5.261h-.083L875.9,631.793l16.739-3.843A17.271,17.271,0,0,1,892.99,631.424Z" transform="translate(-596.899 -432.055)" fill="#3f8ffe"/>
    <path id="Path_2142" data-name="Path 2142" d="M845.687,631.774,829.5,636.662h-.127a17.326,17.326,0,0,1-.467-8.742Z" transform="translate(-566.686 -432.036)" fill="#3f8ffe"/>
    <circle id="Ellipse_96" data-name="Ellipse 96" cx="1.878" cy="1.878" r="1.878" transform="translate(277.101 197.487)" fill="#182a7c"/>
    <path id="Path_2143" data-name="Path 2143" d="M511.408,505.5l-5.352,10.787H500.14l3.955-6.806C506.277,508.214,508.734,506.864,511.408,505.5Z" transform="translate(-357.106 -353.913)" fill="#fff" opacity="0.2"/>
    <path id="Path_2144" data-name="Path 2144" d="M548.587,487.61l-5.33,17.249H535.39l6.4-14.525C543.98,489.387,546.253,488.475,548.587,487.61Z" transform="translate(-379.601 -342.496)" fill="#fff" opacity="0.2"/>
    <path id="Path_2145" data-name="Path 2145" d="M696.672,473.686l-11.612,20.593-.521.036c-1.447.094-2.79.156-3.93.177l10.447-21.143,1.4.076C693.778,473.5,695.2,473.585,696.672,473.686Z" transform="translate(-472.274 -333.396)" fill="#fff" opacity="0.2"/>
    <path id="Path_2146" data-name="Path 2146" d="M365.649,448.63l-6.629,45.661,55.366-1.212,9.09-44.25Z" transform="translate(-229.114 -286.329)" fill="none" stroke="#fff" stroke-miterlimit="10" stroke-width="1" opacity="0.2"/>
    <path id="Path_2147" data-name="Path 2147" d="M538.773,667.434c-.8.362-2.685,1.317-2.956,2.819H412.2l-2.533-.022a26.134,26.134,0,0,0,1.447-2.8Z" transform="translate(-299.373 -457.249)" fill="#18218a" opacity="0.5"/>
    <path id="Path_2148" data-name="Path 2148" d="M438.931,742.591a5.763,5.763,0,0,0,1.882-2.837,2.527,2.527,0,0,0-1.314-2.895c-1.2-.463-2.5.362-3.474,1.219s-2.1,1.809-3.376,1.628a5.142,5.142,0,0,0,1.589-4.812,2.012,2.012,0,0,0-.441-.977c-.669-.724-1.885-.409-2.685.156-2.533,1.809-3.257,5.258-3.275,8.377A15.933,15.933,0,0,1,427.79,739a3.547,3.547,0,0,0-1.3-3.054,3.9,3.9,0,0,0-1.976-.463,4.077,4.077,0,0,0-3.206.912,3.181,3.181,0,0,0,.127,3.937,12.523,12.523,0,0,0,3.318,2.66,7.36,7.36,0,0,1,2.37,2.262,2.238,2.238,0,0,1,.177.405h7.186A20.031,20.031,0,0,0,438.931,742.591Z" transform="translate(-306.402 -499.41)" fill="#ff6366"/>
    <path id="Path_2149" data-name="Path 2149" d="M862.458,763.631a4.224,4.224,0,0,0,1.386-2.091,1.857,1.857,0,0,0-.97-2.131c-.89-.34-1.842.275-2.562.9a3.409,3.409,0,0,1-2.493,1.2,3.792,3.792,0,0,0,1.172-3.55,1.485,1.485,0,0,0-.326-.724c-.5-.528-1.39-.3-1.983.116-1.882,1.324-2.406,3.879-2.417,6.18A11.841,11.841,0,0,1,854.23,761a2.615,2.615,0,0,0-.955-2.251,2.9,2.9,0,0,0-1.447-.344,3.013,3.013,0,0,0-2.366.673,2.327,2.327,0,0,0,.094,2.895,9.419,9.419,0,0,0,2.45,1.961,5.428,5.428,0,0,1,1.751,1.668,1.652,1.652,0,0,1,.13.3h5.3a14.773,14.773,0,0,0,3.271-2.269Z" transform="translate(-579.73 -514.364)" fill="#ff6366"/>
    <path id="Path_2150" data-name="Path 2150" d="M927.458,795.441a4.223,4.223,0,0,0,1.386-2.091,1.857,1.857,0,0,0-.97-2.131c-.89-.34-1.842.275-2.562.9a3.408,3.408,0,0,1-2.493,1.2,3.792,3.792,0,0,0,1.172-3.55,1.484,1.484,0,0,0-.326-.724c-.5-.528-1.389-.3-1.983.116-1.882,1.324-2.406,3.879-2.417,6.18a11.844,11.844,0,0,1-.036-2.533,2.615,2.615,0,0,0-.955-2.251,2.9,2.9,0,0,0-1.447-.344,3.013,3.013,0,0,0-2.366.673,2.328,2.328,0,0,0,.094,2.895,9.419,9.419,0,0,0,2.45,1.961,5.429,5.429,0,0,1,1.752,1.668,1.663,1.663,0,0,1,.13.3h5.3A14.775,14.775,0,0,0,927.458,795.441Z" transform="translate(-621.21 -534.663)" fill="#ff6366"/>
    <path id="Path_2151" data-name="Path 2151" d="M601.814,595.712s-1.263.688-1.838-3.206c-.362-2.533-1.415-7.754-2.106-11.145l-.087-.431a5.9,5.9,0,0,0,.583-.217s-4.024-15.559-3.1-19,0-9.618,0-9.618l-2.414-8.127s-5.978-2.062-8.275-2.634-8.735-4.581-8.735-4.581a4.961,4.961,0,0,1,.311.4l-.257-.156a9.592,9.592,0,0,1-1.266-1.447,9.112,9.112,0,0,0,2.381-4.95,10.276,10.276,0,0,0-.514-10.454,5.128,5.128,0,0,0,.879-1.643,2.684,2.684,0,0,0,.1-.839,2.232,2.232,0,0,0-1.259-2.218,2.2,2.2,0,0,0-1.73.018,7.448,7.448,0,0,1-1.469.782c-.93.192-1.726-.554-2.457-1.107a7.392,7.392,0,0,0-3.9-1.447,3.791,3.791,0,0,0-1.809.239,7.273,7.273,0,0,0-1.5,1.125c-1.657,1.335-3.98,1.708-6.061,2.435-.4.138-.839.362-.912.724a.526.526,0,0,0,0,.217h0a.535.535,0,0,0,.022.275,20.37,20.37,0,0,0-7.675,3.6l-.637.59a1.216,1.216,0,0,0-1.328.112l-1.281,1.006a1.2,1.2,0,0,0-.289,1.57l-9.368,8.684-.2.188v-.033s-7.237,5.5-7.237,9.386c0,2.812,2.171,4.545,3.354,5.294a8.974,8.974,0,0,0-2.338,3.618h0v.879h0v.123l-.029.159v.065l-.018.109v.224l-.025.145h0l-.033.181v.036l-.025.152v.072l-.029.167v.043l-.033.188v.083l-.083.474h0l-.043.257v.043l-.047.264v.036l-.047.268v.022l-.051.282v.062l-.051.279v.062l-.047.275v.033l-.054.311v.058l-.123.695h0l-.061.362v.054l-.062.362v.025l-.134.724v.061l-.065.362v.051l-.141.763v.033l-.072.387v.033l-.145.789v.051l-.072.391v.029l-.152.807v.043l-.076.4v.029l-.156.818v.033l-.076.4v.033l-.662.818v.036l-.08.394v.022l-.163.8v.022l-.08.391v.022l-.159.767v.033l-.076.362v.033l-.156.724v.025l-.076.362v.036l-.152.684v.018l-.072.322v.033q-.076.326-.148.63h0l-.072.3v.025q-.072.3-.141.568h0l-.069.26v.029l-.065.25a6.306,6.306,0,0,1-.724,1.979,2.034,2.034,0,0,0-.423.666h0l-.029.072-.029.08-.025.08-.119.109-.025.083-.022.076-.022.087v.08l-.018.087v.08a.545.545,0,0,1-.029.174v2.848l1.086.329s.546.3,1.39.691c-.119,3.651-.456,8.594-1.371,11.619-2.041.1-7.081.318-7.993-.047-1.151-.459-8.507-1.6-6.206,3.662a11.729,11.729,0,0,0,5.164,5.066,6.431,6.431,0,0,1-.8.206c-1.874.362-2.4.988-2.323,1.632-.134,1.086,1.712,2.3,1.864,2.374.232.116,8.044,1.375,9.886.8s9.31-1.947,9.31-1.947v-.228h0s-.1-2.251-.383-4.386c.847-.123,1.769-.235,2.667-.3a3.64,3.64,0,0,0,1.968,2.515c4.943,2.533,6.553-.915,6.553-.915s6.683,1.285,10.418.362a10.993,10.993,0,0,0,.959.792c1.212.872,4.476,1.469,8.127,1.513a11.519,11.519,0,0,0,2.917-.083,27.013,27.013,0,0,0,4.776-.749c4.4-1.14,5.363-5.229,5.573-7.085.174-.051.3-.232.362-.572a1.646,1.646,0,0,0,.152-.59,17.4,17.4,0,0,1,.47-2.49l5.428.3c2.424,4.4,4.567,7.9,4.567,7.9l3.676-.46a21.238,21.238,0,0,1-4.252-4.581c-1.838-2.746-1.838-15.921-1.838-15.921l.206-8.022v-.3c.34,2.377,3.036,9.274,3.34,9.375.221.072.438.137.651.2l.2.514c1.534,4.067,5.428,14.474,5.7,16.117.362,2.063,14.713,2.862,17.929,1.831S601.814,595.712,601.814,595.712Zm-51.263-45.564-5.261,7.9a52.467,52.467,0,0,0-5.638-8.236C544.321,549.971,549.7,550.137,550.552,550.148Zm-.8-20.263a1.219,1.219,0,0,0,1.27-.141l.449-.362a1.2,1.2,0,0,0,.308-1.549l.268-.264a40.027,40.027,0,0,0,5.471-1.328,10.214,10.214,0,0,0,1.339,4.646,9.067,9.067,0,0,0,.883,2.605c-.825-.069-1.722-.116-2.58-.109a13.474,13.474,0,0,0-2.24.141c-2.757.46-3.1,5.5-3.1,5.5s-5.54,1.947-8.869,2.016a4.167,4.167,0,0,1-1.245-.185l-.336-.022.452-1.237s-.2.062-.517.127q.156-.235.326-.478a87.3,87.3,0,0,1,8.127-9.35Zm-11.384,61.134a21.356,21.356,0,0,0-1.14,2.243c-1.306.253-3.087.394-4.031-.412a2.352,2.352,0,0,0-1.513-.532l.022-.043a28.089,28.089,0,0,0,1.639-6.94,7.363,7.363,0,0,0,4.107-1.762l2.652.908.1.185.065.119.1.2.065.123.1.192.069.123.1.188.069.123.1.185.069.123.1.185.069.119.1.181.065.116.1.181.065.112.1.177.065.112.1.177.062.1.1.174.061.1.1.174.054.09.109.177.04.065c.188.308.362.6.539.876l.025.04.1.159.043.069.09.145.051.076.083.13.051.083.076.119.054.083.072.112.051.08.065.1.051.08.062.094.051.08.058.087.051.076h0A23.306,23.306,0,0,1,538.368,591.018Z" transform="translate(-363.568 -359.123)" fill="url(#linear-gradient)"/>
    <path id="Path_2152" data-name="Path 2152" d="M751.663,712.148c-3.137,1.009-17.144.224-17.481-1.809-.268-1.617-4.064-11.8-5.562-15.776l-.6-1.592,7.284-1.57s.268,1.277.637,3.1c.673,3.322,1.69,8.449,2.052,10.91.561,3.81,1.809,3.137,1.809,3.137S754.789,711.139,751.663,712.148Z" transform="translate(-502.529 -472.546)" fill="#ffbdc6"/>
    <path id="Path_2153" data-name="Path 2153" d="M667.2,566s-.561,3.362,4.259,6.513.673,14.456.673,14.456l-3.564.2a8.76,8.76,0,0,1-9.213-7.932h0s2.016-3.257-1.683-11.655Z" transform="translate(-457.635 -392.521)" fill="#ffbdc6"/>
    <path id="Path_2154" data-name="Path 2154" d="M595.528,539.051s-6.937,6.763-10.161,11.423a16.451,16.451,0,0,0-1.046,1.686c-2.352,4.483-7.823-2.8-5.931-5.323l1.306-1.219,12.578-11.724s8.63-6.723,13-1.9S595.528,539.051,595.528,539.051Z" transform="translate(-406.793 -369.708)" fill="#ffbdc6"/>
    <circle id="Ellipse_97" data-name="Ellipse 97" cx="10.085" cy="10.085" r="10.085" transform="translate(194.058 157.521)" fill="#a66477"/>
    <path id="Path_2155" data-name="Path 2155" d="M528.9,730.337s-7.508.449-8.63,0-8.29-1.567-6.036,3.59,10.758,7.284,10.758,7.284l6.151-1.57Z" transform="translate(-365.82 -497.125)" fill="#7679b4"/>
    <path id="Path_2156" data-name="Path 2156" d="M528.9,730.337s-7.508.449-8.63,0-8.29-1.567-6.036,3.59,10.758,7.284,10.758,7.284l6.151-1.57Z" transform="translate(-365.82 -497.125)" opacity="0.05"/>
    <path id="Path_2157" data-name="Path 2157" d="M616.1,670.08l15.071,6.122,8.572,18.208s.112,6.387-5.489,7.845-13.446.785-15.465-.673S608.48,691.5,608.48,691.5Z" transform="translate(-426.244 -458.94)" fill="#7679b4"/>
    <path id="Path_2158" data-name="Path 2158" d="M615.076,670.08l13.045,4.888,7.421,14.572s.1,5.113-4.751,6.278-11.641.626-13.388-.539-8.923-8.073-8.923-8.073Z" transform="translate(-426.244 -458.94)" opacity="0.05"/>
    <path id="Path_2159" data-name="Path 2159" d="M573.44,730.159s-3.922,1.346-5.489,0-4.371.337-4.371.337l1.237,7.284s5.6-1.234,8.63-.9Z" transform="translate(-397.591 -496.947)" fill="#ffbdc6"/>
    <path id="Path_2160" data-name="Path 2160" d="M573.44,730.159s-3.922,1.346-5.489,0-4.371.337-4.371.337l1.237,7.284s5.6-1.234,8.63-.9Z" transform="translate(-397.591 -496.947)" opacity="0.05"/>
    <path id="Path_2161" data-name="Path 2161" d="M577.877,666.718l-3.579-1.234s-3.922,3.474-6.513.561,2.352-15.017,2.352-15.017l5.265-8.518,3.81,11.992,3.474,5.826Z" transform="translate(-399.795 -441.346)" fill="#565388"/>
    <path id="Path_2162" data-name="Path 2162" d="M577.877,666.718l-3.579-1.234s-3.922,3.474-6.513.561,2.352-15.017,2.352-15.017l5.265-8.518,3.81,11.992,3.474,5.826Z" transform="translate(-399.795 -441.346)" opacity="0.05"/>
    <path id="Path_2163" data-name="Path 2163" d="M586.043,621.07l8.069,1.118,1.57,7.4-9.973-.561Z" transform="translate(-373.777 -396.372)" fill="#565388"/>
    <path id="Path_2164" data-name="Path 2164" d="M586.043,621.07l8.069,1.118,1.57,7.4-9.973-.561Z" transform="translate(-373.777 -396.372)" opacity="0.05"/>
    <path id="Path_2165" data-name="Path 2165" d="M634,595.45s3.362,12.885,14.112,3.586l2.913,36.977s-3.586,5.714-4.147,10.855-10.309-15.921-16.135-16.023-11.6-8.236-11.6-8.236l6.557-13.5Z" transform="translate(-433.053 -411.315)" opacity="0.1"/>
    <path id="Path_2166" data-name="Path 2166" d="M634.314,594.52s3.362,12.885,14.112,3.586l2.913,36.977s-3.586,5.714-4.147,10.855-10.309-15.921-16.135-16.023-11.6-8.236-11.6-8.236l6.557-13.5Z" transform="translate(-433.251 -410.721)" fill="#f2f1f2"/>
    <path id="Path_2167" data-name="Path 2167" d="M596.853,570.762a29.808,29.808,0,0,0-7.4-.337c-2.692.449-3.025,5.377-3.025,5.377s-7.62,2.688-10.2,1.809c0,0-12.665-.9-12.665,2.913s4.038,5.58,4.038,5.58,17.582.593,17.705.561c4.035-1.122-.112,0-.112,0l-7.284,10.982,6.723,9.3,7.172-5.265s.9-4.932,3.257-7.4c1.679-1.762,3.875-9.694,4.993-14.083a7.2,7.2,0,0,0-.814-5.5Z" transform="translate(-397.584 -395.257)" opacity="0.1"/>
    <path id="Path_2168" data-name="Path 2168" d="M585.367,577.576a16.45,16.45,0,0,0-1.046,1.686c-2.352,4.483-7.823-2.8-5.931-5.323l1.306-1.219C579.219,578.5,583.927,577.887,585.367,577.576Z" transform="translate(-406.793 -396.81)" opacity="0.1"/>
    <path id="Path_2169" data-name="Path 2169" d="M623.127,613.461H623S627.161,612.339,623.127,613.461Z" transform="translate(-435.51 -422.49)" opacity="0.1"/>
    <path id="Path_2170" data-name="Path 2170" d="M595.929,570.762a29.809,29.809,0,0,0-7.4-.337c-2.692.449-3.025,5.377-3.025,5.377s-7.62,2.688-10.2,1.809l.449-1.234s-6.832,2.128-6.05-5.055c0,0-7.06,5.377-7.06,9.187s4.035,5.594,4.035,5.594,17.582.593,17.705.561c4.035-1.122-.112,0-.112,0l-7.284,10.982,6.723,9.3,7.172-5.265s.9-4.932,3.257-7.4c1.679-1.762,3.875-9.694,4.994-14.083a7.2,7.2,0,0,0-.814-5.5Z" transform="translate(-396.997 -395.257)" fill="#565388"/>
    <path id="Path_2171" data-name="Path 2171" d="M718.357,672.25v.615A1.339,1.339,0,0,1,718.357,672.25Z" transform="translate(-496.339 -460.325)" opacity="0.1"/>
    <path id="Path_2172" data-name="Path 2172" d="M735.941,694.537a12.8,12.8,0,0,1-7.32.065l-.6-1.592,7.284-1.57S735.568,692.728,735.941,694.537Z" transform="translate(-502.529 -472.571)" opacity="0.1"/>
    <path id="Path_2173" data-name="Path 2173" d="M689.62,579.34s6.274,3.922,8.518,4.483,8.069,2.576,8.069,2.576l2.352,7.961s.9,6.05,0,9.408-9.3,9.748-8.851,8.739l-.224,8.851s0,12.885,1.809,15.559-3.419-2.634-3.419-2.634-6.332-9.357-7.114-15.3.445-28.778.445-28.778l-1.122-1.57S692.421,582.589,689.62,579.34Z" transform="translate(-478.024 -401.034)" opacity="0.1"/>
    <path id="Path_2174" data-name="Path 2174" d="M690.55,579.34s6.274,3.922,8.518,4.483,8.069,2.576,8.069,2.576l2.352,7.961s.9,6.05,0,9.408,3.025,18.6,3.025,18.6a12.489,12.489,0,0,1-8.63,0c-.337-.112-3.7-8.851-3.257-9.86l-.224,8.851s0,12.885,1.809,15.559a20.752,20.752,0,0,0,4.147,4.483l-3.586.449s-10.32-16.906-11.105-22.833.449-28.8.449-28.8L691,588.65S693.351,582.589,690.55,579.34Z" transform="translate(-478.617 -401.034)" fill="#565388"/>
    <path id="Path_2175" data-name="Path 2175" d="M570.273,651.493s-7.508-10.855-7.172-15.921c0,0-.9,6.947-1.9,7.4s-11.094-2.692-11.094-2.692-.449-3.257.673-4.371,4.6-21.852,4.6-21.852,1.234-5.6,6.611-5.938,17.481,27,17.481,27S581.255,651.493,570.273,651.493Z" transform="translate(-388.934 -419.395)" fill="#7679b4"/>
    <path id="Path_2176" data-name="Path 2176" d="M551.73,687.11s.224,15.686-2.576,18.266,8.181,3.922,8.181,3.922-1.9-3.81-.336-6.835,2.576-15.353,2.576-15.353Z" transform="translate(-388.093 -469.808)" fill="#ffbdc6"/>
    <path id="Path_2177" data-name="Path 2177" d="M534.257,734.479s-1.122-2.8-4.147-.561c0,0-2.689,6.274-7.4,7.172s-.673,3.586-.449,3.7,7.845,1.346,9.636.785,9.075-1.9,9.075-1.9-.337-7.4-1.447-7.961S538.965,739.064,534.257,734.479Z" transform="translate(-370.063 -499.125)" opacity="0.05"/>
    <path id="Path_2178" data-name="Path 2178" d="M534.257,735.069s-1.122-2.8-4.147-.561c0,0-2.689,6.274-7.4,7.172s-.673,3.586-.449,3.7,7.845,1.346,9.636.785,9.079-1.9,9.079-1.9-.336-7.4-1.447-7.961S538.965,739.661,534.257,735.069Z" transform="translate(-370.063 -499.501)" fill="#7679b4"/>
    <path id="Path_2179" data-name="Path 2179" d="M610.905,542.067a52.13,52.13,0,0,0,3.054,4.259,1.183,1.183,0,0,1-.17,1.7l-.438.344a1.183,1.183,0,0,1-1.686-.235,13.363,13.363,0,0,0-3.618-3.427,1.183,1.183,0,0,1-.109-1.932l1.248-.984a1.183,1.183,0,0,1,1.719.275Z" transform="translate(-425.611 -376.91)" fill="#565388"/>
    <path id="Path_2180" data-name="Path 2180" d="M668.707,570.561a5.3,5.3,0,0,1-1.172-3.651L658,568.495a30.764,30.764,0,0,1,1.628,4.57A8.959,8.959,0,0,0,668.707,570.561Z" transform="translate(-457.845 -393.102)" opacity="0.1"/>
    <circle id="Ellipse_98" data-name="Ellipse 98" cx="8.963" cy="8.963" r="8.963" transform="translate(195.237 162.059)" fill="#ffbdc6"/>
    <path id="Path_2181" data-name="Path 2181" d="M645.305,527.9a22.335,22.335,0,0,1,2.457-.68,4.091,4.091,0,0,1,2.83,1.357,6.769,6.769,0,0,0,2.555,1.845,6.317,6.317,0,0,0,2.048.138,1.9,1.9,0,0,0,1.086-.275,1.37,1.37,0,0,0,.362-.554,5.265,5.265,0,0,0-.033-4.266.723.723,0,0,1-.1-.463.7.7,0,0,1,.156-.257,7.836,7.836,0,0,0,1.78-2.743,2.3,2.3,0,0,0-1.133-2.768,2.132,2.132,0,0,0-1.686,0,6.833,6.833,0,0,1-1.448.763c-.908.188-1.686-.543-2.4-1.086a7.189,7.189,0,0,0-3.8-1.418,3.684,3.684,0,0,0-1.777.235,7.1,7.1,0,0,0-1.447,1.086c-1.617,1.306-3.883,1.672-5.909,2.385-.387.138-.818.34-.89.724s.362.771.8.937a2.912,2.912,0,0,1,1.223.612c.362.434.246,1.049.311,1.6.134,1.086,1.086,1.675,2.139,1.99C643.3,527.34,644.44,528.049,645.305,527.9Z" transform="translate(-445.049 -361.554)" opacity="0.1"/>
    <path id="Path_2182" data-name="Path 2182" d="M645.394,527.336a22.349,22.349,0,0,1,2.457-.68,4.091,4.091,0,0,1,2.83,1.357,6.769,6.769,0,0,0,2.555,1.845,6.32,6.32,0,0,0,2.048.138,1.9,1.9,0,0,0,1.086-.275,1.367,1.367,0,0,0,.362-.554,5.264,5.264,0,0,0-.033-4.266.723.723,0,0,1-.1-.463.7.7,0,0,1,.156-.257,7.836,7.836,0,0,0,1.78-2.743,2.3,2.3,0,0,0-1.133-2.768,2.131,2.131,0,0,0-1.686,0,6.831,6.831,0,0,1-1.447.763c-.908.188-1.686-.543-2.4-1.086a7.189,7.189,0,0,0-3.752-1.389,3.682,3.682,0,0,0-1.777.235,7.1,7.1,0,0,0-1.447,1.086c-1.617,1.306-3.883,1.672-5.909,2.385-.387.138-.818.34-.89.724s.362.771.8.937a2.913,2.913,0,0,1,1.223.612c.362.434.246,1.049.311,1.6.134,1.085,1.086,1.675,2.139,1.99C643.386,526.771,644.53,527.48,645.394,527.336Z" transform="translate(-445.138 -361.21)" fill="#a66477"/>
    <path id="Path_2183" data-name="Path 2183" d="M638.29,664.84s6.4,1.086,8,4.541,11.217,12.806,11.217,12.806" transform="translate(-445.267 -455.596)" opacity="0.05"/>
    <g id="Group_16115" data-name="Group 16115" transform="translate(161.08 193.97)" opacity="0.05">
      <path id="Path_2184" data-name="Path 2184" d="M561.421,692.363c-1.01.449-11.094-2.689-11.094-2.689a10.7,10.7,0,0,1,.032-2.935,8.934,8.934,0,0,0-.257,3.72s10.085,3.137,11.094,2.688c.333-.148.655-1.01.937-2.1C561.91,691.748,561.671,692.262,561.421,692.363Z" transform="translate(-550.013 -663.542)"/>
      <path id="Path_2185" data-name="Path 2185" d="M558.182,622.63a6.6,6.6,0,0,0-.21.695s-2.432,14.521-3.883,19.9C555.432,638.859,557.965,623.922,558.182,622.63Z" transform="translate(-552.615 -622.63)"/>
      <path id="Path_2186" data-name="Path 2186" d="M593.583,697.741s-7.508-10.855-7.172-15.921c0,0-.08.63-.221,1.52.34,5.3,7.168,15.19,7.168,15.19,5.221,0,7.555-3.7,8.565-7.581C600.809,694.524,598.453,697.741,593.583,697.741Z" transform="translate(-573.1 -660.402)"/>
    </g>
    <path id="Path_2187" data-name="Path 2187" d="M552.8,687.757s6.846,3.77,9.314,1.976.9-4.6.9-4.6L561.1,682h-6.387l-2.128,3.7Z" transform="translate(-390.577 -466.547)" fill="#7679b4"/>
    <path id="Path_2188" data-name="Path 2188" d="M618.874,722.718s.449-8.963-10.982-8.851-.449,0-.449,0-4.483-1.346-10.085,1.809a22.353,22.353,0,0,1-11.992,2.464s-5.156,8.518-.337,10.982,6.387-.916,6.387-.916,9.86,1.9,12.1-.673a11.5,11.5,0,0,0,12.437,2.482S621.562,727.534,618.874,722.718Z" transform="translate(-409.966 -486.701)" fill="#7679b4"/>
  </g>
</svg>
