<svg xmlns="http://www.w3.org/2000/svg" width="54.718" height="69.346" viewBox="0 0 54.718 69.346">
  <g id="icon_4" data-name="icon 4" transform="translate(4445 2476.684)">
    <path id="Path_2550" data-name="Path 2550" d="M232.087,634.718a8.944,8.944,0,0,0-5.752-10.667l-.153-.057-.036.16A8.944,8.944,0,0,0,231.9,634.82l.153.057Zm-5.695-10.335a8.625,8.625,0,0,1,5.449,10.1,8.625,8.625,0,0,1-5.449-10.1Z" transform="translate(-4628.572 -3042.215)" fill="#f1f1f1"/>
    <path id="Path_2548" data-name="Path 2548" d="M233.886,656.016a10.222,10.222,0,0,1,3.91,5.072,8.8,8.8,0,0,1-10.224-6.151A10.222,10.222,0,0,1,233.886,656.016Z" transform="translate(-4634.318 -3068.644)" fill="#f1f1f1"/>
    <path id="Path_2544" data-name="Path 2544" d="M519.25,441.785a1.548,1.548,0,0,1,1.5-1.843l1.307-3.288,2.192.307-1.911,4.617a1.557,1.557,0,0,1-3.085.206Z" transform="translate(-4962.435 -2881.642)" fill="#9f616a"/>
    <path id="Path_2540" data-name="Path 2540" d="M494.845,316.927l.679-1.619,4.232-8.056-.23-14.906-.044-.006c-2.708-.358-4.54,12.119-4.617,12.651l-2.674,9.145-.637,2.016Z" transform="translate(-4933.992 -2757.938)" fill="#ff6366"/>
    <path id="Path_2547" data-name="Path 2547" d="M299.551,437.043h-2.058l-.979-7.936h3.037Z" transform="translate(-4732.196 -2846.623)" fill="#9f616a"/>
    <path id="Path_2551" data-name="Path 2551" d="M483.376,679.777h-4.052a2.582,2.582,0,0,0-2.582,2.582v.084h6.635Z" transform="translate(-4915.495 -3090.029)" fill="#2f2e41"/>
    <path id="Path_2546" data-name="Path 2546" d="M171.124,423.649l-1.688,1.176-5.341-5.952,2.492-1.736Z" transform="translate(-4584.85 -2836.365)" fill="#9f616a"/>
    <path id="Path_2549" data-name="Path 2549" d="M341.428,656.579,338.1,658.9h0a2.582,2.582,0,0,0-.642,3.6l.048.069,5.443-3.793Z" transform="translate(-4755.107 -3070.145)" fill="#2f2e41"/>
    <path id="Path_2545" data-name="Path 2545" d="M367.1,480.907l.089-14.888,1.295-9.362,2.414,8.233,0,.007,8.747,12.7,3.4-1.724-.019-.044c-.208-.495-5.109-12.114-6.427-12.114a.712.712,0,0,1-.606-.266c-.387-.516-.072-1.612-.069-1.623a1.734,1.734,0,0,0-.76-2.185l-.508-10.486-.053,0-13.771.966.578,13.11,1.243,17.177.043,0Z" transform="translate(-4798.612 -2892.353)" fill="#2f2e41"/>
    <path id="Path_2541" data-name="Path 2541" d="M413.7,313.7l.06,0,14.81-1.194-.037-4.9-.725-12.8,0-.009-2.952-6.409-2.093-.948-3.053-.161-.007,0-2.786.69-2.9,20.807Z" transform="translate(-4851.683 -2753.604)" fill="#ff6366"/>
    <ellipse id="Ellipse_183" data-name="Ellipse 183" cx="3.899" cy="3.899" rx="3.899" ry="3.899" transform="translate(-4429.033 -2466.1) rotate(-151.337)" fill="#9f616a"/>
    <path id="Path_2539" data-name="Path 2539" d="M443.383,224.391v-1.519s1.225-1.443-.123-1.807c0,0-.368-3.635-3.553-1.939,0,0-4.411-.727-3.921,1.817,0,0-1.1-.664-.735,1.032l.711,2.732s-.343-1.8.759-2.047l.613-.363s1.715,1.7,4.288-.363c0,0,1.1-.263.98.827A1.749,1.749,0,0,0,443.383,224.391Z" transform="translate(-4870.046 -2694.804)" fill="#2f2e41"/>
    <path id="Path_2543" data-name="Path 2543" d="M422.692,419.328a1.548,1.548,0,0,1,1.8-1.544l1.876-3,2.1.7-2.709,4.2a1.557,1.557,0,0,1-3.072-.351Z" transform="translate(-4852.87 -2862.895)" fill="#9f616a"/>
    <path id="Path_2542" data-name="Path 2542" d="M408.525,315.405l3.394-6.891,0-.017a94.1,94.1,0,0,0-2.425-10.451c-1.052-2.806-2.491-3.37-2.552-3.392l-.03-.011-1.291,1.238,1.788,11.933-1.927,5.755Z" transform="translate(-4833.857 -2759.918)" fill="#ff6366"/>
    <path id="Path_2552" data-name="Path 2552" d="M184.04,698.424h54.433a.143.143,0,1,0,0-.286H184.04a.143.143,0,1,0,0,.286Z" transform="translate(-4628.897 -3105.767)" fill="#cbcbcb"/>
  </g>
</svg>
