<svg xmlns="http://www.w3.org/2000/svg" xmlns:xlink="http://www.w3.org/1999/xlink" width="244.51" height="184.874" viewBox="0 0 244.51 184.874">
  <defs>
    <linearGradient id="linear-gradient" x1="0.5" y1="1" x2="0.5" gradientUnits="objectBoundingBox">
      <stop offset="0" stop-color="gray" stop-opacity="0.251"/>
      <stop offset="0.54" stop-color="gray" stop-opacity="0.122"/>
      <stop offset="1" stop-color="gray" stop-opacity="0.102"/>
    </linearGradient>
  </defs>
  <g id="icon_5" data-name="icon 5" transform="translate(0 -0.07)">
    <path id="Path_2234" data-name="Path 2234" d="M99.6,363.79A38.192,38.192,0,0,0,123.7,387.2c25.933,8.926,84.418,4.322,128.065-.962,22.579-2.733,42.422-10.273,56.838-20.893Z" transform="translate(-88.258 -290.4)" fill="#ff6366" opacity="0.1"/>
    <path id="Path_2235" data-name="Path 2235" d="M349.665,106.943H325.726c-1.137,0-2.07-.6-2.07-1.33s.933-1.33,2.07-1.33h4.14c-1.139,0-2.07-.6-2.07-1.33s.931-1.33,2.07-1.33H326.91c-1.139,0-2.07-.6-2.07-1.33s.931-1.33,2.07-1.33h12.5a47.669,47.669,0,0,0-9.753-1.729c-34.09-2.819-46.261-.951-50.554.958a63.613,63.613,0,0,1-17.51,4.938c-21.039,2.788-60.366,6.146-96.012-1.084-17.717-3.589-30.885,2.476-38.778,12.612H353.825a17.039,17.039,0,0,0-2.813-8.048,2.8,2.8,0,0,1-1.348.332Z" transform="translate(-109.429 -81.806)" fill="#ff6366" opacity="0.1"/>
    <path id="Path_2236" data-name="Path 2236" d="M88.624,267.25a44,44,0,0,0,.929,17.885l210.273,4.945a69.654,69.654,0,0,0,14.609-14.325Zm83.165,12.758h-4.132c1.137,0,2.068.6,2.068,1.33s-.931,1.33-2.068,1.33H143.719c-1.139,0-2.07-.6-2.07-1.33s.931-1.33,2.07-1.33h4.138c-1.137,0-2.07-.6-2.07-1.33s.933-1.33,2.07-1.33h-2.975c-1.137,0-2.07-.6-2.07-1.33s.933-1.33,2.07-1.33h23.949c1.139,0,2.07.6,2.07,1.33s-.931,1.33-2.07,1.33h2.957c1.139,0,2.07.6,2.07,1.33S172.928,280.008,171.789,280.008Z" transform="translate(-79.315 -215.258)" fill="#ff6366" opacity="0.1"/>
    <path id="Path_2237" data-name="Path 2237" d="M325.634,181.35,96.067,184.941a42.206,42.206,0,0,0-5.5,15.245H321.611a44.684,44.684,0,0,0,3.325-9.717A29.613,29.613,0,0,0,325.634,181.35ZM137.181,193.115h-4.14c1.139,0,2.07.6,2.07,1.33s-.931,1.33-2.07,1.33H109.1c-1.139,0-2.07-.6-2.07-1.33s.931-1.33,2.07-1.33h4.14c-1.139,0-2.07-.6-2.07-1.33s.931-1.33,2.07-1.33h-2.968c-1.139,0-2.07-.6-2.07-1.33s.931-1.33,2.07-1.33h23.938c1.137,0,2.068.6,2.068,1.33s-.931,1.33-2.068,1.33h2.957c1.137,0,2.068.6,2.068,1.33S138.32,193.115,137.181,193.115Z" transform="translate(-81.23 -148.398)" fill="#ff6366" opacity="0.1"/>
    <rect id="Rectangle_16890" data-name="Rectangle 16890" width="1.235" height="68.058" transform="translate(128.719 58.497)" fill="#535f89"/>
    <path id="Path_2238" data-name="Path 2238" d="M625.675,616.356a3.221,3.221,0,0,1-3.952,0c-.552-3.642.849-10.8,1.179-12.412l.069-.324h1.6a1.109,1.109,0,0,1,.246.37C625.9,606.324,625.675,616.356,625.675,616.356Z" transform="translate(-494.553 -477.072)" fill="#535f89"/>
    <path id="Path_2239" data-name="Path 2239" d="M631.155,596.907v1.469h-.665v-1.469a1.914,1.914,0,0,1,.323-.027A2.2,2.2,0,0,1,631.155,596.907Z" transform="translate(-501.477 -471.826)" opacity="0.1"/>
    <path id="Path_2240" data-name="Path 2240" d="M629.405,604.043a1.882,1.882,0,0,1-.913.222,1.807,1.807,0,0,1-.982-.262l.069-.323h1.592A1.1,1.1,0,0,1,629.405,604.043Z" transform="translate(-499.157 -477.119)" opacity="0.1"/>
    <ellipse id="Ellipse_133" data-name="Ellipse 133" cx="1.332" cy="0.791" rx="1.332" ry="0.791" transform="translate(128.003 125.307)" fill="#dce2ed"/>
    <path id="Path_2241" data-name="Path 2241" d="M557.1,197.888l4.69-2.245,6.915,1.654-5.366-4.056Z" transform="translate(-433.619 -150.354)" fill="#ff6366"/>
    <path id="Path_2242" data-name="Path 2242" d="M558.472,207.043l-1.372-.718,4.69-2.245,6.915,1.654-1.217.592-5.7-1.279Z" transform="translate(-433.619 -158.791)" fill="#ff6366"/>
    <path id="Path_2243" data-name="Path 2243" d="M558.472,207.043l-1.372-.718,4.69-2.245,6.915,1.654-1.217.592-5.7-1.279Z" transform="translate(-433.619 -158.791)" opacity="0.1"/>
    <path id="Path_2244" data-name="Path 2244" d="M562.45,208.156l3.775,10.577H568.1l3.5-11.233-5.637-1.31Z" transform="translate(-437.783 -160.434)" fill="#ff6366" opacity="0.2"/>
    <path id="Path_2245" data-name="Path 2245" d="M578.689,246.758l-.745,2.4-.182.579h-1.871l-.14-.392-.882-2.471,1.416-.851Z" transform="translate(-447.45 -191.435)" fill="#ff6366"/>
    <path id="Path_2246" data-name="Path 2246" d="M566.608,208.44l.893,12.044h-.623l-3.588-10.047Z" transform="translate(-438.437 -162.185)" fill="#ff6366" opacity="0.2"/>
    <path id="Path_2247" data-name="Path 2247" d="M563.34,193.24l-1.549,2.4-4.69,2.245Z" transform="translate(-433.619 -150.354)" opacity="0.1"/>
    <path id="Path_2248" data-name="Path 2248" d="M629.472,292.185l-.18.578H627.42l-.14-.392a1.567,1.567,0,0,1,1.2-.443A1.8,1.8,0,0,1,629.472,292.185Z" transform="translate(-498.978 -234.463)" opacity="0.1"/>
    <path id="Path_2249" data-name="Path 2249" d="M631.147,296.6v1.031h-.175a2.053,2.053,0,0,1-.492-.058V296.6Z" transform="translate(-501.469 -238.103)" opacity="0.1"/>
    <ellipse id="Ellipse_134" data-name="Ellipse 134" cx="1.332" cy="0.791" rx="1.332" ry="0.791" transform="translate(128.169 57.706)" fill="#dce2ed"/>
    <rect id="Rectangle_16891" data-name="Rectangle 16891" width="0.816" height="44.995" transform="translate(177.116 91.598)" fill="#535f89"/>
    <path id="Path_2250" data-name="Path 2250" d="M845.224,657.333a2.128,2.128,0,0,1-2.611,0c-.366-2.407.561-7.142.778-8.2.029-.14.046-.222.046-.222h1.044a.738.738,0,0,1,.164.244C845.368,650.7,845.224,657.333,845.224,657.333Z" transform="translate(-666.517 -512.324)" fill="#535f89"/>
    <path id="Path_2251" data-name="Path 2251" d="M848.813,644.487v.973h-.443v-.973a1.115,1.115,0,0,1,.222-.018A1.479,1.479,0,0,1,848.813,644.487Z" transform="translate(-671.063 -508.867)" opacity="0.1"/>
    <path id="Path_2252" data-name="Path 2252" d="M847.675,649.12a1.264,1.264,0,0,1-.6.142,1.22,1.22,0,0,1-.65-.171c.029-.14.047-.222.047-.222h1.044A.74.74,0,0,1,847.675,649.12Z" transform="translate(-669.546 -512.292)" opacity="0.1"/>
    <ellipse id="Ellipse_135" data-name="Ellipse 135" cx="0.88" cy="0.523" rx="0.88" ry="0.523" transform="translate(176.644 135.769)" fill="#dce2ed"/>
    <path id="Path_2253" data-name="Path 2253" d="M783.46,369.522l3.1-1.485,4.573,1.095-3.549-2.682Z" transform="translate(-609.806 -285.172)" fill="#ff6366"/>
    <path id="Path_2254" data-name="Path 2254" d="M784.366,375.569l-.906-.474,3.1-1.485,4.573,1.095-.8.39-3.768-.845Z" transform="translate(-609.806 -290.745)" fill="#ff6366"/>
    <path id="Path_2255" data-name="Path 2255" d="M784.366,375.569l-.906-.474,3.1-1.485,4.573,1.095-.8.39-3.768-.845Z" transform="translate(-609.806 -290.745)" opacity="0.1"/>
    <path id="Path_2256" data-name="Path 2256" d="M786.99,376.309l2.5,6.993h1.239l2.309-7.425-3.726-.867Z" transform="translate(-612.554 -291.835)" fill="#ff6366" opacity="0.2"/>
    <path id="Path_2257" data-name="Path 2257" d="M797.735,401.836l-.492,1.587-.12.383h-1.239l-.091-.259-.583-1.634.936-.563Z" transform="translate(-618.952 -312.336)" fill="#ff6366"/>
    <path id="Path_2258" data-name="Path 2258" d="M789.744,376.5l.592,7.962h-.414l-2.372-6.643Z" transform="translate(-612.99 -292.994)" fill="#ff6366" opacity="0.2"/>
    <path id="Path_2259" data-name="Path 2259" d="M787.585,366.45l-1.024,1.587-3.1,1.485Z" transform="translate(-609.806 -285.172)" opacity="0.1"/>
    <path id="Path_2260" data-name="Path 2260" d="M847.72,443.008l-.12.381h-1.237l-.093-.259a1.037,1.037,0,0,1,.793-.3A1.188,1.188,0,0,1,847.72,443.008Z" transform="translate(-669.429 -351.922)" opacity="0.1"/>
    <path id="Path_2261" data-name="Path 2261" d="M848.829,445.909v.678h-.115a1.365,1.365,0,0,1-.324-.038V445.9Z" transform="translate(-671.079 -354.311)" opacity="0.1"/>
    <ellipse id="Ellipse_136" data-name="Ellipse 136" cx="0.88" cy="0.523" rx="0.88" ry="0.523" transform="translate(176.755 91.075)" fill="#dce2ed"/>
    <ellipse id="Ellipse_137" data-name="Ellipse 137" cx="98.634" cy="9.753" rx="98.634" ry="9.753" transform="translate(0 165.439)" fill="#ff6366" opacity="0.1"/>
    <path id="Path_2262" data-name="Path 2262" d="M201.015,185.427s-19.771-.831-21.852-39.542,18.523-45.268,18.523-45.268,6.528-3.646,9.422-3.8,12.57.76,12.57.76l-10.666-2.057s15.008-5.712,19.505-6.169l-16.225,3.427s-.222-8.988,3.657-11.958c0,0-3.325-.248-5.078,6.226a12.368,12.368,0,0,1-7.408,8.312c-6.018,2.347-14.339,6.053-16.234,9.227,0,0-3.5,3.657-2.97-5.865s3.045-17.674,3.961-17.9c0,0,7.159-7.616,17.216-8.072,0,0-5.865-2.363-15.768,5.027,0,0-.838-3.733,2.895-8.152s9.531-13.711,15.844-14.7c0,0-8.835-.534-15.844,10.892,0,0-2.591,1.676-2.819-2.589a52.611,52.611,0,0,0-1.751-9.6s-2.134,9.828,2.361,14.245c0,0-8.609,11.2-8.228,23.768,0,0-2.66,5.712-3.655-.991,0,0-.574-9.232-1.72-17.067a23.189,23.189,0,0,1,4.863-17.889c1.9-2.369,3.229-4.67,2.494-5.878L174.133,61.7s-8.389-19.419-14.483-23.6-6.856-5.1-6.856-5.1l9.826,11.5-12.339-4.358,12.339,5.712s5.714,4.655,8.99,17.368,3.58,20.642,3.58,20.642-17.6-13.94-20.948-13.483L165.628,79a27.123,27.123,0,0,1,10.7,19.8h0s-22.014-5.637-27.347-6.7L138.931,81.81l7.618,9.753-15.693-.222-8.988-6.4s7.093,5.942,6.4,6.324-11.045.838-11.045.838,26.356-.153,29.258,1.751,9.369,2.591,9.369,2.591l-18.663,2.817,22.245-1.6s16.834,3.045,17.748,8.3c0,0-3.429,8.946-5.712,12.492-1.9,2.948-5.714,12.492-6.474,20.873s-1.829,21.252,1.066,29.1,3.961,12.341,2.514,14.7-2.819,5.408,1.9,6.018,25.443-.3,25.443-.3S202.236,190.088,201.015,185.427Z" transform="translate(-101.973 -32.93)" fill="#dea3a2"/>
    <path id="Path_2263" data-name="Path 2263" d="M385.33,698.127a9.953,9.953,0,0,0-6.718-.84,40.493,40.493,0,0,1-10.362.3" transform="translate(-297.362 -549.786)" opacity="0.1"/>
    <path id="Path_2264" data-name="Path 2264" d="M388.39,496.14s-.944,14.89.734,17.827Z" transform="translate(-312.832 -393.415)" opacity="0.1"/>
    <path id="Path_2265" data-name="Path 2265" d="M373.6,576.57s1.21,13.946,2.048,16.672S373.6,576.57,373.6,576.57Z" transform="translate(-301.526 -456.018)" opacity="0.1"/>
    <path id="Path_2266" data-name="Path 2266" d="M354.622,421.86c-.858.315-4.528,7.758-3.792,9.963S354.622,421.86,354.622,421.86Z" transform="translate(-283.728 -335.599)" opacity="0.1"/>
    <path id="Path_2267" data-name="Path 2267" d="M403.883,387c-.4.18-2.106,4.468-1.773,5.736S403.883,387,403.883,387Z" transform="translate(-323.684 -308.466)" opacity="0.1"/>
    <path id="Path_2268" data-name="Path 2268" d="M338.56,499.81a55.82,55.82,0,0,1,.386,10.617,40.925,40.925,0,0,0,.115,8.075" transform="translate(-274.253 -396.272)" opacity="0.1"/>
    <path id="Path_2269" data-name="Path 2269" d="M539.043,272.66a3.451,3.451,0,0,0-.714,2.192c-.025.785.075,1.569.024,2.352-.055.822-.443,1.789-1.263,1.9" transform="translate(-428.779 -219.469)" opacity="0.1"/>
    <path id="Path_2270" data-name="Path 2270" d="M456.241,156.35a19.8,19.8,0,0,0-2.757,3.422,8.169,8.169,0,0,1-.782,1.108,13.534,13.534,0,0,1-1.512,1.239,7.114,7.114,0,0,0-2.409,3.768" transform="translate(-360.042 -128.939)" opacity="0.1"/>
    <path id="Path_2271" data-name="Path 2271" d="M302.78,55.93a4.925,4.925,0,0,0,.977,1.308c.346.328.74.607,1.053.966a7.657,7.657,0,0,1,.665.993,26.315,26.315,0,0,0,2.817,3.546" transform="translate(-246.403 -50.778)" opacity="0.1"/>
    <path id="Path_2272" data-name="Path 2272" d="M380.17,155.35a2.283,2.283,0,0,0-.813,2.061,5.908,5.908,0,0,1-.14,2.3c-.131.328-.344.616-.481.94a4.349,4.349,0,0,0-.222,1.791c.011.7.033,1.4.064,2.1a3.633,3.633,0,0,0,.689,2.378" transform="translate(-305.347 -128.161)" opacity="0.1"/>
    <path id="Path_2273" data-name="Path 2273" d="M361.09,254a9.068,9.068,0,0,1,1.709,1.177,3.067,3.067,0,0,1,.993,1.773c.038.295.018.6.084.887a2.8,2.8,0,0,0,.583,1.071,14.722,14.722,0,0,0,1.443,1.6" transform="translate(-291.789 -204.945)" fill="none"/>
    <path id="Path_2274" data-name="Path 2274" d="M358.008,334.13a10.386,10.386,0,0,0-1.379-.958,5.729,5.729,0,0,0-1.416-.623,15.176,15.176,0,0,0-2.341-.253,3.25,3.25,0,0,1-2.132-.887" transform="translate(-283.733 -265.197)" opacity="0.1"/>
    <path id="Path_2275" data-name="Path 2275" d="M243.79,300.26a6.274,6.274,0,0,1,2.713.483c.421.222.787.528,1.2.758a3.625,3.625,0,0,0,1.749.454" transform="translate(-200.488 -240.952)" opacity="0.1"/>
    <path id="Path_2276" data-name="Path 2276" d="M293.06,317.27a.514.514,0,0,0-.665.155c-.164.191-.255.443-.426.621a1.92,1.92,0,0,1-1.39.426" transform="translate(-236.908 -254.136)" opacity="0.1"/>
    <path id="Path_2277" data-name="Path 2277" d="M325.68,228.69l.887.468a15.756,15.756,0,0,1,2.631,1.6" transform="translate(-264.228 -185.245)" opacity="0.1"/>
    <path id="Path_2278" data-name="Path 2278" d="M371.6,267.931c.585-.14,1.091.485,1.195,1.077a17.18,17.18,0,0,0,.148,1.8,3.349,3.349,0,0,0,.887,1.314" transform="translate(-299.969 -215.773)" opacity="0.1"/>
    <path id="Path_2279" data-name="Path 2279" d="M413.14,272.89c.534,1.591-.6,3.325-.266,4.972.1.5.332.966.443,1.465a4.456,4.456,0,0,1-1.077,3.739" transform="translate(-331.602 -219.648)" opacity="0.1"/>
    <rect id="Rectangle_16892" data-name="Rectangle 16892" width="1.54" height="84.954" transform="translate(48.151 40.331)" fill="#535f89"/>
    <path id="Path_2280" data-name="Path 2280" d="M261.346,613.81a4.016,4.016,0,0,1-4.932,0c-.687-4.546,1.06-13.481,1.472-15.485l.086-.406h1.973a1.463,1.463,0,0,1,.308.461C261.618,601.289,261.346,613.81,261.346,613.81Z" transform="translate(-210.191 -472.635)" fill="#535f89"/>
    <path id="Path_2281" data-name="Path 2281" d="M268.151,589.523v1.835h-.831v-1.837a2.4,2.4,0,0,1,.406-.031A2.656,2.656,0,0,1,268.151,589.523Z" transform="translate(-218.803 -466.074)" opacity="0.1"/>
    <path id="Path_2282" data-name="Path 2282" d="M265.977,598.381a2.359,2.359,0,0,1-1.139.268,2.274,2.274,0,0,1-1.228-.324l.086-.406h1.973A1.463,1.463,0,0,1,265.977,598.381Z" transform="translate(-215.915 -472.635)" opacity="0.1"/>
    <ellipse id="Ellipse_138" data-name="Ellipse 138" cx="1.662" cy="0.986" rx="1.662" ry="0.986" transform="translate(47.26 123.729)" fill="#dce2ed"/>
    <path id="Path_2283" data-name="Path 2283" d="M187.74,99.593l5.856-2.8,8.633,2.064-6.7-5.062Z" transform="translate(-146.127 -72.947)" fill="#ff6366"/>
    <path id="Path_2284" data-name="Path 2284" d="M189.453,111.019l-1.713-.9,5.856-2.8,8.633,2.064-1.521.74-7.113-1.6Z" transform="translate(-146.127 -83.478)" fill="#ff6366"/>
    <path id="Path_2285" data-name="Path 2285" d="M189.453,111.019l-1.713-.9,5.856-2.8,8.633,2.064-1.521.74-7.113-1.6Z" transform="translate(-146.127 -83.478)" opacity="0.1"/>
    <path id="Path_2286" data-name="Path 2286" d="M194.42,112.414l4.712,13.2h2.336l4.362-14.019L198.8,109.96Z" transform="translate(-151.327 -85.533)" fill="#ff6366" opacity="0.2"/>
    <path id="Path_2287" data-name="Path 2287" d="M214.7,160.6l-.933,2.995-.224.723H211.2l-.175-.49-1.1-3.083,1.767-1.064Z" transform="translate(-163.399 -124.232)" fill="#ff6366"/>
    <path id="Path_2288" data-name="Path 2288" d="M199.613,112.77l1.115,15.032h-.778l-4.48-12.541Z" transform="translate(-152.144 -87.72)" fill="#ff6366" opacity="0.2"/>
    <path id="Path_2289" data-name="Path 2289" d="M195.529,93.79l-1.933,3-5.856,2.8Z" transform="translate(-146.127 -72.947)" opacity="0.1"/>
    <path id="Path_2290" data-name="Path 2290" d="M266.065,209.108l-.222.723H263.5l-.173-.49a1.948,1.948,0,0,1,1.5-.563A2.259,2.259,0,0,1,266.065,209.108Z" transform="translate(-215.697 -169.746)" opacity="0.1"/>
    <path id="Path_2291" data-name="Path 2291" d="M268.136,214.64v1.286c-.071,0-.144.011-.222.011a2.577,2.577,0,0,1-.614-.073V214.64Z" transform="translate(-218.788 -174.31)" opacity="0.1"/>
    <ellipse id="Ellipse_139" data-name="Ellipse 139" cx="1.662" cy="0.986" rx="1.662" ry="0.986" transform="translate(47.466 39.344)" fill="#dce2ed"/>
    <ellipse id="Ellipse_140" data-name="Ellipse 140" cx="3.728" cy="0.629" rx="3.728" ry="0.629" transform="translate(198.864 151.858)" fill="#ff6366" opacity="0.1"/>
    <path id="Path_2292" data-name="Path 2292" d="M951.16,703.4a7.791,7.791,0,0,0,2.766-.523c.64-.457,3.271-1,3.429-.268s3.2,3.639.8,3.66-5.579-.375-6.217-.765S951.16,703.4,951.16,703.4Z" transform="translate(-751.07 -553.844)" fill="#a8a8a8"/>
    <path id="Path_2293" data-name="Path 2293" d="M958.232,710.045c-2.4.02-5.577-.375-6.206-.765-.485-.3-.681-1.361-.745-1.851h-.071s.133,1.713.773,2.1,3.817.782,6.217.765c.694,0,.931-.253.92-.619C959.012,709.9,958.748,710.041,958.232,710.045Z" transform="translate(-751.109 -557.873)" opacity="0.2"/>
    <ellipse id="Ellipse_141" data-name="Ellipse 141" cx="2.868" cy="0.485" rx="2.868" ry="0.485" transform="translate(221.344 144.661)" fill="#ff6366" opacity="0.1"/>
    <path id="Path_2294" data-name="Path 2294" d="M1051.3,674.255a6.022,6.022,0,0,0,2.13-.4c.494-.35,2.516-.771,2.638-.208s2.46,2.8.612,2.815a15.633,15.633,0,0,1-4.783-.587C1051.4,675.571,1051.3,674.255,1051.3,674.255Z" transform="translate(-829.014 -531.362)" fill="#a8a8a8"/>
    <path id="Path_2295" data-name="Path 2295" d="M1056.713,679.362a15.635,15.635,0,0,1-4.783-.587c-.375-.222-.525-1.048-.574-1.425h-.055s.1,1.319.6,1.618a15.645,15.645,0,0,0,4.783.587c.534,0,.718-.193.707-.474C1057.313,679.254,1057.11,679.36,1056.713,679.362Z" transform="translate(-829.014 -534.46)" opacity="0.2"/>
    <ellipse id="Ellipse_142" data-name="Ellipse 142" cx="6.847" cy="1.157" rx="6.847" ry="1.157" transform="translate(204.35 174.644)" fill="#ff6366" opacity="0.1"/>
    <path id="Path_2296" data-name="Path 2296" d="M980.53,794.144s3.906-.122,5.082-.96,6.009-1.84,6.3-.494,5.869,6.685,1.458,6.72-10.245-.685-11.408-1.4S980.53,794.144,980.53,794.144Z" transform="translate(-773.93 -623.723)" fill="#a8a8a8"/>
    <path id="Path_2297" data-name="Path 2297" d="M993.452,806.336c-4.411.035-10.247-.687-11.422-1.4-.887-.545-1.25-2.5-1.37-3.4h-.131s.248,3.156,1.434,3.872,7.011,1.438,11.419,1.4c1.274,0,1.713-.461,1.689-1.133C994.884,806.067,994.4,806.329,993.452,806.336Z" transform="translate(-773.93 -631.115)" opacity="0.2"/>
    <path id="Path_2298" data-name="Path 2298" d="M627.055,272.751s11.355-.479,12.55-22.71-10.639-26-10.639-26-3.748-2.095-5.411-2.181-7.219.443-7.219.443l6.124-1.181s-8.618-3.28-11.2-3.546l9.309,1.968s.131-5.162-2.1-6.871c0,0,1.9-.142,2.917,3.575a7.093,7.093,0,0,0,4.253,4.774c3.458,1.35,8.237,3.478,9.325,5.3,0,0,2.013,2.1,1.7-3.369s-1.749-10.152-2.274-10.282c0,0-4.111-4.373-9.888-4.637,0,0,3.369-1.354,9.057,2.881,0,0,.481-2.143-1.662-4.681s-5.468-7.875-9.1-8.443c0,0,5.076-.308,9.1,6.255,0,0,1.487.962,1.618-1.487a30.146,30.146,0,0,1,1.006-5.512s1.226,5.643-1.357,8.181c0,0,4.945,6.428,4.726,13.651,0,0,1.532,3.28,2.1-.57,0,0,.328-5.3.986-9.8a13.328,13.328,0,0,0-2.793-10.276c-1.093-1.359-1.855-2.682-1.432-3.376l5.732,6.825s4.812-11.156,8.312-13.563a29.575,29.575,0,0,0,3.939-2.93L649.1,191.8,656.2,189.3l-7.093,3.283s-3.28,2.66-5.162,9.974a62.523,62.523,0,0,0-2.057,11.856s10.1-7.99,12.033-7.738l-6.541,4.945A15.585,15.585,0,0,0,641.229,223h0s12.634-3.238,15.708-3.85l5.763-5.907-4.364,5.6,9.013-.131,5.164-3.675s-4.069,3.413-3.682,3.633,6.346.481,6.346.481-15.139-.086-16.8,1.006-5.382,1.487-5.382,1.487l10.724,1.631-12.776-.92s-9.668,1.751-10.2,4.77a56.992,56.992,0,0,0,3.283,7.175,33.3,33.3,0,0,1,3.717,11.987c.437,4.812,1.051,12.206-.612,16.712s-2.274,7.093-1.443,8.445,1.618,3.1-1.095,3.456-14.613-.175-14.613-.175S626.352,275.428,627.055,272.751Z" transform="translate(-486.509 -151.387)" fill="#dea3a2"/>
    <path id="Path_2299" data-name="Path 2299" d="M711.21,567.275a5.709,5.709,0,0,1,3.854-.481,23.562,23.562,0,0,0,5.951.173" transform="translate(-564.305 -448.298)" opacity="0.1"/>
    <path id="Path_2300" data-name="Path 2300" d="M741.891,451.26s.541,8.553-.421,10.238Z" transform="translate(-587.858 -358.483)" opacity="0.1"/>
    <path id="Path_2301" data-name="Path 2301" d="M747.957,497.45s-.694,8.01-1.175,9.577S747.957,497.45,747.957,497.45Z" transform="translate(-591.924 -394.435)" opacity="0.1"/>
    <path id="Path_2302" data-name="Path 2302" d="M755.45,408.6c.492.182,2.6,4.457,2.179,5.721S755.45,408.6,755.45,408.6Z" transform="translate(-598.739 -325.278)" opacity="0.1"/>
    <path id="Path_2303" data-name="Path 2303" d="M731.34,388.58a6.816,6.816,0,0,1,1.013,3.294C732.156,392.6,731.34,388.58,731.34,388.58Z" transform="translate(-579.973 -309.696)" opacity="0.1"/>
    <path id="Path_2304" data-name="Path 2304" d="M771.508,453.37a32.527,32.527,0,0,0-.222,6.1,23.375,23.375,0,0,1-.067,4.637" transform="translate(-611.013 -360.125)" opacity="0.1"/>
    <path id="Path_2305" data-name="Path 2305" d="M653.43,322.91a1.993,1.993,0,0,1,.412,1.259c.016.443-.044.9-.016,1.35s.257,1.026.727,1.091" transform="translate(-519.332 -258.581)" opacity="0.1"/>
    <path id="Path_2306" data-name="Path 2306" d="M689.89,256.1a11.351,11.351,0,0,1,1.576,1.973,4.622,4.622,0,0,0,.443.641,7.324,7.324,0,0,0,.869.711,4.092,4.092,0,0,1,1.383,2.17" transform="translate(-547.71 -206.58)" opacity="0.1"/>
    <path id="Path_2307" data-name="Path 2307" d="M781.94,198.43a2.867,2.867,0,0,1-.561.751c-.2.188-.426.348-.605.554a4.363,4.363,0,0,0-.388.57,15.407,15.407,0,0,1-1.616,2.044" transform="translate(-616.89 -161.692)" opacity="0.1"/>
    <path id="Path_2308" data-name="Path 2308" d="M745.28,255.53a1.316,1.316,0,0,1,.468,1.184,3.391,3.391,0,0,0,.082,1.33c.075.188.2.355.275.541a2.532,2.532,0,0,1,.131,1.026c0,.4-.02.807-.038,1.208a2.1,2.1,0,0,1-.395,1.368" transform="translate(-590.823 -206.136)" opacity="0.1"/>
    <path id="Path_2309" data-name="Path 2309" d="M749.874,312.16a5.249,5.249,0,0,0-.982.665,1.76,1.76,0,0,0-.57,1.024c-.022.168-.011.341-.049.508a1.615,1.615,0,0,1-.335.614,8.318,8.318,0,0,1-.829.918" transform="translate(-592.247 -250.214)" fill="none"/>
    <path id="Path_2310" data-name="Path 2310" d="M746.69,358.275a6.234,6.234,0,0,1,.791-.55,3.352,3.352,0,0,1,.816-.359,8.767,8.767,0,0,1,1.343-.133,1.9,1.9,0,0,0,1.226-.5" transform="translate(-591.921 -284.905)" opacity="0.1"/>
    <path id="Path_2311" data-name="Path 2311" d="M815.6,338.76a3.555,3.555,0,0,0-1.552.277c-.242.124-.443.3-.689.443a2.066,2.066,0,0,1-1,.261" transform="translate(-643.035 -270.918)" opacity="0.1"/>
    <path id="Path_2312" data-name="Path 2312" d="M793.65,348.546a.3.3,0,0,1,.383.089c.1.109.146.25.246.357a1.089,1.089,0,0,0,.8.244" transform="translate(-628.472 -278.508)" opacity="0.1"/>
    <path id="Path_2313" data-name="Path 2313" d="M772.829,297.66l-.512.266a9.08,9.08,0,0,0-1.507.92" transform="translate(-610.695 -238.928)" opacity="0.1"/>
    <path id="Path_2314" data-name="Path 2314" d="M749.067,320.181c-.337-.08-.627.279-.687.621s0,.7-.086,1.031a1.931,1.931,0,0,1-.5.756" transform="translate(-592.777 -256.448)" opacity="0.1"/>
    <path id="Path_2315" data-name="Path 2315" d="M727.318,323c-.306.913.344,1.911.153,2.855-.058.288-.191.556-.259.842a2.563,2.563,0,0,0,.618,2.148" transform="translate(-576.72 -258.652)" opacity="0.1"/>
    <path id="Path_2316" data-name="Path 2316" d="M381.005,405.72c-3.639,4.907-6.636,19.343-7.476,23.694l-6.339-.25c.4-3.744,8.064-18.86,10.2-23.007C378.527,406,379.749,405.849,381.005,405.72Z" transform="translate(-296.537 -323.037)" fill="#ff6366"/>
    <rect id="Rectangle_16893" data-name="Rectangle 16893" width="2.811" height="3.959" transform="translate(160.858 80.941)" fill="#dce0ed"/>
    <path id="Path_2317" data-name="Path 2317" d="M776.978,397.86v1.288a2.165,2.165,0,0,1-.61.082l-2.2-.018V397.86Z" transform="translate(-613.31 -316.919)" opacity="0.1"/>
    <path id="Path_2318" data-name="Path 2318" d="M768.81,352.36h2.66a3.185,3.185,0,0,1,2.95,1.995,8.994,8.994,0,0,1-.295,7.979,2.19,2.19,0,0,1-1.922,1.108l-3.387-.029Z" transform="translate(-609.138 -281.504)" fill="#dce0ed"/>
    <ellipse id="Ellipse_143" data-name="Ellipse 143" cx="2.842" cy="5.526" rx="2.842" ry="5.526" transform="translate(156.831 70.858)" fill="#f0f0f4"/>
    <rect id="Rectangle_16894" data-name="Rectangle 16894" width="2.811" height="3.464" transform="translate(135.9 80.988)" fill="#dce0ed"/>
    <path id="Path_2319" data-name="Path 2319" d="M664.371,398.07v1.108a2.162,2.162,0,0,1-.612.082l-2.2-.02v-1.164Z" transform="translate(-525.66 -317.082)" opacity="0.1"/>
    <path id="Path_2320" data-name="Path 2320" d="M656.21,352.58h2.66a3.179,3.179,0,0,1,2.948,1.995,8.987,8.987,0,0,1-.292,7.979,2.195,2.195,0,0,1-1.924,1.108l-3.385-.031Z" transform="translate(-521.496 -281.675)" fill="#dce0ed"/>
    <ellipse id="Ellipse_144" data-name="Ellipse 144" cx="2.842" cy="5.526" rx="2.842" ry="5.526" transform="translate(131.873 70.905)" fill="#f0f0f4"/>
    <path id="Path_2321" data-name="Path 2321" d="M657.091,361.69s-1.049.168-.5,1.552a9.461,9.461,0,0,1,.627,2.095s1.048.545,1.006-1.257A2.694,2.694,0,0,0,657.091,361.69Z" transform="translate(-521.667 -288.766)" fill="#dce0ed"/>
    <ellipse id="Ellipse_145" data-name="Ellipse 145" cx="16.577" cy="18.169" rx="16.577" ry="18.169" transform="translate(12.37 133.716)" fill="#636780"/>
    <path id="Path_2322" data-name="Path 2322" d="M152.464,641.07c-8.673.583-15.544,8.478-15.544,18.133,0,7.782,4.464,14.421,10.739,17.007,8.675-.583,15.547-8.478,15.547-18.133C163.206,650.3,158.739,643.657,152.464,641.07Z" transform="translate(-117.306 -506.221)" opacity="0.1"/>
    <ellipse id="Ellipse_146" data-name="Ellipse 146" cx="13.454" cy="17.544" rx="13.454" ry="17.544" transform="translate(145.234 94.63)" fill="#636780"/>
    <path id="Path_2323" data-name="Path 2323" d="M713.505,462.93c-5.581,2.139-9.655,8.866-9.655,16.834,0,8.516,4.655,15.613,10.825,17.209,5.579-2.139,9.655-8.866,9.655-16.834C724.33,471.623,719.676,464.526,713.505,462.93Z" transform="translate(-558.576 -367.566)" opacity="0.1"/>
    <path id="Path_2324" data-name="Path 2324" d="M509.548,487.56l.25-6.368s-1.25-2.748-2.5-3-4.12-.406-4.12-.406-2.247,9.145-.749,11.894S509.548,487.56,509.548,487.56Z" transform="translate(-401.401 -379.132)" fill="#ff6366"/>
    <path id="Path_2325" data-name="Path 2325" d="M509.548,487.56l.25-6.368s-1.25-2.748-2.5-3-4.12-.406-4.12-.406-2.247,9.145-.749,11.894S509.548,487.56,509.548,487.56Z" transform="translate(-401.401 -379.132)" opacity="0.1"/>
    <path id="Path_2326" data-name="Path 2326" d="M432.251,485.525s-.774-8.83,4.078-8.99c.625-.02,1.25-.036,1.873-.1,3.362-.326,12.537-1.033,11.437,1.062,0,0-2.185,7.68-.687,9.615Z" transform="translate(-347.142 -377.784)" fill="#ff6366"/>
    <path id="Path_2327" data-name="Path 2327" d="M738.58,521.444l6.508.188s1.124-11.989,1.5-12.924.563-5.433-.654-6.087a31.468,31.468,0,0,0-5.289-1.452l-3,6.833-.233,6.182Z" transform="translate(-584.698 -397.33)" fill="#ff6366"/>
    <path id="Path_2328" data-name="Path 2328" d="M738.58,521.444l6.508.188s1.124-11.989,1.5-12.924.563-5.433-.654-6.087a31.468,31.468,0,0,0-5.289-1.452l-3,6.833-.233,6.182Z" transform="translate(-584.698 -397.33)" opacity="0.1"/>
    <path id="Path_2329" data-name="Path 2329" d="M631.086,495.432l-.029-1.33a.769.769,0,0,1,.8-.785c3.227.135,14.966.7,17.021,1.747,0,0-2.248,16.717.235,20.7l-.842,13.392L619.52,527Z" transform="translate(-492.938 -391.217)" fill="#ff6366"/>
    <path id="Path_2330" data-name="Path 2330" d="M661.56,406.738c.8-.08,1.749-.164,2.811-.248v1.6H661.56Z" transform="translate(-525.66 -323.636)" opacity="0.1"/>
    <path id="Path_2331" data-name="Path 2331" d="M776.978,411.243v.2H774.17V410.23A12,12,0,0,1,776.978,411.243Z" transform="translate(-613.31 -326.547)" opacity="0.1"/>
    <path id="Path_2332" data-name="Path 2332" d="M331.435,482.632a.262.262,0,0,1,.106-.166.376.376,0,0,1,.193-.018h0v.113h0a4.333,4.333,0,0,0-.4.41C331.373,482.858,331.4,482.745,331.435,482.632Zm10.172-2.983a.4.4,0,0,0,0-.047,9.842,9.842,0,0,1,.485-1.037A10.079,10.079,0,0,0,341.606,479.648Zm1.516-2.868c-.239.357-.53.818-.816,1.352A6.283,6.283,0,0,1,343.122,476.78ZM303.52,507.8c1.128.044,2.068.024,2.068.024A8.309,8.309,0,0,1,303.52,507.8Zm2.07.022a2.361,2.361,0,0,1,1.432-.173A3.946,3.946,0,0,0,305.59,507.82Zm37.86-17.049.412-7.093s-.153,3.622-.1,5.189a5.1,5.1,0,0,1-.31,1.906Z" transform="translate(-246.979 -378.346)" fill="url(#linear-gradient)"/>
    <path id="Path_2333" data-name="Path 2333" d="M350.864,593.972s-.118.364-.273.825a10.784,10.784,0,0,1-.731,1.869,10.552,10.552,0,0,1-2.095.221,6.476,6.476,0,0,1-4.415-1.4s.539-.388,1.108-.838a6.27,6.27,0,0,0,1.29-1.21,6,6,0,0,1,1.733-1.268c.264-.151.443-.248.443-.248Z" transform="translate(-277.981 -467.965)" fill="#f899a5"/>
    <path id="Path_2334" data-name="Path 2334" d="M330.357,600.475s-10.364-.476-10.983-.614a1.105,1.105,0,0,1-.745-.864c-.206-.483.887-.379.887-.379h0c.111.018,1.33.222,2.478.368h0a7.547,7.547,0,0,0,1.995.111h0a3.917,3.917,0,0,1,1.388-.111,3.286,3.286,0,0,0-2.8-2.25l.042-.042a3.487,3.487,0,0,1,.592-.443c2.112.087,3.229,3,3.229,3h.018c.239.075,2.786.865,3.292.938h0C330.279,600.269,330.357,600.475,330.357,600.475Z" transform="translate(-258.719 -471.336)" fill="#f3b4b4"/>
    <path id="Path_2335" data-name="Path 2335" d="M303.641,596.558c-.04.131-.222.222-.519.246a3.4,3.4,0,0,1-.483,0h0a10.975,10.975,0,0,1-2.882-.647c-.16-.055-.31-.1-.457-.146h-.018a6.283,6.283,0,0,0-1.077-.222,2.2,2.2,0,0,0-1.381.173h0s-.909.02-1.995-.025h0a16.209,16.209,0,0,1-2.489-.261h0c-.118-.024-.222-.053-.33-.082a2.31,2.31,0,0,1-.556-.222c-1.144-.687,2.709-1.151,2.709-1.151a2.006,2.006,0,0,0,1.166-.563l.04-.044.1-.1h0a5.325,5.325,0,0,1,.468-.364l.142-.1c.767-.519,1.8-1.073,1.8-1.073a4.377,4.377,0,0,0,1.908-1.091,2.258,2.258,0,0,0,.266-.315h0l2.13-.55,1.467,3.524s.011.191.022.477A16.764,16.764,0,0,1,303.641,596.558Z" transform="translate(-237.423 -466.494)" fill="#f899a5"/>
    <path id="Path_2336" data-name="Path 2336" d="M305.821,607.428a3.4,3.4,0,0,1-.483,0h0a10.981,10.981,0,0,1-2.882-.647c-.16-.056-.31-.1-.457-.146h-.018a6.282,6.282,0,0,0-1.077-.222,2.2,2.2,0,0,0-1.381.173h0s-.909.02-1.995-.024h0a16.194,16.194,0,0,1-2.489-.261h0c-.118-.024-.222-.053-.33-.082a2.6,2.6,0,0,1,.428-.018h0c.109.013,1.341.164,2.489.259h0a7.515,7.515,0,0,0,1.995.024h0a3.719,3.719,0,0,1,1.381-.173,3.293,3.293,0,0,0-2.892-2.125c.013-.016.029-.029.04-.045h0a3.658,3.658,0,0,1,.565-.461h.044c2.086.033,3.314,2.853,3.314,2.853h.018c.242.064,2.822.745,3.325.8h0A1.266,1.266,0,0,1,305.821,607.428Z" transform="translate(-240.122 -477.119)" opacity="0.1"/>
    <path id="Path_2337" data-name="Path 2337" d="M303.916,608.058s-10.375-.026-11-.135-.782-.833-.782-.833c-.222-.472.862-.415.862-.415h0c.109.013,1.33.164,2.489.262h0a7.731,7.731,0,0,0,1.995.025h0a3.7,3.7,0,0,1,1.381-.173,3.3,3.3,0,0,0-2.893-2.126l.04-.044a3.784,3.784,0,0,1,.572-.468c2.115,0,3.358,2.855,3.358,2.855h.018c.242.062,2.822.742,3.325.794h0C303.829,607.854,303.916,608.058,303.916,608.058Z" transform="translate(-238.095 -477.485)" fill="#f3b4b4"/>
    <path id="Path_2338" data-name="Path 2338" d="M365.349,594s-.118.363-.273.825a19.7,19.7,0,0,1-2.881-2.292,1.69,1.69,0,0,1-.235-.33c.264-.151.443-.248.443-.248Z" transform="translate(-292.466 -467.989)" opacity="0.1"/>
    <path id="Path_2339" data-name="Path 2339" d="M371.8,566.882l-.368,1.19-3.524,1.92a5.4,5.4,0,0,0-1.108,1,.994.994,0,0,1-.563.443,7.812,7.812,0,0,0-.488.678,19.713,19.713,0,0,1-2.882-2.292c-.244-.279-.361-.514-.25-.645a37.035,37.035,0,0,1,3.227-2.544s1.689-2.217,1.762-2.177a11.205,11.205,0,0,0,1.421-1.241l.341-.319Z" transform="translate(-292.941 -445.37)" fill="#bdd3e8"/>
    <path id="Path_2340" data-name="Path 2340" d="M439.985,453.557l-3.431,6.069-1.259,2.4-6.7-.977.151-.321.568-1.19.259-.545.04-.073.743-1.345.042-.055.539-.763,1.084-1.532a.981.981,0,0,0,.355-.093.838.838,0,0,0,.406-.461,5.1,5.1,0,0,0-.319-2.773s2.545-6.206,3.427-2.791a6.5,6.5,0,0,0,3.546,4.211A4.873,4.873,0,0,0,439.985,453.557Z" transform="translate(-344.328 -356.008)" fill="#f899a5"/>
    <path id="Path_2341" data-name="Path 2341" d="M428,566.92v.587s2.216,2.121,1.924,3.85a10.468,10.468,0,0,0,.326,3.883l2.23-.16-.337-7.9Z" transform="translate(-343.868 -448.507)" fill="#bdd3e8"/>
    <path id="Path_2342" data-name="Path 2342" d="M432.48,575.081l-2.23.16a10.461,10.461,0,0,1-.326-3.883c.292-1.731-1.924-3.85-1.924-3.85v-.587l4.143.262.022.514Z" transform="translate(-343.868 -448.507)" opacity="0.05"/>
    <path id="Path_2343" data-name="Path 2343" d="M369.222,564.66a18.615,18.615,0,0,0-1.955,2.121c-.785,1.044-2.121,2.544-2.121,2.544l-1.6.947-.665.645c-.244-.279-.361-.514-.25-.645a36.988,36.988,0,0,1,3.227-2.544s1.689-2.217,1.762-2.177a11.231,11.231,0,0,0,1.421-1.241Z" transform="translate(-292.957 -446.475)" opacity="0.05"/>
    <path id="Path_2344" data-name="Path 2344" d="M333.62,594.047a2.154,2.154,0,0,0-.184.177s-.033,1.042-.849-1.405-2.839-1.86-2.839-1.86a.038.038,0,0,1-.016-.045c0-.066.117-.182.266-.315h0l2.13-.55,1.467,3.524S333.609,593.76,333.62,594.047Z" transform="translate(-267.38 -466.51)" opacity="0.1"/>
    <path id="Path_2345" data-name="Path 2345" d="M341.819,545.28l-1.241.033-.849,1.208s-1.4,1.5-1.826,1.875a28.8,28.8,0,0,0-3.948,4.291s-.718.359-.718.718-1.37,1.4-1.37,1.4-1.436.978-1.241,1.108c0,0,2.024-.587,2.839,1.86s.849,1.4.849,1.4a1.907,1.907,0,0,1,.49-.386c.2-.071,1.124-1.407,1.41-1.441a1.409,1.409,0,0,0,.581-.261l1.662-1.631,1.6-.946s1.33-1.5,2.119-2.545a18.768,18.768,0,0,1,1.957-2.121Z" transform="translate(-268.063 -431.663)" fill="#bdd3e8"/>
    <path id="Path_2346" data-name="Path 2346" d="M353.22,580.91s2.217,1.075,2.121,1.3S353.22,580.91,353.22,580.91Z" transform="translate(-285.663 -459.396)" opacity="0.1"/>
    <path id="Path_2347" data-name="Path 2347" d="M361.12,579.73s.173.969,1.055.924S361.12,579.73,361.12,579.73Z" transform="translate(-291.812 -458.477)" opacity="0.1"/>
    <path id="Path_2348" data-name="Path 2348" d="M347.18,592a1,1,0,0,0,.946.652C348.942,592.749,347.18,592,347.18,592Z" transform="translate(-280.962 -468.028)" opacity="0.1"/>
    <path id="Path_2349" data-name="Path 2349" d="M384.65,580.91s1.075.444,1.173,1.06S384.65,580.91,384.65,580.91Z" transform="translate(-310.127 -459.396)" opacity="0.1"/>
    <path id="Path_2350" data-name="Path 2350" d="M372.72,591.21a5.976,5.976,0,0,1,1.591,1.671A14.988,14.988,0,0,1,372.72,591.21Z" transform="translate(-300.841 -467.413)" opacity="0.1"/>
    <path id="Path_2351" data-name="Path 2351" d="M381.33,586.754a.72.72,0,0,1,.736.155C382.365,587.219,381.33,586.754,381.33,586.754Z" transform="translate(-307.543 -463.912)" opacity="0.1"/>
    <path id="Path_2352" data-name="Path 2352" d="M403.45,536.707s-4.16-1.348-3.841,0,3.841,2.1,3.841,2.1Z" transform="translate(-321.756 -424.524)" fill="#f899a5"/>
    <path id="Path_2353" data-name="Path 2353" d="M439.985,471.988l-3.431,6.069-1.259,2.4-6.7-.978.151-.321a3.881,3.881,0,0,1,.534-.6,2.219,2.219,0,0,1,.033-.592,1.151,1.151,0,0,1,.3-.618l.027-.024a4.134,4.134,0,0,0,.758-1.377c.058-.153.089-.255.089-.255l.443-.508,1.438-1.625.406-.461.381-.43-1.365,1.942s-.652,1.175-.685,1.33-1.108,1.6-1.108,1.6-1.826,1.6,1.436,1.631,5.253-3.147,5.253-3.147l2.753-4.264A4.9,4.9,0,0,0,439.985,471.988Z" transform="translate(-344.328 -374.439)" opacity="0.1"/>
    <path id="Path_2354" data-name="Path 2354" d="M383.727,534.774l-1.279-.089-2.888-.242V534l4.145.259Z" transform="translate(-295.431 -415.585)" opacity="0.1"/>
    <path id="Path_2355" data-name="Path 2355" d="M436.711,470.21a2.174,2.174,0,0,0,1.175.685,7.842,7.842,0,0,0-1.47,2.252s-1.831,3.081-.521,4.143a6.676,6.676,0,0,0,2.07,1.272l-.4,7.093s.969,4.876,1.33,5.24a1.7,1.7,0,0,1,.262,1.175s-.237.816.011,1.108a5.639,5.639,0,0,1,.315,1.8,10.256,10.256,0,0,0-1.773-.751c-.306,0-1.108-1.534-1.108-1.534l-7.979-.554-3.509-.292.554-9.753a3.757,3.757,0,0,1,.587-4.639,1.663,1.663,0,0,1,.359-1.235,5.066,5.066,0,0,0,.849-1.631l2.675-3.023h0l-1.37,1.948s-.654,1.175-.685,1.33-1.108,1.6-1.108,1.6-1.826,1.6,1.436,1.631,5.253-3.165,5.253-3.165Z" transform="translate(-341.616 -373.232)" fill="#e6ebef"/>
    <path id="Path_2356" data-name="Path 2356" d="M465.68,528.21a4.834,4.834,0,0,0,2.349.864C469.244,529.108,465.68,528.21,465.68,528.21Z" transform="translate(-373.197 -418.377)" opacity="0.1"/>
    <path id="Path_2357" data-name="Path 2357" d="M472.3,515.545s.9-.443,1.4-.073S472.3,515.545,472.3,515.545Z" transform="translate(-378.349 -408.347)" opacity="0.1"/>
    <path id="Path_2358" data-name="Path 2358" d="M470.39,523s.058.523,1.388.588S470.39,523,470.39,523Z" transform="translate(-376.863 -414.322)" opacity="0.1"/>
    <path id="Path_2359" data-name="Path 2359" d="M462.322,473.3l.279.148a6.224,6.224,0,0,0,1.76.375,2.817,2.817,0,0,1,2.3,2.2c.049.257.089.6.122.969a19.886,19.886,0,0,1-.062,3.99,12.671,12.671,0,0,0-.157,2.15c.1.292-.539,4.845-.539,4.845s-.146,3.719-1.077,4.063-6.117.341-6.117.341l-2.2-3.817,5.138.244a5.025,5.025,0,0,0,.636-2.642c-.049-1.567.1-5.189.1-5.189s-3.1-.665-2.474-3.088A14.849,14.849,0,0,1,462.322,473.3Z" transform="translate(-366.153 -375.638)" fill="#f899a5"/>
    <path id="Path_2360" data-name="Path 2360" d="M389.441,549.332s-2.072.685-2.881.326a19.873,19.873,0,0,1-2.569-1.729s-1.13-1.108-2.205-2.347l-.137-.16h0c-.931-1.084-1.773-2.216-1.773-2.777a2.359,2.359,0,0,0-.086-.689,2.884,2.884,0,0,0-.443-.9,2.7,2.7,0,0,0-.381-.43l-3.393-4.373s.98-1.044.98-1.33a1.937,1.937,0,0,1,2.675-1.042,32.381,32.381,0,0,1,3.679,3.09c2.117,1.942,4.282,4.054,4.282,4.054s.153.164.377.419a7.991,7.991,0,0,1,1.693,2.551C389.377,544.862,389.441,549.332,389.441,549.332Z" transform="translate(-303.059 -422.598)" fill="#bdd3e8"/>
    <path id="Path_2361" data-name="Path 2361" d="M400.761,553.08c-1.607,1.6-4.025,3.746-5.781,4.151l-.047.011-.091-.171h0L392.99,553.6l-.47-.887.024-.025,3.56-4.094c2.117,1.942,4.282,4.054,4.282,4.054Z" transform="translate(-316.253 -434.247)" opacity="0.05"/>
    <path id="Path_2362" data-name="Path 2362" d="M413.059,528.112v.743s1.029,3.631-.831,4.655a11.828,11.828,0,0,1-4.692.641,4.97,4.97,0,0,1-4.905-4.089,2.97,2.97,0,0,1-.02-1.053s-.831-5.947-1.029-5.985c0,0-4.675,5.353-7.536,5.969l-2.416-4.517,3.859-4.433s2.864-4.551,3.695-4.967a6.008,6.008,0,0,0,1.665-1.583s3.354-2.8,5.579,1.926,3.671,8.538,4.211,9.954c0,0,.785,1.6,1.272,1.6h.016A1.144,1.144,0,0,1,413.059,528.112Z" transform="translate(-315.56 -406.281)" fill="#bdd3e8"/>
    <path id="Path_2363" data-name="Path 2363" d="M436.09,551.192a4.836,4.836,0,0,0,1-1.713c.37-1.077-.111,1.093-.9,1.957Z" transform="translate(-350.165 -434.703)" opacity="0.1"/>
    <path id="Path_2364" data-name="Path 2364" d="M416.419,425.651a1.63,1.63,0,0,0,.505.847,16.194,16.194,0,0,0,1.636,1.54,1.7,1.7,0,0,1,.6.689,1.083,1.083,0,0,1-.04.6,10.267,10.267,0,0,1-.869,2.159,1.33,1.33,0,0,0-.242.736c.06.581.887.906,1.49,1.29a2.425,2.425,0,0,1,1.219,2.057c-.049,1.2-1.19,2.243-1.458,3.431a5.764,5.764,0,0,0,2.157-.443,1.624,1.624,0,0,0,1.082-1.374.387.387,0,0,1,.033-.255.547.547,0,0,1,.31-.159c.592-.144,1.314-.1,1.749-.428s.335-.911.149-1.374c-.505-1.268-1.237-2.487-1.678-3.768a2.7,2.7,0,0,1-.191-1.348,4.519,4.519,0,0,1,.585-1.288,8.2,8.2,0,0,0,.971-2.957,2.753,2.753,0,0,0-.239-1.735,2.925,2.925,0,0,0-1.935-1.281c-1.665-.366-2.551.443-3.852.982C417.43,423.982,416.321,424.72,416.419,425.651Z" transform="translate(-334.849 -336.094)" fill="#4b3648"/>
    <path id="Path_2365" data-name="Path 2365" d="M419.256,438.519c.135,0,.27-.016.406-.027.277-1.177,1.4-2.216,1.45-3.4a2.427,2.427,0,0,0-1.219-2.059c-.594-.383-1.43-.709-1.489-1.288a1.341,1.341,0,0,1,.242-.738,10.256,10.256,0,0,0,.869-2.159,1.085,1.085,0,0,0,.04-.6,1.68,1.68,0,0,0-.6-.687,16.46,16.46,0,0,1-1.636-1.552,1.616,1.616,0,0,1-.505-.844c-.1-.931,1-1.671,1.979-2.081a8.372,8.372,0,0,1,2.868-1.068c-1.3-.084-2.126.59-3.265,1.068-.98.41-2.081,1.15-1.979,2.081a1.616,1.616,0,0,0,.505.844,16.433,16.433,0,0,0,1.636,1.552,1.679,1.679,0,0,1,.6.687,1.084,1.084,0,0,1-.04.6,10.25,10.25,0,0,1-.869,2.159,1.34,1.34,0,0,0-.242.738c.06.579.886.9,1.489,1.288a2.428,2.428,0,0,1,1.219,2.059C420.666,436.291,419.524,437.333,419.256,438.519Z" transform="translate(-334.848 -335.714)" opacity="0.1"/>
    <circle id="Ellipse_147" data-name="Ellipse 147" cx="5.213" cy="5.213" r="5.213" transform="translate(82.93 86.919)" opacity="0.1"/>
    <circle id="Ellipse_148" data-name="Ellipse 148" cx="5.213" cy="5.213" r="5.213" transform="translate(83.028 86.724)" fill="#f899a5"/>
    <path id="Path_2366" data-name="Path 2366" d="M427.4,416.487a2.066,2.066,0,0,1-1.108-.632,1.036,1.036,0,0,1,.027-1.31,2.292,2.292,0,0,1,.627-.273c.875-.388,1.024-1.747,1.618-2.6a1.946,1.946,0,0,1,1.8-.865,8.617,8.617,0,0,1,1.084.319c.867.235,1.793.049,2.673.208,1.729.317,3.052,1.944,3.768,3.768.33.84.561,1.729.822,2.6a34.526,34.526,0,0,0,1.419,3.857,2.709,2.709,0,0,0,.486.818c.554.565,1.534.523,1.875,1.283a2.694,2.694,0,0,1,.038,1.414,11.251,11.251,0,0,0,.408,4.794c.375,1.188,1.091,2.389,2.183,2.56a1.214,1.214,0,0,1-1.758.111,5.748,5.748,0,0,1-1.177-1.707,10.854,10.854,0,0,0-1-1.474,2.073,2.073,0,0,0-.76-.654c-.745-.3-1.536.315-2.2.851a3.789,3.789,0,0,1-1.793.942,1.441,1.441,0,0,1-1.585-.973c-.251-.849.255-1.995-.3-2.611a3.939,3.939,0,0,0-.731-.474c-.7-.5-.791-1.647-.7-2.618a5.85,5.85,0,0,0-.082-2.866,3.448,3.448,0,0,0-.887-1.108,19.506,19.506,0,0,0-5.355-3.515" transform="translate(-342.366 -326.995)" fill="#4b3648"/>
    <g id="Group_16116" data-name="Group 16116" transform="translate(83.67 83.845)" opacity="0.1">
      <path id="Path_2367" data-name="Path 2367" d="M436.862,430.474a1.441,1.441,0,0,1-1.587-.973c-.25-.847.257-1.995-.3-2.611a3.874,3.874,0,0,0-.729-.472c-.707-.5-.794-1.647-.7-2.618a5.806,5.806,0,0,0-.084-2.868,3.475,3.475,0,0,0-.887-1.108,19.5,19.5,0,0,0-5.355-3.535l.616.146a2.071,2.071,0,0,1-1.108-.632,1.039,1.039,0,0,1,.029-1.312,2.271,2.271,0,0,1,.625-.27c.887-.388,1.024-1.747,1.618-2.6a2.143,2.143,0,0,1,.747-.665,2.037,2.037,0,0,0-1.341.858c-.594.849-.74,2.216-1.618,2.6a2.3,2.3,0,0,0-.627.273,1.028,1.028,0,0,0-.027,1.31,2.139,2.139,0,0,0,1.108.632l-.614-.144a19.506,19.506,0,0,1,5.353,3.529,3.454,3.454,0,0,1,.887,1.108,5.8,5.8,0,0,1,.082,2.866,2.91,2.91,0,0,0,.7,2.618,3.726,3.726,0,0,1,.731.474c.552.618.047,1.762.3,2.611a1.441,1.441,0,0,0,1.585.973,2.3,2.3,0,0,0,.714-.222,1.076,1.076,0,0,1-.117.033Z" transform="translate(-425.919 -410.96)"/>
      <path id="Path_2368" data-name="Path 2368" d="M492.147,494.44a5.713,5.713,0,0,1-1.175-1.7,10.514,10.514,0,0,0-1.006-1.474,2.036,2.036,0,0,0-.76-.654,1.374,1.374,0,0,0-1.166.129,1.129,1.129,0,0,1,.572.069,2.056,2.056,0,0,1,.76.654,10.864,10.864,0,0,1,1,1.474,5.874,5.874,0,0,0,1.177,1.707,1.294,1.294,0,0,0,1.527.122A1.438,1.438,0,0,1,492.147,494.44Z" transform="translate(-474.271 -472.896)"/>
    </g>
    <path id="Path_2369" data-name="Path 2369" d="M751.135,472.826l-4.247.062-8.773-15.943-1.465-2.662,1.124-6.743.864,1.631Z" transform="translate(-573.372 -348.288)" fill="#dce0ed"/>
    <path id="Path_2370" data-name="Path 2370" d="M595.875,439.405l-1.747,2.622-5.227-7.066-2.392-3.236,1.436-1.935,1.1,1.334Z" transform="translate(-456.51 -334.473)" fill="#dce0ed"/>
    <path id="Path_2371" data-name="Path 2371" d="M637.476,464.052c0,.135.016.275.024.415l-.168,3.424-2.392-3.236,1.436-1.935Z" transform="translate(-504.94 -367.403)" opacity="0.1"/>
    <path id="Path_2372" data-name="Path 2372" d="M738.638,449.171l-.523,7.773-1.465-2.662,1.124-6.743Z" transform="translate(-573.372 -348.288)" opacity="0.1"/>
    <path id="Path_2373" data-name="Path 2373" d="M623.075,424.422s-2.1-15.66,5.541-18a1.929,1.929,0,0,1,.3-.062c1.758-.211,18.131-2.1,26.631.144,0,0,5.807.876,5.745,3.99l-2.575,38.155h-4.183l1.372-25.224s1.995-10.989-1.31-11.747-18.357-1.995-23.663-.5c0,0-3.872-.875-3.247,8.678l-.251,5.12Z" transform="translate(-495.5 -322.798)" fill="#dce0ed"/>
    <path id="Path_2374" data-name="Path 2374" d="M644.752,494.723a2.412,2.412,0,0,0-.984-2.154c-1.17-.887-4.776-2.808-4.776-2.808l-1.17.093-3.511,8.711.233,18.5,6.321,7.82Z" transform="translate(-504.45 -388.449)" fill="#ff6366"/>
    <path id="Path_2375" data-name="Path 2375" d="M644.752,494.723a2.412,2.412,0,0,0-.984-2.154c-1.17-.887-4.776-2.808-4.776-2.808l-1.17.093-3.511,8.711.233,18.5,6.321,7.82Z" transform="translate(-504.45 -388.449)" opacity="0.1"/>
    <path id="Path_2376" data-name="Path 2376" d="M567.62,506.654l.124-18.982s-.561-7.368,3.841-7.492c0,0,10.38.075,14.891,1.541a1.006,1.006,0,0,1,.567,1.454c-.887,1.563-2.412,5.7-3.143,16.313v11.379Z" transform="translate(-452.542 -380.992)" fill="#ff6366"/>
    <path id="Path_2377" data-name="Path 2377" d="M519,575.526l-18.889-.441h-.018l-9.283-.215,1.075-12.41,5.151.188,16.391,3.653,5.009,7.867Z" transform="translate(-382.022 -437.736)" fill="#ff6366"/>
    <path id="Path_2378" data-name="Path 2378" d="M519,575.526l-18.889-.441h-.018l-9.283-.215,1.075-12.41,5.151.188,16.391,3.653,5.009,7.867Z" transform="translate(-382.022 -437.736)" opacity="0.1"/>
    <path id="Path_2379" data-name="Path 2379" d="M550.569,589.015l-18.889-.441-.31-8.316L545,579.79l5.009,7.866Z" transform="translate(-413.592 -451.225)" fill="#ff6366"/>
    <path id="Path_2380" data-name="Path 2380" d="M548.523,607.984l-9.283-.222,1.077-12.412s2.9,4.637,7.913,4.309Z" transform="translate(-430.452 -470.635)" fill="#fff" opacity="0.1"/>
    <path id="Path_2381" data-name="Path 2381" d="M853.415,687c-.374,3.56-2.9,3-2.9,3l-.472-.042-4.679-.426.188-5.526a20.372,20.372,0,0,1,4.746.286C852.05,684.657,853.581,685.424,853.415,687Z" transform="translate(-668.721 -539.617)" fill="#dce0ed"/>
    <path id="Path_2382" data-name="Path 2382" d="M538.887,454.27s-8.615,3.93-9.24,5.056-4.876,5.984-4.876,5.984l1.842,3.1,8.523-6.776Z" transform="translate(-419.189 -360.826)" fill="#4c4981"/>
    <path id="Path_2383" data-name="Path 2383" d="M444.41,542.826l-3.99-.6-2.935,3.462s-4.09,2.028-4.566,2.915-1.964,3.484-2.62,3.5-1.27.977-1.275,1.356-2.5,4.732-3.116,4.983a4.332,4.332,0,0,0-1.665,1.944,25.969,25.969,0,0,1-2.327,3.063s-3.99,6.244-4.584,6.443-2.893,4.232-3.475,4.71-2.216.909-2.017,1.3,4.211,5.871,3.968,7.425c0,0,2.986-2.363,3.1-3.09s3.812-4.562,3.812-4.562l19.352-20.1,3.73-12.667Z" transform="translate(-331.278 -429.289)" fill="#ceddf9"/>
    <path id="Path_2384" data-name="Path 2384" d="M455.877,540.581s.8,9.136-1.842,10.519-4.433,1.224-4.941,1.833-3.6,1.148-3.928,1.7-8.992,5.4-8.992,5.4-5.927,3.493-6.856,4.253-5.985,2.984-6.847,4.03-6.275,4.475-6.275,4.475-1.585-4.876-3.407-5.3c0,0,4.38-.862,4.639-1.552s1.567-1.43,1.567-1.43,6.235-3.617,6.428-4.433,1.729-1.977,1.729-1.977,2.476-3.385,3.387-3.711,6.313-5.871,6.313-5.871,3.673-1.942,4.081-2.58,7.368-4.256,7.368-4.256l-7.933-9.857,2.509-.771,7.432,1.995,1.33,2.409Z" transform="translate(-332.03 -420.587)" opacity="0.1"/>
    <path id="Path_2385" data-name="Path 2385" d="M457.9,541.119s.8,9.136-1.84,10.519-4.433,1.226-4.943,1.833-3.6,1.151-3.928,1.7-8.99,5.4-8.99,5.4-5.927,3.491-6.858,4.245-5.985,2.986-6.847,4.032-6.275,4.473-6.275,4.473-1.591-4.863-3.407-5.306c0,0,4.382-.86,4.639-1.552s1.567-1.432,1.567-1.432,6.235-3.617,6.428-4.433,1.731-1.979,1.731-1.979,2.476-3.385,3.387-3.708,6.31-5.874,6.31-5.874,3.673-1.942,4.081-2.58-3.147-9.088-3.147-9.088l2.589-5.031,2.509-.769,7.432,1.995,1.33,2.41Z" transform="translate(-333.602 -420.992)" fill="#ceddf9"/>
    <path id="Path_2386" data-name="Path 2386" d="M609.771,436.274l-6.062,4.211s-7.325-2.717-4.433-3.808c1.9-.716,2.58-4.411,2.824-6.871.128-1.281.135-2.216.135-2.216s8.265-.013,6.745,2.624a4.153,4.153,0,0,0-.506,2.385A8.263,8.263,0,0,0,609.771,436.274Z" transform="translate(-476.655 -340.059)" fill="#fec2be"/>
    <path id="Path_2387" data-name="Path 2387" d="M620.7,432.633a5.812,5.812,0,0,1-6.375-2.786c.129-1.281.135-2.216.135-2.216s8.265-.013,6.745,2.624A4.15,4.15,0,0,0,620.7,432.633Z" transform="translate(-488.898 -340.09)" opacity="0.1"/>
    <path id="Path_2388" data-name="Path 2388" d="M622.354,405.244a5.825,5.825,0,1,1,.131-.534C622.45,404.887,622.407,405.067,622.354,405.244Z" transform="translate(-486.261 -316.847)" fill="#fec2be"/>
    <path id="Path_2389" data-name="Path 2389" d="M560.136,456.11s-1.017,0-1.082,1.447-1.093,1.341-1.093,1.341l-4.779,4.963s-2.146,5.138-2.128,5.346-.483,1.077-.37,1.516-.044,1.773-.443,1.656a.943.943,0,0,0-1.055.946c.009.654-3.358,2.66-3.221,3.147s9.586,5.508,9.586,5.508l3.932,3.048,3.671-6.838,3.059-9.422,1.7-5.47,1.407-1.574-.647-3.693s-.581-1.6-1.055-1.374-2.217,2.106-3.852,2.27-2.591.364-2.972,0S558.1,458.3,560.136,456.11Z" transform="translate(-435.684 -362.258)" opacity="0.1"/>
    <path id="Path_2390" data-name="Path 2390" d="M560.93,453.94a1.389,1.389,0,0,0-1.277,1.481c-.066,1.445-1.093,1.341-1.093,1.341l-4.779,4.963s-2.146,5.136-2.126,5.346-.486,1.075-.372,1.516-.042,1.773-.443,1.656a.944.944,0,0,0-1.057.946c.009.654-3.358,2.66-3.218,3.147s9.584,5.508,9.584,5.508l3.934,3.048,3.671-6.84,3.059-9.422,1.716-5.468,1.405-1.574-.647-3.693s-.581-1.6-1.055-1.374-2.216,2.106-3.85,2.267-2.591.366-2.972,0S561.256,456.01,560.93,453.94Z" transform="translate(-436.15 -360.569)" opacity="0.1"/>
    <path id="Path_2391" data-name="Path 2391" d="M560.738,454.61a1.388,1.388,0,0,0-1.277,1.481c-.064,1.445-1.093,1.343-1.093,1.343l-4.779,4.961s-2.146,5.138-2.126,5.346-.485,1.077-.372,1.516-.042,1.773-.443,1.656a.942.942,0,0,0-1.055.946c.009.654-3.358,2.66-3.219,3.147s9.584,5.51,9.584,5.51l3.932,3.046,3.67-6.838,3.061-9.422,1.713-5.47,1.408-1.574-.647-3.693s-.581-1.6-1.055-1.372-2.217,2.1-3.85,2.268-2.593.366-2.975,0S561.064,456.691,560.738,454.61Z" transform="translate(-436.002 -361.09)" fill="#fff"/>
    <path id="Path_2392" data-name="Path 2392" d="M539.927,453.031a8.993,8.993,0,0,1-1.673-.328,11.672,11.672,0,0,0-2.751-.049s-2.487.153-2.945.871-2.438,4.6-3.117,4.848-4.688,6.7-5.508,7.266-4.353,7.49-4.353,7.49,2.611-1.232,3.806.572c.031.047.062.093.091.144,1.148,2.013,2.216.461,2.216.461a51.482,51.482,0,0,0,4.1-4.065c.3-.6,2.551-5.138,3.13-6.39s5.477-7.439,5.641-7.713S539.927,453.031,539.927,453.031Z" transform="translate(-415.15 -359.518)" opacity="0.1"/>
    <path id="Path_2393" data-name="Path 2393" d="M538.877,452.72a14.02,14.02,0,0,1-1.971-.417,11.694,11.694,0,0,0-2.753-.049s-2.487.153-2.946.869-2.438,4.606-3.116,4.847-4.688,6.7-5.508,7.268-4.353,7.49-4.353,7.49,2.611-1.232,3.808.572c.029.044.06.093.089.144,1.148,2.01,2.217.461,2.217.461a51.506,51.506,0,0,0,4.1-4.065c.3-.6,2.551-5.138,3.13-6.39s5.477-7.439,5.641-7.716S538.877,452.72,538.877,452.72Z" transform="translate(-414.099 -359.207)" fill="#4c4981"/>
    <path id="Path_2394" data-name="Path 2394" d="M607.63,455.62a26,26,0,0,1,3.547,2.972c.4.692,4.52,2.855,4.52,2.855s1.552,2.864,1.319,3.894a5.762,5.762,0,0,0-.277,2.562c.2.55.326.545.027,1.27s-.2.8.222,1.447-6.206,2.66-6.206,2.66-.887.137-.982.561-5.173,11.6-5.907,13.372-3.052,8.866-5,8.966-.443.027-.443.027.3-5.763-.9-7.758,1.166-9.693,1.166-9.693S606.584,456.121,607.63,455.62Z" transform="translate(-475.576 -361.876)" opacity="0.1"/>
    <path id="Path_2395" data-name="Path 2395" d="M608.673,455.62s3.442,2.372,3.846,3.061,4.531,2.855,4.531,2.855,1.552,2.864,1.319,3.894a5.769,5.769,0,0,0-.277,2.562c.2.547.326.545.027,1.27s-.2.8.222,1.45-6.206,2.66-6.206,2.66-.887.14-.982.561-5.184,11.6-5.922,13.374-3.052,8.855-5,8.959-.443.027-.443.027.3-5.763-.9-7.758,1.186-9.7,1.186-9.7S607.626,456.121,608.673,455.62Z" transform="translate(-476.618 -361.876)" fill="#4c4981"/>
    <path id="Path_2396" data-name="Path 2396" d="M623.514,558.55s-6.973,1.552-7.19,1.995-5.985,3.881-2.959,5.541,7.78-2.338,7.78-2.338l3.768-2.4Z" transform="translate(-487.465 -441.992)" fill="#fec2be"/>
    <path id="Path_2397" data-name="Path 2397" d="M659.377,516.61c.113.033,2.542,1.574,2.542,1.574s1.144,3.8,1.394,4.73a27.478,27.478,0,0,1,.844,2.9c-.042.31.692,2.037-.479,2.826s-2.4.665-2.961,1.192a30.668,30.668,0,0,1-4.934,2.35c-.49.133,2.421-5.787-1.172-6.7,0,0,2.573.242,2.706-.208s.281-1.625-.2-2.053-2.558-2.474-2.558-2.474Z" transform="translate(-520.211 -409.348)" fill="#4c4981"/>
    <path id="Path_2398" data-name="Path 2398" d="M622.583,404.748a1.6,1.6,0,0,1-.694-.727c-.237-.461-.474-1.024-.98-1.142-.284-.069-.627.016-.838-.186a.886.886,0,0,1-.162-.647,2.633,2.633,0,0,0-.423-1.47,1.538,1.538,0,0,0-1.314-.685c-.721.049-1.348.7-2.057.574-.312-.058-.612-.268-.918-.186a.9.9,0,0,0-.324.182,4.713,4.713,0,0,0-1.478,1.995c-.293.745-.39,1.552-.74,2.281-.14.284-.408.587-.709.5-.47-.14-.222-.732-.483-.991a.714.714,0,0,0-.37-.148,5.809,5.809,0,1,1,11.49.652Z" transform="translate(-486.364 -316.885)" opacity="0.1"/>
    <path id="Path_2399" data-name="Path 2399" d="M605.508,393.077c.3.089.57-.222.709-.5.35-.72.443-1.536.74-2.281a4.7,4.7,0,0,1,1.481-1.995.9.9,0,0,1,.321-.184c.306-.08.607.128.918.186.709.133,1.33-.525,2.057-.574a1.539,1.539,0,0,1,1.315.687,2.6,2.6,0,0,1,.423,1.467.885.885,0,0,0,.164.647c.208.2.552.12.838.186.505.12.74.68.98,1.141s.72.944,1.2.745a4.609,4.609,0,0,1,.41-.222c.272-.091.6.058.842-.093.31-.191.222-.665.02-.982s-.443-.665-.317-1a1.363,1.363,0,0,1,.335-.43,2.13,2.13,0,0,0-.129-2.924c-.2-.177-.428-.315-.62-.5a6.535,6.535,0,0,1-.887-1.33,4.052,4.052,0,0,0-1.412-1.33,2.019,2.019,0,0,0-.82-.286,6.921,6.921,0,0,0-1.2.16c-1.343.135-2.5-.926-3.812-1.228a1.082,1.082,0,0,0-.9.106c-.261.2-.317.57-.443.887a2.664,2.664,0,0,1-1.58,1.414c-.782.3-1.773.461-2.1,1.23-.284.665.084,1.427-.064,2.128a4.284,4.284,0,0,1-.842,1.436,1.549,1.549,0,0,0-.275,1.569,1.4,1.4,0,0,0,.718.561c.368.151,1.188.071,1.436.315S605.039,392.941,605.508,393.077Z" transform="translate(-479.877 -304.876)" fill="#9a5e7f"/>
    <path id="Path_2400" data-name="Path 2400" d="M674.47,546.66c.133.013,2.556.443,3.125,1.259S674.47,546.66,674.47,546.66Z" transform="translate(-535.708 -432.737)" opacity="0.1"/>
    <path id="Path_2401" data-name="Path 2401" d="M669,535a19.525,19.525,0,0,1,2.948.853A19.5,19.5,0,0,1,669,535Z" transform="translate(-531.451 -423.662)" opacity="0.1"/>
    <path id="Path_2402" data-name="Path 2402" d="M672.92,505.57s1.944.851,2.166,1.379S672.92,505.57,672.92,505.57Z" transform="translate(-534.502 -400.755)" opacity="0.1"/>
    <path id="Path_2403" data-name="Path 2403" d="M560.84,605c.2.142,4.976,3.684,4.586,3.813S560.84,605,560.84,605Z" transform="translate(-447.264 -478.146)" opacity="0.1"/>
    <path id="Path_2404" data-name="Path 2404" d="M560.68,615s2.8,1.352,2.329,1.917S560.68,615,560.68,615Z" transform="translate(-447.14 -485.93)" opacity="0.1"/>
    <g id="Group_16117" data-name="Group 16117" transform="translate(122.872 81.192)" opacity="0.1">
      <path id="Path_2405" data-name="Path 2405" d="M608.323,400.83c.126-.6-.126-1.25-.022-1.84V399c-.279.647.073,1.4-.058,2.095A1.838,1.838,0,0,0,608.323,400.83Z" transform="translate(-606.991 -398.99)"/>
      <path id="Path_2406" data-name="Path 2406" d="M670.121,413.058a.569.569,0,0,0-.031.182,2.46,2.46,0,0,1,.277-.313,1.932,1.932,0,0,0,.468-.918,1.875,1.875,0,0,1-.379.618A1.356,1.356,0,0,0,670.121,413.058Z" transform="translate(-655.171 -409.124)"/>
      <path id="Path_2407" data-name="Path 2407" d="M632.344,409.688c-.244.151-.572,0-.844.093-.148.051-.266.166-.41.222-.481.2-.964-.282-1.2-.742s-.474-1.024-.979-1.144c-.284-.067-.63.018-.838-.186a.889.889,0,0,1-.164-.645,2.627,2.627,0,0,0-.421-1.47,1.552,1.552,0,0,0-1.317-.687c-.718.049-1.345.707-2.055.576-.312-.06-.614-.268-.92-.188a.932.932,0,0,0-.321.184,4.707,4.707,0,0,0-1.481,1.995,6.791,6.791,0,0,0-.222.649c.038-.117.078-.235.124-.35A4.707,4.707,0,0,1,622.775,406a.9.9,0,0,1,.321-.184c.306-.08.607.129.918.186.709.133,1.33-.525,2.057-.574a1.538,1.538,0,0,1,1.314.687,2.6,2.6,0,0,1,.423,1.467.886.886,0,0,0,.164.647c.208.2.552.12.838.186.505.12.74.68.98,1.141s.72.944,1.2.745a4.642,4.642,0,0,1,.41-.222c.273-.091.6.058.842-.093a.443.443,0,0,0,.2-.4A.39.39,0,0,1,632.344,409.688Z" transform="translate(-617.094 -403.768)"/>
      <path id="Path_2408" data-name="Path 2408" d="M606.337,419.559c-.137.284-.408.585-.709.5-.47-.137-.222-.729-.481-.988s-1.068-.164-1.436-.315a1.4,1.4,0,0,1-.718-.561,1.06,1.06,0,0,1-.093-.751,1.211,1.211,0,0,0,0,1.051,1.4,1.4,0,0,0,.718.561c.368.151,1.188.071,1.436.315s.011.851.481.989c.3.089.57-.222.709-.5a5.788,5.788,0,0,0,.344-.958A4.729,4.729,0,0,1,606.337,419.559Z" transform="translate(-602.78 -413.351)"/>
    </g>
    <path id="Path_2409" data-name="Path 2409" d="M568.244,477.3s-1.908,2.848-1.68,3.445S568.244,477.3,568.244,477.3Z" transform="translate(-451.704 -378.751)" opacity="0.1"/>
    <path id="Path_2410" data-name="Path 2410" d="M575.47,519.17a5.351,5.351,0,0,1,1.383.82C577.223,520.387,575.47,519.17,575.47,519.17Z" transform="translate(-458.652 -411.34)" opacity="0.1"/>
    <path id="Path_2411" data-name="Path 2411" d="M585.51,532.27s2.163.523,2.347.862S585.51,532.27,585.51,532.27Z" transform="translate(-466.466 -421.537)" opacity="0.1"/>
    <path id="Path_2412" data-name="Path 2412" d="M587.21,545.63s1.957.257,2.179,1.015S587.21,545.63,587.21,545.63Z" transform="translate(-467.789 -431.936)" opacity="0.1"/>
    <path id="Path_2413" data-name="Path 2413" d="M867.226,688.121c-.375,3.56-2.9,3-2.9,3l-.472-.042a4.782,4.782,0,0,1-.745-2.673,4.49,4.49,0,0,1,1-2.992C865.861,685.774,867.392,686.541,867.226,688.121Z" transform="translate(-682.532 -540.733)" opacity="0.1"/>
    <path id="Path_2414" data-name="Path 2414" d="M528.04,487.22c-4.276,0-7.74,4.684-7.74,10.46s3.464,10.457,7.74,10.457,7.742-4.684,7.742-10.457S532.318,487.22,528.04,487.22Zm-1.093,18.732c-3.258,0-5.9-3.4-5.9-7.587s2.64-7.585,5.9-7.585,5.9,3.4,5.9,7.585S530.208,505.952,526.947,505.952Z" transform="translate(-415.71 -386.472)" fill="#636780"/>
    <path id="Path_2415" data-name="Path 2415" d="M507.383,506.556,511,510.114l1.31-3.185-5.244-3.059Z" transform="translate(-394.678 -392.133)" fill="#636780"/>
    <path id="Path_2416" data-name="Path 2416" d="M457.07,357.07l3.152.383,1.17,1.39-1.773,7.979-3.768,12.856-2.474,8.826-1.738,5.36-1.108,7.093-1.108,4.876-3.325,3.325-6.76-7.979-1.108-2.66-2.66-5.43,6.871-3.214,7.536-.665,3.546-9.088,2.881-10.528Z" transform="translate(-339.026 -277.871)" fill="#ff6366"/>
    <path id="Path_2417" data-name="Path 2417" d="M230.351,513.537l-4.121,34.591,51.884-2.185-5.993-16.983-9.99-6.494,22.852.374.124-9.489-9.24-2-18.605-1.5-13.986-.623L229.914,513.6" transform="translate(-176.086 -396.305)" fill="#ff6366"/>
    <path id="Path_2418" data-name="Path 2418" d="M230.351,513.537l-4.121,34.591,51.884-2.185-5.993-16.983-9.99-6.494,22.852.374.124-9.489-9.24-2-18.605-1.5-13.986-.623L229.914,513.6" transform="translate(-176.086 -396.305)" opacity="0.1"/>
    <path id="Path_2419" data-name="Path 2419" d="M537.35,664.462c0,8.6-2.857,16.42-10.781,15.564-9.994-.222-10.779-6.969-10.779-15.564s4.825-14.992,10.779-14.992S537.35,655.867,537.35,664.462Z" transform="translate(-412.2 -512.759)" fill="#636780"/>
    <path id="Path_2420" data-name="Path 2420" d="M556.435,667.8c0-6.65-2.893-11.991-6.962-14.062-5.227.993-9.243,7-9.243,14.851,0,7.044.527,12.856,6.219,14.835C553.771,683.685,556.435,676.1,556.435,667.8Z" transform="translate(-431.223 -516.083)" opacity="0.1"/>
    <path id="Path_2421" data-name="Path 2421" d="M599.868,571.365l-3.048,3.491,5.486-.942,4.1-3.768,3.657-7.314,5.153-3.158,12.634,1.718,11.692.443L643.859,558l-4.814-.656-4.876-.111-12.246-.277-14.573-.388-2.992,7.979-2.272,5.486Z" transform="translate(-464.535 -433.152)" fill="#ff6366"/>
    <path id="Path_2422" data-name="Path 2422" d="M273.524,464.57c-.25.375-8.423,1.625-8.423,1.625l-22.608,4.12-38.829.561L199.107,467l-2.394.426-.1.018-31.98,5.676-.521-.073-8.715-1.243-45.52-6.488.51-6.607.3-3.9.623-8.1.443-2.123,4.054-.372,1.893-.173,29.544-2.711,3.863-.355,2.166-.2,21.1-2.881,30.781.749.124-9.491L217.46,391.7c2.684.443,2.622,2.248,2.622,2.248l-10.367,35.278-.126,21.666c21.555,2.177,22.251-2.52,25.66-.938l4.123-13.173,36.211.188C277.031,438.721,273.524,464.57,273.524,464.57Z" transform="translate(-96.26 -312.124)" fill="#ff6366"/>
    <path id="Path_2423" data-name="Path 2423" d="M394.4,598.8l11.488,24.663,3.87,1.248.938-4-4.309-13.674-4.433-7.928Z" transform="translate(-306.981 -466.021)" fill="#ff6366"/>
    <path id="Path_2424" data-name="Path 2424" d="M394.4,598.8l11.488,24.663,3.87,1.248.938-4-4.309-13.674-4.433-7.928Z" transform="translate(-306.981 -466.021)" opacity="0.15"/>
    <ellipse id="Ellipse_149" data-name="Ellipse 149" cx="20.806" cy="23.601" rx="20.806" ry="23.601" transform="translate(59.134 136.336)" fill="#636780"/>
    <path id="Path_2425" data-name="Path 2425" d="M374.085,654.43c-10.887.758-19.505,11.012-19.505,23.553,0,10.109,5.6,18.734,13.479,22.094,10.888-.758,19.505-11.011,19.505-23.552C387.564,666.415,381.96,657.79,374.085,654.43Z" transform="translate(-286.722 -516.62)" opacity="0.1"/>
    <path id="Path_2426" data-name="Path 2426" d="M94.678,568.07l-1.031,4.861L90.5,587.806l-13.549-1.312s-.811-2.5,1.312-3.433c0,0,.7-8.452,3.2-11.114a2.525,2.525,0,0,1,.982-.685Z" transform="translate(-70.507 -449.402)" fill="#ff6366"/>
    <path id="Path_2427" data-name="Path 2427" d="M93.647,586.544,90.5,601.419l-13.549-1.312s-.811-2.5,1.312-3.433c0,0,.7-8.452,3.2-11.113Z" transform="translate(-70.507 -463.015)" fill="#fff" opacity="0.1"/>
    <path id="Path_2428" data-name="Path 2428" d="M169.6,534.958c1.747,2.93-2.489,29.965-2.489,29.965l-33.287-5.495,1.186-23.663c.687-4.245,3.185-4.743,3.185-4.743,11.747-5.931,38.709-7.181,38.709-7.181,24.6.935,47.014,8.179,47.014,8.179C195.944,527.712,169.6,534.958,169.6,534.958Z" transform="translate(-114.893 -414.975)" fill="#ff6366"/>
    <path id="Path_2429" data-name="Path 2429" d="M167.107,588.673l-33.287-5.495,1.186-23.664c.687-4.245,3.185-4.743,3.185-4.743s24.286-2.312,31.406,3.937C171.343,561.638,167.107,588.673,167.107,588.673Z" transform="translate(-114.893 -438.725)" opacity="0.1"/>
    <path id="Path_2430" data-name="Path 2430" d="M170.376,599.321l-27.826-4.688.986-20.19c.574-3.622,2.66-4.047,2.66-4.047s20.308-1.973,26.259,3.356C173.925,576.254,170.376,599.321,170.376,599.321Z" transform="translate(-121.688 -450.934)" fill="#ff6366"/>
    <ellipse id="Ellipse_150" data-name="Ellipse 150" cx="3.808" cy="6.931" rx="3.808" ry="6.931" transform="translate(42.59 124.848)" opacity="0.1"/>
    <ellipse id="Ellipse_151" data-name="Ellipse 151" cx="3.808" cy="6.931" rx="3.808" ry="6.931" transform="translate(42.59 124.662)" fill="#dce0ed"/>
    <path id="Path_2431" data-name="Path 2431" d="M256.56,603.28s-1.552.248-.749,2.31a14.923,14.923,0,0,1,.935,3.121s1.552.813,1.5-1.873A3.98,3.98,0,0,0,256.56,603.28Z" transform="translate(-209.666 -476.807)" fill="#f0f0f4"/>
    <ellipse id="Ellipse_152" data-name="Ellipse 152" cx="3.56" cy="6.477" rx="3.56" ry="6.477" transform="translate(22.422 122.556)" opacity="0.1"/>
    <ellipse id="Ellipse_153" data-name="Ellipse 153" cx="3.56" cy="6.477" rx="3.56" ry="6.477" transform="translate(22.422 122.368)" fill="#dce0ed"/>
    <path id="Path_2432" data-name="Path 2432" d="M164.46,590.88s-1.552.25-.749,2.312a15.042,15.042,0,0,1,.938,3.121s1.552.811,1.5-1.873A3.989,3.989,0,0,0,164.46,590.88Z" transform="translate(-137.98 -467.156)" fill="#f0f0f4"/>
    <path id="Path_2433" data-name="Path 2433" d="M193.276,590.815c-.248,2.56-1.5,21.54-1.5,21.54L189.659,612l-1.177-.193-1.569-.264-.191-.031-6.182-1.031,1.221-20.133a2.518,2.518,0,0,1,2.558-2.358,1.763,1.763,0,0,1,.188,0c.428.037.887.082,1.368.135.2.022.408.044.614.071.594.071,1.208.157,1.809.255.306.053.607.109.907.166.5.1.991.211,1.441.337.3.084.594.175.86.275C192.622,589.634,193.351,590.155,193.276,590.815Z" transform="translate(-151.258 -464.906)" opacity="0.1"/>
    <path id="Path_2434" data-name="Path 2434" d="M190.927,587.992l-1.21,22.608-.687-.062,1.2-22.478A2.512,2.512,0,0,1,190.927,587.992Z" transform="translate(-157.866 -464.906)" fill="#ff6366"/>
    <path id="Path_2435" data-name="Path 2435" d="M199.674,588.663l-1.133,22.848H197.48l1.58-22.921C199.262,588.614,199.468,588.637,199.674,588.663Z" transform="translate(-164.443 -465.374)" fill="#ff6366"/>
    <path id="Path_2436" data-name="Path 2436" d="M210.936,590.275,209.149,613.2h-.689v-.031l1.567-23.052C210.335,590.162,210.637,590.218,210.936,590.275Z" transform="translate(-172.989 -466.564)" fill="#ff6366"/>
    <path id="Path_2437" data-name="Path 2437" d="M219.383,592.615l-1.837,22.772v.044l-1.186-.126v-.111l2.154-22.854C218.829,592.424,219.12,592.515,219.383,592.615Z" transform="translate(-179.138 -468.292)" fill="#ff6366"/>
    <path id="Path_2438" data-name="Path 2438" d="M113.686,628.9s-2.294-11.847,2.95-12.457,22.477.665,21.961,5.526-1.071,12.268-1.071,12.268l-3.558-.8s2.66-11.145-1.5-11.566-14.376-1.594-14.376-1.594-2.764-.468-1.17,9.309Z" transform="translate(-98.833 -486.943)" opacity="0.1"/>
    <path id="Path_2439" data-name="Path 2439" d="M113.686,631.339s-2.294-12.6,2.95-13.206,22.477.665,21.961,5.526-1.071,12.268-1.071,12.268l-3.558-.8s2.66-11.144-1.5-11.566-14.383-1.583-14.383-1.583-2.764.282-1.17,10.07Z" transform="translate(-98.833 -488.259)" fill="#dce0ed"/>
    <path id="Path_2440" data-name="Path 2440" d="M332.757,631.058,328.138,631c-3.371-14.851-8.93-24.1-8.93-24.1-1.88-1-22.358-.864-22.358-.864-2.123.375-2.684,7.119-2.684,7.119s1.811,1.552.062,2.56c-.78.443-3.351.53-6.313.377a49.961,49.961,0,0,1-10.169-1.438c-3.99-1.25-.813-3.56-.813-3.56s.563-.749.938-4.876a16.679,16.679,0,0,1,2.278-6.8c.173-.286.282-.443.282-.443a2.139,2.139,0,0,1,.729-.457c5.293-2.217,31.237-.106,31.237-.106l9.615,3.061c.266.106.676.784,1.181,1.868C326.231,609.849,332.757,631.058,332.757,631.058Z" transform="translate(-225.352 -472.307)" fill="#ff6366"/>
    <path id="Path_2441" data-name="Path 2441" d="M332.757,631.058,328.138,631c-3.371-14.851-8.93-24.1-8.93-24.1-1.88-1-22.358-.864-22.358-.864-2.123.375-2.684,7.119-2.684,7.119s1.811,1.552.062,2.56c-.78.443-3.351.53-6.313.377a49.961,49.961,0,0,1-10.169-1.438c-3.99-1.25-.813-3.56-.813-3.56s.563-.749.938-4.876a16.679,16.679,0,0,1,2.278-6.8c.173-.286.282-.443.282-.443a2.139,2.139,0,0,1,.729-.457c5.293-2.217,31.237-.106,31.237-.106l9.615,3.061c.266.106.676.784,1.181,1.868C326.231,609.849,332.757,631.058,332.757,631.058Z" transform="translate(-225.352 -472.307)" opacity="0.1"/>
    <path id="Path_2442" data-name="Path 2442" d="M338.694,603.316c-8.866-3.449-33.336-1.618-33.336-1.618-2.6-2.216-7.485-2.367-9.708-2.307.173-.286.281-.443.281-.443a2.139,2.139,0,0,1,.729-.457c5.293-2.217,31.237-.106,31.237-.106l9.615,3.061C337.779,601.554,338.189,602.232,338.694,603.316Z" transform="translate(-240.854 -472.291)" fill="#ff6366"/>
    <path id="Path_2443" data-name="Path 2443" d="M291.308,606.177c-.561,1.935-2.866,9.68-2.866,9.68a32.774,32.774,0,0,0-.508,3.748,49.948,49.948,0,0,1-10.169-1.438c-3.99-1.25-.813-3.56-.813-3.56s.563-.749.938-4.876a16.6,16.6,0,0,1,2.56-7.244,2.14,2.14,0,0,1,.729-.457C284.645,602.855,291.734,604.712,291.308,606.177Z" transform="translate(-225.367 -475.834)" fill="#ff6366"/>
    <path id="Path_2444" data-name="Path 2444" d="M291.308,606.177c-.561,1.935-2.866,9.68-2.866,9.68a32.774,32.774,0,0,0-.508,3.748,49.948,49.948,0,0,1-10.169-1.438c-3.99-1.25-.813-3.56-.813-3.56s.563-.749.938-4.876a16.6,16.6,0,0,1,2.56-7.244,2.14,2.14,0,0,1,.729-.457C284.645,602.855,291.734,604.712,291.308,606.177Z" transform="translate(-225.367 -475.834)" fill="#fff" opacity="0.1"/>
    <path id="Path_2445" data-name="Path 2445" d="M335.532,386.658c-2.482.375-3.56,5.526-3.56,5.526l-6.743,22.524,47.668,7.82,12.175-37.459C373.882,380.008,335.532,386.658,335.532,386.658Zm38.345,24.069s-.281,2.154-2.108,2.343l-30.9-1.208-6.339-.25-2.126-.082h-.151s-2.343.421-1.968-1.551c0,0,2.576-18.729,7.119-20.135,0,0,.472-.1,1.3-.255,1.3-.246,3.467-.632,6.02-.984,1.144-.157,2.365-.308,3.622-.443a54.421,54.421,0,0,1,10.178-.244s22.757-2.108,21.119,2.95c0,.007-4.772,18.315-5.756,19.86Z" transform="translate(-263.877 -305.484)" fill="#ff6366"/>
    <path id="Path_2446" data-name="Path 2446" d="M350.017,434.071h-.151s-2.343.421-1.968-1.552c0,0,2.576-18.729,7.119-20.135,0,0,.472-.1,1.3-.255C354.667,415.348,349.374,426.367,350.017,434.071Z" transform="translate(-281.489 -328.026)" fill="#ff6366"/>
    <path id="Path_2447" data-name="Path 2447" d="M350.017,434.071h-.151s-2.343.421-1.968-1.552c0,0,2.576-18.729,7.119-20.135,0,0,.472-.1,1.3-.255C354.667,415.348,349.374,426.367,350.017,434.071Z" transform="translate(-281.489 -328.026)" opacity="0.1"/>
    <path id="Path_2448" data-name="Path 2448" d="M170.773,685.964a3.014,3.014,0,0,1-2.822,1.582L167,687.5l-9-.388-3.245-.14-3-.248L112.18,680.3l.3-3.9,4.55.652,1.884.27,27.939,3.99,3.677.541,1.784.255,7.556-.055,8.179-.06a3.075,3.075,0,0,1,1.206.221,2.933,2.933,0,0,1,1.585,1.505A2.463,2.463,0,0,1,170.773,685.964Z" transform="translate(-98.05 -533.721)" opacity="0.1"/>
    <path id="Path_2449" data-name="Path 2449" d="M134.261,671.045a3.014,3.014,0,0,1-2.822,1.583l-13.2-.57-3-.25-42.2-6.847-3.325-.539-1.8-.3c-3.557-.749-2.5-4.309-2.5-4.309.248-1.625,6.368-3.123,8.365-3.059,1.343.042,1.529,2.11,1.507,3.464a8.928,8.928,0,0,1-.071,1.155l1.975.284,38.609,5.523,15.737-.115a3.023,3.023,0,0,1,2.791,1.738,2.462,2.462,0,0,1-.071,2.243Z" transform="translate(-61.538 -518.427)" fill="#dce0ed"/>
    <path id="Path_2450" data-name="Path 2450" d="M90.72,666.94a7.249,7.249,0,0,0,4.309,2.372A4.718,4.718,0,0,0,90.72,666.94Z" transform="translate(-81.346 -526.357)" opacity="0.1"/>
    <path id="Path_2451" data-name="Path 2451" d="M69.237,693.137s-5.557-.126-5.557,2.881,3.5,3.5,3.5,3.5l49.636,9.549,14.11.248s4.932-3.932-.188-5.681L116.5,704l-47.329-8.678S70.423,693.636,69.237,693.137Z" transform="translate(-60.3 -546.747)" opacity="0.1"/>
    <path id="Path_2452" data-name="Path 2452" d="M130.924,710.974l-14.11-.249-44.135-8.493-3.229-.623-2.272-.443s-3.5-.5-3.5-3.5c0-2.15,2.864-2.693,4.48-2.828.636-.051,1.077-.042,1.077-.042,1.186.5-.062,2.183-.062,2.183l1.722.317,45.607,8.369,14.234-.374C135.856,707.033,130.924,710.974,130.924,710.974Z" transform="translate(-60.3 -548.04)" fill="#dce0ed"/>
    <path id="Path_2453" data-name="Path 2453" d="M96.443,677.324l2.935-1.312,1.5-.062-.124,12.612-4.619-.935L94.2,686.379l-.935-5.244a14.269,14.269,0,0,1,.561-2.372C94.007,678.577,96.443,677.324,96.443,677.324Z" transform="translate(-83.323 -533.37)" fill="#dce0ed"/>
    <path id="Path_2454" data-name="Path 2454" d="M96.443,677.324l2.935-1.312,1.5-.062-.124,12.612-4.619-.935L94.2,686.379l-.935-5.244a14.269,14.269,0,0,1,.561-2.372C94.007,678.577,96.443,677.324,96.443,677.324Z" transform="translate(-83.323 -533.37)" opacity="0.1"/>
    <path id="Path_2455" data-name="Path 2455" d="M87.365,702.24l.053.064-3.245-.625-.038-.062c-1.709-2.759-1.857-4.994-1.29-6.767.636-.051,1.077-.042,1.077-.042,1.186.5-.062,2.183-.062,2.183l1.722.317A7.91,7.91,0,0,0,87.365,702.24Z" transform="translate(-74.986 -548.048)" opacity="0.1"/>
    <path id="Path_2456" data-name="Path 2456" d="M94.323,672.731a16.6,16.6,0,0,0-1.523.665,9.933,9.933,0,0,0-4.156,3.3l-3.325-.539A10.127,10.127,0,0,1,90.2,671.8l.7.157Z" transform="translate(-77.143 -530.14)" opacity="0.1"/>
    <path id="Path_2457" data-name="Path 2457" d="M89.7,671.73s-9.114,3.622-3.87,11.987l3.247.625s-6.428-7.368,4.743-11.676Z" transform="translate(-76.273 -530.086)" fill="#dce0ed"/>
    <path id="Path_2458" data-name="Path 2458" d="M134.945,656.674l3.371-.124-.563,13.547-5.433-1-2.31-1.124-1.062-2.686-.749-2.684,1.811-2.436,2.061-1.372Z" transform="translate(-99.784 -510.971)" fill="#dce0ed"/>
    <path id="Path_2459" data-name="Path 2459" d="M134.945,656.674l3.371-.124-.563,13.547-5.433-1-2.31-1.124-1.062-2.686-.749-2.684,1.811-2.436,2.061-1.372Z" transform="translate(-99.784 -510.971)" opacity="0.1"/>
    <ellipse id="Ellipse_154" data-name="Ellipse 154" cx="1.622" cy="2.746" rx="1.622" ry="2.746" transform="translate(33.163 149.95)" fill="#dce0ed"/>
    <path id="Path_2460" data-name="Path 2460" d="M119.474,745.532a3.614,3.614,0,0,0-2.294-2.9,2.7,2.7,0,0,0-3.606,2.868s.047,2.389,1.64,3.139l.093,2.66s.14,2.483-1.266,2.248-1.217-2.438-1.217-2.438-.749-2.341-2.576-1.124a1.84,1.84,0,0,0,.516,1.968,1.8,1.8,0,0,1,.488,1.747,2.54,2.54,0,0,0,.585,2.035,2.361,2.361,0,0,0,2.252.807,3.494,3.494,0,0,0,1.951-1.122A5.115,5.115,0,0,0,117.393,752l.069-3.427A2.671,2.671,0,0,0,119.474,745.532Zm-2.881,2.411a2.727,2.727,0,1,0,0-.009Z" transform="translate(-96.473 -585.174)" fill="#dce0ed"/>
    <path id="Path_2461" data-name="Path 2461" d="M133.607,730.082a.887.887,0,0,0-.443,1.23,6.174,6.174,0,0,1,.767,1.815c-.071.4.82.071.935-.024s1.733,0,1.826-1.108a1.9,1.9,0,0,0-.864-1.687l.375-2.411-2.217-.186.024,2.2Z" transform="translate(-114.303 -573.657)" fill="#636780"/>
    <path id="Path_2462" data-name="Path 2462" d="M133.607,730.082a.887.887,0,0,0-.443,1.23,6.174,6.174,0,0,1,.767,1.815c-.071.4.82.071.935-.024s1.733,0,1.826-1.108a1.9,1.9,0,0,0-.864-1.687l.375-2.411-2.217-.186.024,2.2Z" transform="translate(-114.303 -573.657)" opacity="0.1"/>
    <path id="Path_2463" data-name="Path 2463" d="M138.26,738.21s.749,2.575.421,2.66S138.26,738.21,138.26,738.21Z" transform="translate(-118.349 -581.83)" opacity="0.1"/>
    <path id="Path_2464" data-name="Path 2464" d="M142.06,735.46s.749,2.575.421,2.66S142.06,735.46,142.06,735.46Z" transform="translate(-121.307 -579.69)" opacity="0.1"/>
    <path id="Path_2465" data-name="Path 2465" d="M124.032,692.786l-1.25,7.742s-1.552-.211-2.4-.395a1.725,1.725,0,0,1-.536-.166c-.044-.044-.135-.04-.257-.016h0c-.417.084-1.157.428-1.3.137a.209.209,0,0,0-.042-.06h0c-.146-.16-.43-.044-.7,0a.6.6,0,0,1-.443-.058c-.222-.155-.7.093-1.079.175-.242.053-.443.042-.545-.175a.5.5,0,0,0-.372-.266h0c-.359-.091-.862-.029-1.153-.091a.263.263,0,0,1-.222-.144c-.058-.168-.379-.248-.723-.315-.419-.08-.869-.14-.9-.308,0-.057-.051-.082-.113-.084a3.842,3.842,0,0,0-.683.168h0c-.186.049-.344.049-.388-.084s-.264-.133-.51-.073c-.2.049-.417.126-.585.166s-.262.04-.279-.033c-.062-.248-.873.315-1.059-.186a6.665,6.665,0,0,1,.572-8.121s.887.062,1.578.186a2.476,2.476,0,0,1,.665.186h0a3.817,3.817,0,0,0,1.2.14,1.55,1.55,0,0,1,.665.16.443.443,0,0,1,.188.2c.1.237.344.286.605.273.355-.022.749-.155.887-.084h.013c.262.113,1.241,0,1.407.167l.013.016c.071.1.443,0,.847-.057h0a.947.947,0,0,1,.776.122.846.846,0,0,0,.607.18,3.571,3.571,0,0,1,.8.031.342.342,0,0,1,.157.1c.157.2.539.171.887.188a.9.9,0,0,1,.5.124.464.464,0,0,0,.18.075,5.342,5.342,0,0,0,1.5-.075Z" transform="translate(-94.302 -544.773)" fill="#636780"/>
    <path id="Path_2466" data-name="Path 2466" d="M114.877,699.424c-.2.049-.417.127-.585.166a6.165,6.165,0,0,1,.8-8.15,2.467,2.467,0,0,1,.665.186C113.206,694.565,114.389,698.236,114.877,699.424Z" transform="translate(-98.769 -545.427)" opacity="0.1"/>
    <path id="Path_2467" data-name="Path 2467" d="M122.636,700.565a3.864,3.864,0,0,0-.683.168h0a6.167,6.167,0,0,1,1.19-7.813,1.554,1.554,0,0,1,.665.16C121.381,695.735,122.1,699.04,122.636,700.565Z" transform="translate(-104.946 -546.579)" opacity="0.1"/>
    <path id="Path_2468" data-name="Path 2468" d="M130.747,703.266a.263.263,0,0,1-.222-.144c-.058-.168-.379-.248-.723-.315a6.078,6.078,0,0,1,.953-7.405c.355-.022.749-.155.887-.084h.013C128.979,698.334,130.275,702.146,130.747,703.266Z" transform="translate(-111.1 -548.429)" opacity="0.1"/>
    <path id="Path_2469" data-name="Path 2469" d="M139.9,704.322c-.242.053-.443.042-.545-.175a.5.5,0,0,0-.372-.266h0a6.176,6.176,0,0,1,1.172-7.868l.013.015c.071.1.443,0,.847-.057C137.863,699.155,139.486,703.384,139.9,704.322Z" transform="translate(-118.185 -548.953)" opacity="0.1"/>
    <path id="Path_2470" data-name="Path 2470" d="M150.332,705.24c-.146-.16-.43-.044-.7,0a6.152,6.152,0,0,1,.982-7.933,3.571,3.571,0,0,1,.8.031C148.7,700.244,149.818,703.948,150.332,705.24Z" transform="translate(-126.391 -549.986)" opacity="0.1"/>
    <path id="Path_2471" data-name="Path 2471" d="M159.886,706.505a1.729,1.729,0,0,1-.536-.166c-.044-.044-.135-.04-.257-.016h0a6.067,6.067,0,0,1,.763-7.536.9.9,0,0,1,.5.124.466.466,0,0,0,.18.075C158.288,701.877,159.421,705.361,159.886,706.505Z" transform="translate(-133.805 -551.145)" opacity="0.1"/>
    <ellipse id="Ellipse_155" data-name="Ellipse 155" cx="10.176" cy="14.984" rx="10.176" ry="14.984" transform="translate(76.432 146.08)" fill="#636780"/>
    <ellipse id="Ellipse_156" data-name="Ellipse 156" cx="7.399" cy="12.144" rx="7.399" ry="12.144" transform="translate(78.865 149.136)" opacity="0.1"/>
    <ellipse id="Ellipse_157" data-name="Ellipse 157" cx="7.399" cy="12.144" rx="7.399" ry="12.144" transform="translate(78.865 148.762)" fill="#f0f0f4"/>
    <ellipse id="Ellipse_158" data-name="Ellipse 158" cx="0.873" cy="1.498" rx="0.873" ry="1.498" transform="translate(86.732 151.26)" fill="#636780"/>
    <ellipse id="Ellipse_159" data-name="Ellipse 159" cx="0.873" cy="1.498" rx="0.873" ry="1.498" transform="translate(90.229 164.373)" fill="#636780"/>
    <ellipse id="Ellipse_160" data-name="Ellipse 160" cx="0.873" cy="1.498" rx="0.873" ry="1.498" transform="translate(80.8 158.129)" fill="#636780"/>
    <ellipse id="Ellipse_161" data-name="Ellipse 161" cx="0.873" cy="1.498" rx="0.873" ry="1.498" transform="translate(83.36 166.868)" fill="#636780"/>
    <path id="Path_2472" data-name="Path 2472" d="M775.22,634.26s7.314,19.481,6.931,20.7c0,0,3.09,1.873,3.839,1.405s.1-9.088.1-9.088l-1.405-7.585-1.594-4.495Z" transform="translate(-614.127 -500.921)" fill="#ff6366"/>
    <path id="Path_2473" data-name="Path 2473" d="M775.22,634.26s7.314,19.481,6.931,20.7c0,0,3.09,1.873,3.839,1.405s.1-9.088.1-9.088l-1.405-7.585-1.594-4.495Z" transform="translate(-614.127 -500.921)" opacity="0.15"/>
    <ellipse id="Ellipse_162" data-name="Ellipse 162" cx="0.873" cy="1.498" rx="0.873" ry="1.498" transform="translate(91.477 156.256)" fill="#636780"/>
    <ellipse id="Ellipse_163" data-name="Ellipse 163" cx="2.56" cy="3.56" rx="2.56" ry="3.56" transform="translate(85.045 157.814)" fill="#636780"/>
    <path id="Path_2474" data-name="Path 2474" d="M712.683,682.667c0,11.275-3.746,21.54-14.141,20.416-13.111-.282-14.141-9.141-14.141-20.416S690.726,663,698.537,663,712.683,671.39,712.683,682.667Z" transform="translate(-543.437 -523.291)" fill="#636780"/>
    <path id="Path_2475" data-name="Path 2475" d="M737.7,687.036c0-8.729-3.795-15.737-9.134-18.446-6.855,1.3-12.124,9.189-12.124,19.476,0,9.24.694,16.845,8.159,19.461C734.2,707.873,737.7,697.939,737.7,687.036Z" transform="translate(-568.375 -527.641)" opacity="0.1"/>
    <path id="Path_2476" data-name="Path 2476" d="M589.947,639.956s-1.873,1.591-2.9.468c0,0-2.529-20.23-5.712-20.323l-10.958-.093s-1.31.561-1.873,3l-7.093,20.17-38.822.559-2.966-6.206,32.124.093v-.013c.173-.623,5.541-19.789,9.147-22.165h0a1.554,1.554,0,0,1,.4-.193s13.392-1.773,17.794-.563c0,0,4.588,1.031,5.712,2.438h0c.151.157,1.889,2.115,2.427,7.758Z" transform="translate(-415.181 -485.356)" opacity="0.1"/>
    <path id="Path_2477" data-name="Path 2477" d="M589.947,641.646s-1.873,1.591-2.9.468c0,0-2.529-20.23-5.712-20.323l-10.958-.093s-1.31.561-1.873,3l-7.093,20.17-38.822.558-2.966-6.206,32.124.093V639.3c.173-.623,5.541-19.789,9.147-22.165h0a1.55,1.55,0,0,1,.4-.193s13.392-1.773,17.794-.563c0,0,4.588,1.031,5.712,2.438v.011c.151.157,1.889,2.115,2.427,7.758Z" transform="translate(-415.181 -486.671)" fill="#ff6366"/>
    <path id="Path_2478" data-name="Path 2478" d="M589.947,641.646s-1.873,1.591-2.9.468c0,0-2.529-20.23-5.712-20.323l-10.958-.093s-1.31.561-1.873,3l-7.093,20.17-38.822.558-2.966-6.206,32.124.093V639.3c.173-.623,5.541-19.789,9.147-22.165h0a1.55,1.55,0,0,1,.4-.193s13.392-1.773,17.794-.563c0,0,4.588,1.031,5.712,2.438v.011c.151.157,1.889,2.115,2.427,7.758Z" transform="translate(-415.181 -486.671)" opacity="0.1"/>
    <path id="Path_2479" data-name="Path 2479" d="M678.943,623.658c-.937,1.773-8.99,23.694-8.99,23.694l-5.433-3.934v-.013c.173-.623,5.541-19.809,9.152-22.165C676.021,621.63,679.579,622.45,678.943,623.658Z" transform="translate(-527.964 -490.787)" fill="#ff6366"/>
    <path id="Path_2480" data-name="Path 2480" d="M586.237,586.94l-4.4,14.421L558.89,600.7l.186,2.154s17.982,2.622,25.66-.938l4.123-13.173,36.211.186-6.9-1.623Z" transform="translate(-445.746 -464.089)" fill="#ff6366"/>
    <path id="Path_2481" data-name="Path 2481" d="M586.237,586.94l-4.4,14.421L558.89,600.7l.186,2.154s17.982,2.622,25.66-.938l4.123-13.173,36.211.186-6.9-1.623Z" transform="translate(-445.746 -464.089)" fill="#fff" opacity="0.1"/>
    <path id="Path_2482" data-name="Path 2482" d="M173.926,689.47s-12.3,6.182-3.185,11.989l2.438.561s-8.928-6.428,5.985-12.55Z" transform="translate(-141.013 -543.893)" opacity="0.1"/>
    <path id="Path_2483" data-name="Path 2483" d="M175.616,689.47s-12.3,6.182-3.185,11.989l2.438.561s-8.928-6.428,5.985-12.55Z" transform="translate(-142.328 -543.893)" fill="#dce0ed"/>
    <ellipse id="Ellipse_164" data-name="Ellipse 164" cx="6.836" cy="11.708" rx="6.836" ry="11.708" transform="translate(153.694 149.26)" fill="#636780"/>
    <ellipse id="Ellipse_165" data-name="Ellipse 165" cx="4.969" cy="9.487" rx="4.969" ry="9.487" transform="translate(155.33 151.734)" opacity="0.1"/>
    <ellipse id="Ellipse_166" data-name="Ellipse 166" cx="4.969" cy="9.487" rx="4.969" ry="9.487" transform="translate(155.33 151.359)" fill="#f0f0f4"/>
    <ellipse id="Ellipse_167" data-name="Ellipse 167" cx="0.587" cy="1.17" rx="0.587" ry="1.17" transform="translate(160.614 153.31)" fill="#636780"/>
    <ellipse id="Ellipse_168" data-name="Ellipse 168" cx="0.587" cy="1.17" rx="0.587" ry="1.17" transform="translate(162.964 163.555)" fill="#636780"/>
    <ellipse id="Ellipse_169" data-name="Ellipse 169" cx="0.587" cy="1.17" rx="0.587" ry="1.17" transform="translate(156.629 158.676)" fill="#636780"/>
    <ellipse id="Ellipse_170" data-name="Ellipse 170" cx="0.587" cy="1.17" rx="0.587" ry="1.17" transform="translate(158.349 165.505)" fill="#636780"/>
    <ellipse id="Ellipse_171" data-name="Ellipse 171" cx="0.587" cy="1.17" rx="0.587" ry="1.17" transform="translate(163.802 157.213)" fill="#636780"/>
    <ellipse id="Ellipse_172" data-name="Ellipse 172" cx="1.72" cy="2.779" rx="1.72" ry="2.779" transform="translate(159.482 158.432)" fill="#636780"/>
    <path id="Path_2484" data-name="Path 2484" d="M324.8,524s20.793.749,47.763,8.148Z" transform="translate(-263.543 -415.1)" opacity="0.1"/>
    <path id="Path_2485" data-name="Path 2485" d="M769.856,359.77s-1.128.182-.541,1.671A10.655,10.655,0,0,1,770,363.7s1.131.587,1.084-1.357A2.892,2.892,0,0,0,769.856,359.77Z" transform="translate(-609.399 -287.271)" fill="#dce0ed"/>
    <path id="Path_2486" data-name="Path 2486" d="M520.849,493.982l-.013.018a2.114,2.114,0,0,0-.443,1.022c-.182,1.184-.355,3.608,1.368,3.207a5.32,5.32,0,0,0,2.567-1.394,2.1,2.1,0,0,0,.57-1.552h0a1.618,1.618,0,0,0-.711-1.352l-.641-.368a1.109,1.109,0,0,0-.6-.155l-1.108.04A1.383,1.383,0,0,0,520.849,493.982Z" transform="translate(-415.696 -391.288)" fill="#fec2be"/>
    <path id="Path_2487" data-name="Path 2487" d="M559.152,404.5l-3.309,16.442-2.343,4.947,1.552,2.881,3.436-8.09s3.768-11.858,3.768-12.191A41.7,41.7,0,0,0,559.152,404.5Z" transform="translate(-441.551 -322.087)" fill="#ff6366"/>
  </g>
</svg>
